<?xml version="1.0" encoding="UTF-8" standalone="no"?>
<!-- Created with Inkscape (http://www.inkscape.org/) -->

<svg
   xmlns:dc="http://purl.org/dc/elements/1.1/"
   xmlns:cc="http://creativecommons.org/ns#"
   xmlns:rdf="http://www.w3.org/1999/02/22-rdf-syntax-ns#"
   xmlns:svg="http://www.w3.org/2000/svg"
   xmlns="http://www.w3.org/2000/svg"
   xmlns:xlink="http://www.w3.org/1999/xlink"
   xmlns:sodipodi="http://sodipodi.sourceforge.net/DTD/sodipodi-0.dtd"
   xmlns:inkscape="http://www.inkscape.org/namespaces/inkscape"
   width="900"
   height="900"
   viewBox="0 0 238.12499 238.12501"
   version="1.1"
   id="svg978"
   inkscape:version="0.92.4 (5da689c313, 2019-01-14)"
   sodipodi:docname="iconMain.svg">
  <defs
     id="defs972">
    <linearGradient
       inkscape:collect="always"
       xlink:href="#linearGradient2001"
       id="linearGradient2003"
       x1="2.324213"
       y1="177.93738"
       x2="235.3271"
       y2="177.93738"
       gradientUnits="userSpaceOnUse"
       gradientTransform="translate(2.9531346e-6,-4.2367187e-6)" />
    <linearGradient
       inkscape:collect="always"
       id="linearGradient2001">
      <stop
         style="stop-color:#e1eaea;stop-opacity:1;"
         offset="0"
         id="stop1997" />
      <stop
         style="stop-color:#e1eaea;stop-opacity:0;"
         offset="1"
         id="stop1999" />
    </linearGradient>
  </defs>
  <sodipodi:namedview
     id="base"
     pagecolor="#ffffff"
     bordercolor="#666666"
     borderopacity="1.0"
     inkscape:pageopacity="0.0"
     inkscape:pageshadow="2"
     inkscape:zoom="0.24748737"
     inkscape:cx="1375.514"
     inkscape:cy="-506.00032"
     inkscape:document-units="px"
     inkscape:current-layer="layer1"
     showgrid="false"
     units="px"
     fit-margin-top="0"
     fit-margin-left="0"
     fit-margin-right="0"
     fit-margin-bottom="0"
     inkscape:pagecheckerboard="true"
     inkscape:window-width="1920"
     inkscape:window-height="1027"
     inkscape:window-x="-8"
     inkscape:window-y="-8"
     inkscape:window-maximized="1" />
  <metadata
     id="metadata975">
    <rdf:RDF>
      <cc:Work
         rdf:about="">
        <dc:format>image/svg+xml</dc:format>
        <dc:type
           rdf:resource="http://purl.org/dc/dcmitype/StillImage" />
        <dc:title></dc:title>
      </cc:Work>
    </rdf:RDF>
  </metadata>
  <g
     inkscape:label="Layer 1"
     inkscape:groupmode="layer"
     id="layer1"
     transform="translate(11.501449,-27.437709)">
    <g
       id="g1562"
       transform="translate(-3.5000021e-7,2.4999998e-6)">
      <g
         transform="translate(-11.264634,-31.437169)"
         id="g2006">
        <path
           inkscape:connector-curvature="0"
           id="path1888"
           d="M 235.06023,177.93738 A 116.23454,116.79581 0 0 1 118.82568,294.73318 116.23454,116.79581 0 0 1 2.5911407,177.93738 116.23454,116.79581 0 0 1 118.82568,61.141571 116.23454,116.79581 0 0 1 235.06023,177.93738 Z"
           style="opacity:1;fill:url(#linearGradient2003);fill-opacity:1;fill-rule:nonzero;stroke:#b4cacc;stroke-width:0.53380942;stroke-linecap:square;stroke-linejoin:round;stroke-miterlimit:4;stroke-dasharray:none;stroke-opacity:1;paint-order:fill markers stroke" />
      </g>
      <g
         id="text1083-4"
         style="font-style:normal;font-weight:normal;font-size:197.92692566px;line-height:1.25;font-family:sans-serif;letter-spacing:0px;word-spacing:0px;fill:#8aacaf;fill-opacity:1;stroke:#0c295c;stroke-width:0.79374999;stroke-miterlimit:4;stroke-dasharray:none;stroke-opacity:1"
         transform="matrix(0.99115435,0,0,1.0089246,-11.264634,-31.437169)"
         aria-label="m">
        <path
           inkscape:connector-curvature="0"
           id="path975"
           style="font-style:normal;font-variant:normal;font-weight:normal;font-stretch:normal;font-family:Milestone;-inkscape-font-specification:Milestone;fill:#8aacaf;fill-opacity:1;stroke:#0c295c;stroke-width:0.79374999;stroke-miterlimit:4;stroke-dasharray:none;stroke-opacity:1"
           d="m 199.67356,167.98451 q -0.39586,0.98964 0.19792,1.58342 -0.59378,0.98963 -1.78134,2.17719 0,0.39586 0.19793,0.59378 0.39585,0 0.59378,0 -0.39586,0.79171 -1.58342,1.97927 -1.18756,1.18756 -2.37512,3.56269 -0.39585,1.18756 -0.79171,1.18756 -0.79171,0.39585 -0.79171,0.79171 -0.19792,0.59378 -0.98963,1.58341 -0.79171,0.98964 -0.98964,1.58342 0,0 -0.19792,0.19793 -0.19793,0 -0.39586,0 l -0.39585,-0.19793 q 0,0.39585 -0.19793,0.79171 -0.19792,0.39585 -0.19792,0.59378 0,0.7917 0.59378,0.7917 0.7917,0 0.98963,0 -0.39585,0.39586 -0.39585,0.39586 -0.19793,0.19793 -0.59378,0.19793 -1.78135,0 -2.96891,1.78134 h 0.39586 q 0.7917,0 1.97927,-0.79171 0.59378,0 0.59378,0.79171 0,0 0,0.19792 0,0 -0.19793,0 -1.38549,1.38549 -1.58342,1.97927 -0.39585,0.59378 -0.7917,0.39586 -0.19793,0 -0.39586,0.39585 -0.19792,0.19793 0,0.59378 0.39586,1.18756 -0.7917,1.18756 l -0.98964,0.79171 q -0.19793,0.19793 -0.98963,1.58342 -0.59378,1.38549 -1.97927,1.97927 -0.59378,0.19792 -0.79171,0.98963 0,0.79171 -0.19793,1.18756 -0.19792,0 -0.79171,0 -0.59378,0 -1.18756,0.79171 -0.19792,0.39585 0,0.98963 0.19793,0.59379 0,0.98964 -0.19792,0 -0.7917,0.19793 -0.59379,0 -0.79171,0.7917 -0.19793,0.19793 -0.79171,0.39586 -0.59378,0.19792 -0.79171,0.19792 v 0.39586 q 0,1.38549 -0.98963,2.57305 -0.79171,1.18756 -1.18756,1.58341 -0.79171,-0.39585 -1.38549,-0.39585 -1.18756,0 -1.97927,0.98963 0.19793,0.39586 0.59378,0.59379 0.39585,0.19792 0.59378,0.39585 -0.39585,0.59378 -1.18756,0.79171 -0.59378,0.19792 -0.98964,0.39585 v 0.59378 q 0,1.18756 -1.38548,1.38549 l -0.19793,0.39585 q 0,1.38549 -1.18756,1.97927 -0.39586,0.39586 -0.39586,0.98964 0,0.59378 -0.19792,0.79171 -0.39586,0.19792 -0.59378,0 -0.19793,-0.39586 -0.39586,-0.39586 -0.59378,0 -0.98963,0.79171 0,0.59378 -0.39586,0.59378 -1.18756,0.19793 -2.17719,1.78134 -0.98964,1.38549 -1.58342,1.78134 -0.39585,0.19793 -0.98963,0.59379 -0.39586,0.39585 -1.38549,0.59378 -0.19793,0.7917 -1.78134,3.36475 -0.79171,0.79171 -1.58342,0.19793 0,-0.79171 0.19793,-1.38549 0.19792,-0.79171 0.39585,-1.58341 -0.79171,-0.39586 -1.18756,0.39585 -0.19793,0.59378 -0.39585,0.59378 -0.39586,-0.59378 -1.18757,-0.59378 0,-0.19793 0.19793,-0.39585 0.19793,-0.39586 0,-0.59378 -0.59378,-0.59378 -0.98963,0 -0.39586,0.39585 -0.39586,0.39585 -0.98963,1.38549 -1.97927,1.58342 l 0.19793,0.19792 v 0.19793 l -0.19793,0.19793 -0.19792,0.19792 -0.19793,0.19793 q 0,0 -0.19793,0.19793 0,0.19792 -0.19792,0 v -0.19793 -0.19793 q 0,0 0,0 0,-0.19792 0.19792,-0.19792 v -0.19793 l 0.19793,-0.59378 q -0.59378,-0.59378 -1.58342,0 -0.19792,0.19793 0,0.39585 0.19793,0.19793 0.19793,0.39586 -0.39585,0.39585 -0.79171,0 -0.19792,-0.39586 -0.39585,-0.59378 -2.57305,0.98963 -4.75025,0.7917 -0.19792,0.39586 0.39586,0.59378 0.79171,0 0.79171,0.19793 h -0.39586 q -1.18756,0 -2.17719,-0.39585 -0.79171,-0.59378 -1.18757,-0.79171 0.59378,0 0.79171,-0.19793 0.19793,0 0.59378,-0.39585 l 0.39586,-0.59378 q -0.19793,-0.19793 -0.79171,-0.19793 -0.39586,0 -1.38549,0.39585 -0.79171,0.19793 -1.38549,0 0,-0.19792 -0.39585,-0.98963 -0.19793,-0.79171 -0.98964,-0.39585 -0.19792,0.19792 -0.39585,0 -0.19793,-0.19793 -0.19793,-0.19793 -0.19792,-0.79171 -0.98963,-1.58342 -0.79171,-0.98963 -1.18756,-1.78134 v -0.79171 q 0,-0.7917 -0.39586,-1.18756 -0.39585,-0.39585 -1.58341,-0.59378 0,-1.18756 -0.98964,-1.97927 -0.79171,-0.98963 -0.79171,-3.56268 0.19793,-1.58342 0.39586,-3.16683 0.19792,-1.58342 0.39585,-3.16683 l 1.58342,-11.28184 1.78134,-8.51086 q 0.39585,-0.7917 1.38549,-5.1461 0.39585,-0.59378 -0.39586,-1.38549 0.19793,-0.39585 0.59379,-0.7917 0.59378,-0.59378 0.39585,-1.18756 l -0.19793,-0.39586 q -0.39585,0 -0.98963,0.59378 -0.59378,0.59378 -0.98964,0.79171 l -0.19792,-0.79171 q -0.39586,0.19793 -0.79171,0.59378 -0.19793,0.39586 0.59378,0.59378 0,0 0,-0.19792 0,-0.19793 0.19793,0 v 0.59378 q -0.59379,0.98963 -1.78135,2.57305 -1.18756,1.38549 -1.58341,2.57305 0,0.19793 -0.59378,0.19793 -0.39586,0 -0.39586,0.59378 0,0.19792 0.19793,0 0.19793,-0.19793 0.39585,0 v 0.19792 q -0.19792,0.39586 -0.59378,0.79171 -0.19792,0.39585 -0.39585,0.79171 -0.19793,0.59378 -0.98964,0.59378 0.39586,0 0,0.39585 -0.19792,0.59378 0,0.98964 0.39586,0.19792 0.98964,0.19792 0,0.19793 -0.39585,0.98964 -0.39586,0.59378 0.39585,1.18756 -0.79171,0.19793 -0.98964,0.19793 -1.18756,-0.59378 -1.58341,-0.59378 -0.39585,0 -1.58342,1.18756 0.59378,0.59378 0.59378,1.58341 0,0.79171 -0.7917,1.58342 -0.19793,0.39585 -0.19793,1.18756 0.19793,0 0.19793,0.39585 v 0.19793 h -0.39586 q -0.98963,-0.39585 -1.18756,0.39586 l -1.18756,1.97926 -0.98963,1.97927 q 0,0.39586 0.59378,0.59378 0.59378,0.19793 0.59378,0.39586 0,1.18756 -0.98964,1.18756 -0.59378,0.19793 -1.18756,0.79171 -0.39585,0.59378 -0.59378,0.79171 -0.39585,0.39585 -0.39585,0.7917 0,0.19793 0.59378,0.59378 0.98963,0.98964 0,1.58342 -0.39586,0.39585 -0.79171,1.58341 -0.19793,1.18757 -0.79171,1.58342 -0.19793,0.19793 0.19793,0.59378 l 0.19793,0.79171 q 0,0.59378 -0.39586,1.38549 -0.19793,0.7917 -0.39585,1.38549 0,0.19792 -0.79171,0.19792 l 0.19793,0.98964 q 0,1.18756 -0.79171,3.16683 -0.19793,0.39585 0,0.98963 -0.39585,-0.19792 -0.79171,-0.19792 -0.39585,0 -0.59378,0.59378 -0.59378,0.59378 -0.59378,0.98963 l -0.19793,0.79171 q 0,1.38549 2.1772,1.18756 -1.58342,1.97927 -3.36476,2.1772 -0.39585,0.19792 -0.59378,-0.19793 -0.19793,-0.39585 -0.39585,-0.59378 0.39585,-0.19793 1.18756,-0.59378 0.98963,-0.39586 0.98963,-1.38549 -1.18756,-0.59378 -1.97927,-0.59378 -0.98963,0 -1.78134,0.19793 -0.59378,0.19792 -1.18756,0.39585 -0.19793,-0.19793 0,-0.59378 0.39585,-0.39586 0.19793,-0.79171 -0.19793,0 -0.79171,0 -0.59378,0 -0.98964,0.79171 0,0.19793 -0.19792,0.59378 -0.19793,0.39585 0.59378,0.79171 -0.19793,0.39585 -0.59378,0.59378 -0.39586,0.19792 -0.59378,0.59378 0.19792,0 0.59378,0.39585 0,0.19793 -0.39586,0.19793 -1.38548,0.39585 -1.97927,1.18756 0,0.19793 -0.19792,0.39585 0,0.19793 -0.19793,0 H 103.679 q -0.59378,0 -1.78135,0.39586 -0.98963,0.39585 -1.58341,0.19793 h -0.593782 q -0.197927,0 -1.583415,0.7917 -0.197927,-0.39585 -1.979269,-0.98963 -1.583416,-0.39586 -2.770977,-1.38549 -0.989635,-0.98963 -1.385489,-1.38549 -0.395854,-0.19793 -0.791707,-0.59378 -0.395854,-0.59378 -0.791708,-0.59378 0,0 -0.593781,-0.59378 0,-0.39585 -0.791708,-1.18756 -0.59378,-0.98964 -0.395853,-1.78134 l -0.395854,-0.39586 q -0.791708,-0.59378 -0.989635,-1.38549 0,-0.98963 -0.593781,-1.18756 -0.197927,-0.39585 -0.395854,-0.79171 0,-0.59378 -0.197926,-0.98963 -0.395854,-0.79171 -0.395854,-2.37512 0,-1.58342 0.791707,-4.75025 0.989635,-3.76061 1.385489,-8.51086 0.395854,-5.1461 0.791708,-7.71915 l 0.395853,-3.56268 q 0.395854,-1.58342 0.395854,-5.1461 v -0.59378 q 0,-1.58342 -1.187561,-1.97927 -0.197927,0 -0.197927,-0.19793 0.197927,-0.39585 0,-0.59378 -0.593781,0.19793 -0.989635,0.98963 -0.791708,1.18757 -1.583415,2.57305 -0.593781,1.18757 -1.385489,2.37513 -0.395854,0.19792 -0.395854,0.98963 0,1.58342 -1.187561,1.97927 l -0.395854,0.79171 q -0.593781,0.98963 -1.187562,1.38549 -0.59378,0.39585 -1.385488,0.59378 -0.395854,1.18756 -0.395854,1.78134 0.395854,0.98964 -0.593781,1.18756 -0.791707,0.19793 -1.187561,0.79171 -0.197927,0.59378 0,1.18756 v 0.39586 q 0,0.59378 -0.395854,1.18756 -0.197927,0.59378 -0.197927,1.18756 -0.197927,0.19793 -0.395854,0.79171 -0.197927,0.39585 -0.197927,0.98963 0,0.39585 -0.395854,0.39585 l -0.791707,0.39586 -0.395854,1.97927 q -1.187562,-0.79171 -1.781342,-0.39586 -0.197927,0.39586 0,0.59378 0.197926,0.19793 0.395853,0.39586 -0.197927,0.39585 -0.395853,0.79171 -0.197927,0.19792 -0.197927,0.7917 0,0.39586 -0.395854,0.79171 -0.395854,0.19793 -0.593781,0.39586 -0.593781,0.7917 -0.989635,2.17719 -0.395854,1.38549 -0.791707,1.97927 -0.197927,0.19793 -0.197927,0.59378 0.197927,0.19793 0,0.19793 -1.385489,0.79171 -1.781343,2.37512 -0.395853,1.38549 -0.395853,1.78134 -0.791708,2.57305 -1.583416,3.36476 -0.197927,0.39586 0,0.79171 0.395854,0.19793 0.395854,0.39585 -0.197927,0.39586 -0.593781,0.59378 -0.197927,0.19793 -0.395854,0.59378 0,0.19793 0.197927,0.59379 0.197927,0.39585 -0.197927,0.7917 -1.187561,0.79171 -2.770977,0.19793 -0.197927,0.98963 -1.187561,1.58342 -0.791708,0.59378 -1.385489,0.98963 -0.197927,0.19793 -0.59378,0.39585 -0.197927,0 -0.395854,0.19793 0,0.19793 -0.593781,0.39585 -0.395854,0.19793 -0.593781,0.59379 -0.197927,0.19792 -0.593781,0 -0.197927,-0.19793 -0.197927,-0.39586 -0.197926,-0.19793 -0.791707,-0.19793 0.197927,-0.7917 0.989634,-0.7917 0.989635,0 1.385489,0 -0.395854,-0.39586 -0.395854,-0.98964 0,-0.19792 0,-0.79171 0.197927,-0.59378 -0.197927,-0.98963 -0.395854,0.19793 -0.593781,0.59378 0,0.19793 0,0.59378 -0.197927,0.19793 -0.989634,0.59378 -0.593781,0.19793 -1.385489,0.19793 0,0.59378 -0.197927,0.98963 -0.197927,0.39586 -0.989634,0.59378 -0.593781,-0.7917 -2.177197,-0.39585 -0.989634,0 -1.583415,-0.39585 -1.187561,-1.18756 -2.770977,-1.97927 -1.385488,-0.98964 -2.375123,-3.16683 -1.979269,-2.96891 -3.760612,-4.75025 -0.989634,-0.98963 -1.187561,-2.1772 -0.395854,-1.38548 0.197927,-2.37512 2.375123,-4.55232 4.354392,-10.68805 l 3.562685,-12.4694 q 2.177196,-6.72951 3.364758,-11.67769 0.59378,-1.78134 1.385488,-5.73988 l 1.187562,-4.55232 q 1.385488,-5.93781 3.958538,-12.27147 0.989635,-2.77097 1.187562,-5.54195 0.197927,-2.1772 1.385488,-4.35439 1.583416,-2.96891 2.770977,-9.89635 0.197927,-0.59378 0.395854,-1.18756 0.395854,-0.79171 0.593781,-1.38549 0,-0.19793 0.197927,-0.39585 0.197927,-0.19793 0.395853,-0.19793 0.593781,-0.19793 1.583416,-0.59378 0.989635,-0.59378 1.979269,-0.59378 1.187562,0 2.57305,-0.19793 1.583416,-0.39585 2.57305,-0.19793 0.593781,0 1.385489,-0.39585 0.989634,-0.39585 1.583415,-0.19793 0.197927,0 0.593781,0 0.593781,-0.19792 0.791708,0 1.979269,1.38549 3.760611,0.39586 0,0 1.187562,1.78134 0.989634,0.98963 0.989634,2.77098 0,1.38549 0.395854,2.17719 0.395854,0.39586 0,0.98964 -0.395854,0.39585 -0.593781,0.98963 0,0.59378 -0.197926,0.98964 -0.395854,0.7917 0.197926,1.97927 -1.385488,0.7917 -1.187561,1.78134 0.197927,0.19793 0,0.79171 -0.197927,0.39585 -0.395854,0.59378 0,0 -0.593781,0.39585 -0.395854,0.39585 0,1.18756 0.197927,0.19793 -0.395854,0.39586 -0.395853,0.19792 -0.395853,0.59378 0.395853,0.19792 0.989634,0.19792 -0.197927,0.19793 -0.791708,0.79171 -0.59378,0.59378 -0.395853,1.58342 0,0.39585 -0.593781,0.98963 -0.593781,0.39586 0,1.18756 -0.197927,0 -0.791708,0 -0.593781,0 -0.593781,0.59378 -0.197927,0.39586 0,0.79171 0.395854,0.19793 0.395854,0.59378 -0.197927,0.19793 -0.593781,0.98964 -0.197926,0.59378 -0.791707,0.7917 0.989634,1.97927 0.989634,2.57305 -0.197927,0.59379 -0.989634,1.18757 -0.593781,0.59378 -0.989635,0.98963 1.781342,0.59378 2.177196,-0.59378 0.989635,-1.97927 2.375123,-2.1772 0.197927,0 0.395854,-0.19792 0.395854,-0.39586 0.395854,-0.59378 l 4.552319,-6.92745 q 1.187562,-1.58341 1.97927,-2.17719 1.385488,-0.98964 1.979269,-2.57305 1.385488,-1.78134 4.156465,-4.55232 1.97927,-1.78134 5.541952,-5.73988 1.97927,-1.97927 3.76061,-2.96891 1.78135,-1.18756 4.15647,-0.98963 h 0.59378 q 0.98963,-0.39585 3.16683,-0.39585 2.37512,0 3.36476,0.19792 0.39585,0 1.18756,0 0.79171,-0.19792 1.38549,0 0.79171,0 0.98963,0.59378 0.79171,0.79171 2.1772,0.98964 0.19793,0.19792 0.19793,0.98963 0.19792,0.59378 0.59378,0.79171 0.39585,0 0.39585,0.59378 l -0.19793,0.79171 q 0,0.79171 0.19793,1.78134 0.39585,0.98964 0.59378,1.78134 0,0.19793 0,0.98964 0,0.59378 -0.59378,0.98963 -0.59378,0.79171 -0.19793,2.1772 0.59378,1.18756 0,1.78134 -0.19792,0.39585 -0.39585,0.98964 0,0.39585 0.19793,0.59378 1.18756,0.98963 0,2.17719 -0.39586,0.79171 -0.39586,1.97927 0.39586,-0.39585 0.59378,-0.39585 v 0.59378 q 0,0.59378 -0.19792,1.58341 -0.19793,0.79171 0,1.58342 0,0.19793 -0.39586,0.19793 -0.39585,-0.19793 -0.59378,0 -0.19792,0.39585 0.19793,0.59378 0.59378,0.19792 0.59378,0.59378 -0.59378,0.59378 -1.18756,1.58341 -0.39586,0.79171 -0.59378,1.18756 l 1.38549,0.98964 q 0.59378,-0.59378 1.97927,-1.58342 1.58341,-1.18756 2.57305,-2.37512 0.98963,-1.38549 3.36475,-4.15646 l 0.59378,-0.79171 q 3.16683,-2.96891 5.54196,-5.73988 0.59378,-0.98964 1.78134,-1.97927 l 3.76061,-3.95854 q 0.59378,-0.79171 2.1772,-1.97927 1.18756,-0.98963 2.77098,-2.57305 1.58341,-1.78134 2.9689,-2.77098 0.79171,-0.7917 1.38549,-1.97927 1.97927,-1.58341 3.16683,-1.78134 0.59378,-0.19793 1.58341,-0.59378 0.98964,-0.59378 1.97927,-0.59378 1.38549,-0.19793 3.95854,-0.39585 2.77098,-0.39586 4.55232,-0.19793 0.59378,0.19793 1.38549,0.19793 h 0.79171 q 2.17719,0 2.57305,1.97927 l -1.18756,0.19792 0.19792,0.79171 -0.19792,0.98963 v 0.59379 q 1.38548,-0.79171 1.78134,-2.57305 0.59378,0.19792 0.98963,0.59378 0.59378,0.19792 0.98964,0.39585 0,0.59378 -0.39586,1.18756 -0.19792,0.59378 0.39586,0.98964 -0.19793,0.39585 -0.79171,0.7917 -0.59378,0.19793 -0.59378,0.59378 h 0.39585 q 0.39586,0 0.79171,-0.19792 0.59378,-0.39586 0.98963,-0.19793 0,0.39585 -0.59378,0.59378 -0.39585,0.19793 -0.59378,0.59378 0,0.39586 0.19793,0.79171 0.39585,0.39585 0.79171,0.19793 -0.59378,0.7917 -0.59378,1.38549 0,0.19792 1.18756,1.18756 0.19793,0.19792 0,0.59378 -0.19793,0.39585 -0.19793,0.59378 -0.98963,2.17719 -0.79171,3.95854 l 0.19793,0.39585 q -0.79171,0.79171 -0.79171,2.1772 0,0.19792 0,0.98963 0,0.59378 -0.39585,1.18756 -0.39585,0.39586 -0.19793,0.79171 0.19793,0.19793 0.19793,0.59378 0,0.79171 -0.79171,1.58342 0,0.19792 0.19793,0.59378 0.19793,0.19792 0.59378,0 -0.19793,0.19792 -0.19793,0.59378 0,0.19793 -0.19792,0.39585 -0.59379,1.18756 -0.79171,2.77098 -0.19793,1.58341 -0.19793,1.97927 -1.18756,0.19793 -1.58341,0.59378 -0.39586,0.39585 -1.18757,1.78134 0.79171,0.79171 1.18757,-0.19793 0.19792,0 0.39585,-0.19792 0.39585,-0.19793 0.79171,0 -0.19793,0.39585 -0.59378,0.79171 -0.39586,0.39585 -0.79171,1.18756 0.19793,0.19792 0.98963,0.19792 l -0.19792,0.98964 q 0,0.39585 -0.39586,0.79171 -0.39585,0.39585 0.19793,0.7917 0,0.19793 -0.39585,0.79171 -0.19793,0.39586 -0.59379,0.59378 -0.7917,0 -0.7917,0.59378 0.19792,0.19793 0.59378,0.19793 0.59378,-0.19793 0.79171,0 v 0.39585 q 0,1.18757 -0.79171,1.58342 -0.98964,0.59378 -0.98964,0.98963 0,0.19793 0.98964,1.18757 -0.59378,0.59378 -0.59378,0.7917 0.19792,0.19793 0.98963,0.39586 0,3.16683 -1.38549,5.73988 -2.37512,4.94817 -2.37512,10.2922 0,1.18756 0.39585,3.95854 v 0.7917 q 0,0.98964 -0.59378,1.58342 -0.98963,0.59378 -1.18756,1.58342 1.18756,-0.39586 3.95854,-2.77098 0.19793,0 0.59378,0.19793 0.59378,0.19792 0.98964,-0.19793 1.38548,-1.78134 3.95853,-3.76061 2.77098,-1.97927 3.95854,-2.96891 0.79171,-0.7917 1.78134,-0.98963 0.19793,0 0.98964,-0.79171 0.79171,-0.98963 1.78134,-1.78134 1.18756,-0.98964 1.78134,-1.38549 7.12537,-5.93781 7.12537,-5.93781 l 3.36476,-2.37512 6.72952,-4.75025 q 0,0.59378 -0.39586,0.98964 -0.19792,0.39585 -0.19792,0.98963 z m -65.71174,11.08391 q 0.19792,0.39585 0,1.18756 -0.19793,0.59378 -0.19793,0.79171 -0.19793,0 -0.59378,0.19793 -0.19793,0 -0.59378,-0.19793 0.59378,-1.18756 1.38549,-1.97927 z m -46.314904,4.55232 q -1.583415,0.98963 -1.187562,2.57305 h -0.791707 q -0.395854,-1.18756 -0.197927,-1.38549 0.197927,-0.79171 0.593781,-0.98963 0.395853,-0.39586 1.583415,-0.19793 z m 38.397824,2.9689 q 0.59378,0.19793 0.79171,0 0.19792,-0.39585 0.39585,-0.59378 -0.79171,-0.19792 -0.98963,0.19793 0,0.19793 -0.19793,0.39585 z m -41.564655,-0.39585 q 0.593781,1.18756 1.583416,1.38549 -0.791708,0.79171 -1.385489,1.58341 -0.395854,0.79171 -0.395854,1.78135 -0.395854,0.19792 -0.593781,0 -0.197926,-0.19793 -0.395853,-0.19793 0.791707,-0.59378 0.59378,-1.18756 0,-0.79171 -0.395853,-1.38549 0.989634,-1.58342 0.989634,-1.97927 z m -5.1461,7.71915 q 0.791708,0.19793 0.395854,1.18756 -0.395854,-0.19793 -0.593781,-0.39585 -0.197927,-0.39586 0.197927,-0.79171 z m -0.197927,1.58341 q 0,-0.19792 0,-0.19792 0.197927,0 0.197927,0 h 0.197927 v 0.19792 q -0.197927,0 -0.197927,0.19793 0,0 0,0 z m 42.554292,4.94818 0.19792,0.19792 h -0.19792 z m 22.76159,26.52221 q 0.19793,-0.59379 0.59378,-0.79171 0.39586,-0.19793 0.39586,-0.19793 0.19793,-0.19793 0.59378,-0.19793 0.39585,-0.19792 0.79171,-0.39585 0,0.39585 -0.39586,0.98963 -0.19792,0.39586 -0.19792,0.79171 z m 3.76062,0.39585 q -0.59379,-0.98964 -0.19793,-1.38549 0.59378,-0.39585 0.79171,-0.39585 v 0.19792 q 0,0.59378 -0.59378,1.58342 z m -42.35637,0.19793 q 0.19793,-0.79171 0.59378,-0.59378 0.59378,0.19792 0.79171,0.19792 -0.19793,0 -0.59378,0.39586 -0.39585,0.19792 -0.79171,0 z" />
      </g>
      <path
         id="path1059-1"
         d="m 99.074341,29.95079 c -4.506439,0.38843 -6.905019,0.72138 -6.868679,0.94334 0.0182,0.12948 -1.01759,0.33295 -2.689329,0.53641 -1.508201,0.16648 -3.452516,0.46243 -4.306556,0.64739 -4.433756,0.98034 -8.249693,1.94218 -10.939021,2.79304 -1.653574,0.51792 -3.815937,1.1838 -4.797179,1.49825 C 61.024,38.9218 50.611939,44.04544 42.344073,49.66851 38.092028,52.57252 31.713961,57.60369 28.297788,60.76666 24.390993,64.39206 18.521717,70.34807 16.32301,72.95614 11.162408,79.06012 6.655967,85.62652 3.7485856,91.36057 c -1.399177,2.73754 -4.8516928,10.41378 -5.8874474,13.04033 -1.9443114,5.01268 -4.2157031,13.28079 -5.2514578,19.05183 -0.9085565,5.12365 -1.1084391,7.2323 -1.1084391,12.023 0,4.55025 0.1271979,5.99301 0.4906206,5.88203 0.3452516,-0.12948 0.6723319,-1.33178 1.4173484,-5.14215 0.3815938,-1.97917 0.7813588,-4.03233 0.8722143,-4.53174 0.1453693,-0.72139 0.1635403,-0.46242 0.072684,1.2023 -0.072684,1.16531 -0.1271982,4.05083 -0.1271982,6.41842 0,4.71672 0.1090268,5.21614 0.8177011,3.99534 0.3089093,-0.49941 0.5269628,-1.46125 0.8358721,-3.47742 l 0.4179361,-2.77454 -0.1090266,3.53292 c -0.054513,2.3861 -0.018172,4.08781 0.1271979,5.23463 0.2362247,1.68322 0.2362247,1.70171 0.4724492,1.12831 0.1817116,-0.42543 0.6178188,-4.19881 0.6178188,-5.29012 0,-0.037 0.1271978,-0.074 0.2725668,-0.074 0.4542784,0 1.1629527,-2.81153 2.2895623,-9.08199 0.5814769,-3.31096 1.3083235,-7.10282 1.6172335,-8.41609 0.635989,-2.70057 1.435519,-5.51209 1.544545,-5.40112 0.05451,0.037 -0.03633,0.72139 -0.181712,1.51676 -0.32708,1.70172 -0.308908,1.59074 -0.09086,1.59074 0.109027,0 0.181713,-0.14798 0.181713,-0.33294 0.01818,-0.22198 0.09086,-0.16649 0.290737,0.20345 0.1453691,0.27745 0.3452521,0.46241 0.4542781,0.40694 0.09086,-0.074 0.4542789,-0.6844 0.79953,-1.35029 0.363423,-0.73986 0.617819,-1.09131 0.635989,-0.86935 0,0.22196 0.07268,0.46242 0.163541,0.5549 0.09086,0.11099 0.09086,1.09133 0,2.21964 -0.199883,2.83002 0.07269,5.08666 0.599647,5.08666 0.236224,0 0.7631883,-1.3133 1.9624823,-4.95717 1.217467,-3.60691 1.290151,-3.77339 1.453692,-3.27397 0.09086,0.25897 0.272567,0.0184 0.726845,-1.03582 1.362836,-3.052 5.178773,-10.59874 6.632464,-13.07733 1.835285,-3.16298 2.816527,-4.60574 7.759073,-11.33861 5.30597,-7.21379 7.613705,-10.06233 12.211002,-14.964 2.271393,-2.42311 2.652985,-2.68206 1.199296,-0.83238 -2.598471,3.34795 -3.888624,5.82653 -3.016409,5.82653 0.32708,0 2.253221,-1.51674 5.832935,-4.60572 10.775482,-9.32246 18.080276,-14.39061 27.383896,-18.95935 10.157664,-5.01267 20.49703,-7.91668 32.671694,-9.21147 3.05275,-0.31445 14.4097,-0.31445 17.44428,0 5.90562,0.6289 12.02929,1.7942 16.82647,3.18147 31.27252,9.0265 55.67635,32.83205 65.74316,64.12882 2.16236,6.7514 3.56155,13.79873 4.32473,21.78939 0.29074,3.16297 0.29074,12.6149 0,15.90735 -1.14478,12.68889 -4.45192,24.54542 -10.12132,36.25396 -7.50467,15.53742 -18.93431,28.81822 -33.25317,38.65857 -16.04512,11.00568 -33.99819,16.62875 -54.96769,17.22064 -16.662917,0.48092 -32.435454,-3.21846 -48.516908,-11.39409 -2.562127,-1.2948 -1.926141,-0.70289 0.908558,0.85084 11.829407,6.49242 24.549203,10.33978 38.886221,11.76405 3.270799,0.31445 14.882159,0.31445 18.171129,0 24.65822,-2.4416 45.62771,-12.33744 63.12651,-29.81704 1.87163,-1.88669 4.25205,-4.38377 5.25146,-5.54908 2.48945,-2.88551 2.653,-3.03349 1.29015,-1.10982 -0.32707,0.46243 -0.58147,0.98035 -0.5633,1.14682 0.0545,0.42542 -4.08851,5.14214 -7.26846,8.30511 -7.06857,6.99184 -14.64593,12.70739 -22.95014,17.23914 -4.50644,2.46008 -12.81065,5.62306 -19.27957,7.32478 -7.84993,2.07165 -13.79189,2.90402 -23.96772,3.34794 -2.54396,0.11098 -5.30597,0.27745 -6.12368,0.38844 -3.68873,0.44392 -14.191648,-0.75838 -21.133013,-2.44159 -16.081455,-3.90286 -31.054466,-11.59758 -44.065,-22.65874 -2.162363,-1.84969 -7.322965,-6.93635 -10.648283,-10.52475 -2.671157,-2.86703 -5.687565,-6.71438 -8.15884,-10.41376 -0.63599,-0.94335 -1.181124,-1.66472 -1.235636,-1.60923 -0.272568,0.27746 4.451927,6.80687 7.431992,10.28429 0.835872,0.98033 2.162366,2.53407 2.943726,3.45892 1.998823,2.34912 7.813587,8.10166 10.393886,10.32129 10.466575,8.87851 22.005242,15.37093 34.797722,19.56974 3.743254,1.23929 9.41264,2.68205 12.992349,3.34794 1.39918,0.24046 2.961899,0.53641 3.452519,0.62889 0.54513,0.0925 0.70867,0.16647 0.41793,0.18497 -0.96306,0.037 -7.014054,-1.10981 -10.64827,-2.03466 -6.995887,-1.75721 -13.973603,-4.32828 -20.297156,-7.49125 -15.463633,-7.73172 -28.019888,-18.29346 -38.032184,-32.03667 -1.053926,-1.44276 -1.94431,-2.58957 -1.998824,-2.53408 -0.109027,0.0925 1.235638,2.03466 3.216291,4.62423 9.012883,11.78254 20.2063,21.45642 32.817067,28.33729 16.026939,8.73054 34.343436,13.05882 53.150554,12.5594 2.4531,-0.0554 5.14242,-0.14797 5.99647,-0.20347 l 1.54455,-0.074 -1.59907,0.25896 c -2.9437,0.46242 -7.45015,0.70288 -12.48357,0.70288 -11.266088,-0.0184 -19.751998,-1.36877 -29.437211,-4.67972 -8.867513,-3.03349 -18.952493,-8.21263 -26.529856,-13.61373 -18.407359,-13.11432 -32.326448,-31.46326 -39.41319,-51.92086 -1.181123,-3.44043 -1.526375,-3.27396 -0.399765,0.18496 5.651223,17.46109 16.8083,34.27481 31.127153,46.94519 0.781359,0.68438 1.417349,1.29478 1.417349,1.33177 0,0.0555 -0.472451,-0.29594 -1.035757,-0.79535 -6.41441,-5.47509 -12.029289,-11.50509 -17.044521,-18.29346 -4.106678,-5.54908 -6.959546,-10.35827 -10.939024,-18.40444 -1.544547,-3.10748 -2.925553,-5.77104 -3.070921,-5.91901 -0.218053,-0.22197 -0.254397,-0.22197 -0.254397,0.0925 0,0.44392 0.345252,1.60924 0.981242,3.31095 0.254397,0.68438 0.436107,1.33178 0.381594,1.42426 -0.308909,0.49942 5.45134,10.98718 9.012882,16.38828 6.41441,9.72937 15.118384,19.03333 24.603715,26.32111 2.652985,2.01617 7.613706,5.36411 10.539259,7.10282 2.980066,1.7572 3.343487,2.03467 1.271979,0.92485 -4.942549,-2.60806 -11.702211,-7.30629 -16.899157,-11.72705 -8.158837,-6.91785 -15.009354,-14.64956 -20.769604,-23.4541 -2.107852,-3.18147 -4.270217,-6.88085 -4.143019,-7.01034 0.14537,-0.14796 -0.981241,-2.3306 -1.435519,-2.73754 -0.199882,-0.20346 -0.65416,-1.03582 -0.981241,-1.84969 -0.327081,-0.81386 -1.035755,-2.31212 -1.562719,-3.32945 -1.94431,-3.69938 -4.7971783,-11.76404 -6.3598953,-17.92351 -1.998825,-7.91668 -2.9982374,-14.61257 -3.3616614,-22.76971 -0.254395,-5.4011 -0.3089082,-5.80804 -0.3270792,-2.49709 -0.09086,8.02767 1.4536916,18.57091 4.0521636,27.76389 2.9982363,10.56174 7.6318753,20.86453 13.4648093,29.89102 0.944899,1.46126 1.671744,2.75604 1.617232,2.84853 -0.218054,0.33295 2.362247,3.92134 6.814174,9.48892 0.308909,0.38843 0.07269,0.25896 -0.726845,-0.42544 -1.344665,-1.1283 -1.580888,-0.99883 -0.745016,0.40693 l 0.563306,0.96186 -0.835875,-0.92486 c -1.381003,-1.49824 -4.942546,-6.08549 -6.832345,-8.78604 -5.869275,-8.39759 -10.9390233,-18.21946 -14.2643393,-27.65289 -0.508793,-1.42427 -1.017584,-2.84852 -1.126612,-3.14447 l -0.199881,-0.55492 0.07268,0.6474 c 0.03634,0.35144 0.581476,2.10864 1.199294,3.88435 5.5785393,15.88885 14.4823943,30.26096 26.1664333,42.19148 3.706913,3.77337 5.687563,5.58607 9.812412,8.95251 4.470098,3.64389 6.650635,5.27163 10.357546,7.76871 15.681687,10.59873 33.253174,16.66571 52.187497,18.03449 3.92497,0.27746 11.92026,0.22197 15.97242,-0.11098 13.64653,-1.10981 27.12951,-4.84619 39.39503,-10.91318 10.48475,-5.17914 21.13303,-12.54091 28.85576,-19.93968 1.03576,-0.98033 1.90797,-1.77571 1.9443,-1.77571 0.30891,0 -0.67232,1.29478 -1.85345,2.4231 -7.25028,7.04732 -17.91673,14.50159 -27.52926,19.2183 -15.33644,7.54675 -31.19985,11.30162 -48.64412,11.56058 C 91.987602,262.32751 75.179303,258.55414 59.116021,250.71144 42.743839,242.72089 28.570354,230.88286 17.522304,215.93734 5.2749606,199.38261 -2.1388618,180.84868 -4.591965,160.63155 c -0.5269627,-4.40227 -0.9267277,-7.02883 -1.090268,-7.12132 -0.545134,-0.33295 -0.2907382,5.78954 0.4542782,10.8762 2.8165259,19.51425 10.4665735,37.93718 22.1506128,53.40062 11.55684,15.29694 27.020474,27.63438 44.446594,35.47708 20.133614,9.0635 41.430168,11.96751 63.780668,8.71205 13.1014,-1.90518 27.27488,-6.80686 38.95891,-13.48426 14.55508,-8.28661 26.3118,-18.84835 36.59666,-32.83203 7.83176,-10.63573 14.19166,-23.95351 17.93491,-37.54875 2.81653,-10.2473 4.05216,-19.47725 4.34291,-32.46209 0.0182,-1.36878 0.0363,0.46242 0,4.06932 -0.0182,4.38377 -0.14538,7.52824 -0.32708,9.43342 -1.9625,19.29229 -7.54102,35.95803 -17.38979,51.95786 -1.09026,1.7757 -1.96247,3.25545 -1.90795,3.29246 0.12719,0.14797 1.32649,-1.49825 2.79834,-3.82888 8.92203,-14.22412 14.6096,-30.39043 16.82648,-47.72204 0.87222,-6.84387 1.18112,-17.20214 0.67233,-23.39862 -1.09027,-13.63223 -3.94314,-25.69222 -8.74032,-36.99384 -0.50879,-1.22079 -1.18112,-2.95951 -1.49003,-3.86586 -2.79835,-8.47159 -9.7579,-20.27262 -17.40794,-29.52108 -2.67117,-3.21848 -8.34056,-9.00801 -11.35697,-11.54209 -5.21511,-4.40227 -11.48416,-8.87852 -15.17289,-10.8207 -7.55919,-3.95834 -10.59377,-5.4011 -15.44546,-7.32478 -1.34467,-0.53641 -3.76143,-1.51675 -5.36049,-2.16414 -8.70397,-3.6069 -18.53456,-5.95601 -29.70981,-7.10282 -4.17935,-0.42543 -15.69986,-0.51791 -19.897389,-0.16647 z m -32.526317,9.28546 c -12.447225,5.03116 -24.640059,12.48542 -34.252586,20.93851 -2.580304,2.27512 -7.286625,6.93635 -9.812414,9.72938 -1.653574,1.8312 -1.617231,1.68322 0.163542,-0.5549 4.742664,-5.95602 13.955429,-13.8542 22.822942,-19.55125 6.141845,-3.95835 14.536907,-8.34212 19.624823,-10.2473 1.635403,-0.6104 2.834699,-0.86935 1.453693,-0.31444 z M 51.756723,49.90897 c -0.127202,0.14797 -0.963073,0.72138 -1.8898,1.27629 -7.068571,4.29128 -15.590832,11.22763 -20.933146,16.99867 -1.944311,2.10865 -7.486509,7.54675 -6.74149,6.62189 0.272566,-0.35144 1.599059,-1.84968 2.925553,-3.32944 7.104912,-7.87969 15.336436,-14.76054 24.512858,-20.47609 1.199295,-0.73988 2.216877,-1.35028 2.25322,-1.35028 0.05451,0 -0.01818,0.11098 -0.127195,0.25896 z M 12.30719,87.84616 c 0,0.037 -0.327081,0.62889 -0.726845,1.29478 -0.926729,1.53524 -2.489445,4.69822 -3.797768,7.69473 -0.563305,1.27628 -1.199295,2.49707 -1.3991774,2.71904 -0.708674,0.77687 -4.742665,10.2288 -5.8874472,13.81719 -0.381594,1.2393 -0.7268451,1.90519 -0.7268451,1.44277 0,-0.70288 2.5439583,-7.8057 4.0885053,-11.44959 1.835284,-4.32828 4.7971804,-10.00684 7.6500474,-14.74204 0.454279,-0.7399 0.79953,-1.09133 0.79953,-0.77688 z m -7.9226154,17.60907 c -1.490033,3.62539 -3.9613061,11.19064 -4.8516933,14.85301 -0.6723306,2.77456 -1.4900318,7.3248 -2.1078503,11.61609 -0.1998826,1.35028 -0.4361074,2.57107 -0.5269629,2.68205 -0.090857,0.12948 -0.2180537,0.38843 -0.2725671,0.5919 -0.2180538,0.75838 0.090855,-1.77571 0.7086742,-5.84503 0.672332,-4.53173 1.5263755,-8.30512 2.9618943,-13.13282 1.3446651,-4.58722 4.5246131,-13.11431 4.6881522,-12.61488 0.03634,0.11097 -0.236224,0.94333 -0.5996471,1.84968 z m -9.7578983,25.06333 c -0.054513,0.14798 -0.1090269,0.0925 -0.1090269,-0.11098 -0.018172,-0.20346 0.036342,-0.31445 0.090856,-0.24046 0.054513,0.0555 0.072684,0.22196 0.018172,0.35144 z m 2.3259052,6.60341 c -0.072684,0.46242 -0.1817113,0.73987 -0.2180534,0.61038 -0.054513,-0.12947 -0.036342,-0.72137 0.054513,-1.29477 0.090855,-0.66589 0.1635403,-0.88785 0.2180534,-0.6104 0.036342,0.24046 0.018172,0.83236 -0.054513,1.29479 z m 39.6312425,93.07651 c 10.829996,9.67388 23.458934,17.01716 37.141798,21.62289 6.432582,2.16415 13.75555,3.81037 21.31474,4.80921 2.543949,0.33293 3.579709,0.5364 5.669388,1.09131 1.03575,0.27746 -1.508199,0.11099 -5.287798,-0.35144 -24.476514,-3.01499 -46.99055,-14.18713 -63.762506,-31.64823 l -2.180534,-2.27513 2.471274,2.40461 c 1.344663,1.33178 3.434342,3.27395 4.633638,4.34678 z m 57.729688,21.0125 c -0.1272,0.037 -0.3816,0.037 -0.54513,0 -0.18172,-0.0554 -0.0727,-0.0925 0.21805,-0.0925 0.30891,0 0.43611,0.037 0.32708,0.0925 z"
         inkscape:connector-curvature="0"
         style="fill:#474d5d;fill-opacity:1;stroke:#0c295c;stroke-width:0.26458332;stroke-miterlimit:4;stroke-dasharray:none;stroke-opacity:1" />
    </g>
  </g>
</svg>
