<?xml version="1.0" encoding="UTF-8" standalone="no"?>
<!-- Created with Inkscape (http://www.inkscape.org/) -->

<svg
   xmlns:dc="http://purl.org/dc/elements/1.1/"
   xmlns:cc="http://creativecommons.org/ns#"
   xmlns:rdf="http://www.w3.org/1999/02/22-rdf-syntax-ns#"
   xmlns:svg="http://www.w3.org/2000/svg"
   xmlns="http://www.w3.org/2000/svg"
   xmlns:sodipodi="http://sodipodi.sourceforge.net/DTD/sodipodi-0.dtd"
   xmlns:inkscape="http://www.inkscape.org/namespaces/inkscape"
   width="1600"
   height="800"
   viewBox="0 0 423.33332 211.66667"
   version="1.1"
   id="svg924"
   inkscape:version="0.92.4 (5da689c313, 2019-01-14)"
   sodipodi:docname="footerLogoS.svg"
   inkscape:export-filename="E:\WebDev\SMB Website\Mojopixie_Logos\logos Redone\logo\footerLogoS.png"
   inkscape:export-xdpi="96"
   inkscape:export-ydpi="96">
  <defs
     id="defs918" />
  <sodipodi:namedview
     id="base"
     pagecolor="#ffffff"
     bordercolor="#666666"
     borderopacity="1.0"
     inkscape:pageopacity="0.0"
     inkscape:pageshadow="2"
     inkscape:zoom="0.35"
     inkscape:cx="300.49758"
     inkscape:cy="-156.6712"
     inkscape:document-units="mm"
     inkscape:current-layer="g1700"
     showgrid="false"
     units="px"
     inkscape:pagecheckerboard="true"
     inkscape:window-width="1920"
     inkscape:window-height="1027"
     inkscape:window-x="-8"
     inkscape:window-y="-8"
     inkscape:window-maximized="1" />
  <metadata
     id="metadata921">
    <rdf:RDF>
      <cc:Work
         rdf:about="">
        <dc:format>image/svg+xml</dc:format>
        <dc:type
           rdf:resource="http://purl.org/dc/dcmitype/StillImage" />
        <dc:title></dc:title>
      </cc:Work>
    </rdf:RDF>
  </metadata>
  <g
     inkscape:label="Layer 1"
     inkscape:groupmode="layer"
     id="layer1"
     transform="translate(0,-85.333324)">
    <g
       id="g1700">
      <g
         id="g1121"
         transform="translate(-0.03985172)">
        <g
           id="g1083">
          <text
             transform="scale(0.96188446,1.0396259)"
             id="text1083"
             y="226.9193"
             x="40.056934"
             style="font-style:normal;font-weight:normal;font-size:166.38812256px;line-height:1.25;font-family:sans-serif;letter-spacing:0px;word-spacing:0px;fill:#8aacaf;fill-opacity:1;stroke:#0c295c;stroke-width:0.46302083;stroke-miterlimit:4;stroke-dasharray:none;stroke-opacity:1"
             xml:space="preserve"><tspan
               style="font-style:normal;font-variant:normal;font-weight:normal;font-stretch:normal;font-family:Milestone;-inkscape-font-specification:Milestone;fill:#8aacaf;fill-opacity:1;stroke:#0c295c;stroke-width:0.46302083;stroke-miterlimit:4;stroke-dasharray:none;stroke-opacity:1"
               y="226.9193"
               x="40.056934"
               id="tspan1081"
               sodipodi:role="line">m</tspan></text>
          <path
             style="fill:#474d5d;fill-opacity:1;stroke:#ffffff;stroke-width:0.1984375;stroke-miterlimit:4;stroke-dasharray:none;stroke-opacity:1"
             inkscape:connector-curvature="0"
             d="m 89.204545,90.20758 c -3.676486,0.336479 -5.633327,0.624889 -5.603674,0.81716 0.01481,0.112157 -0.830176,0.28841 -2.194031,0.464654 -1.230438,0.144209 -2.816664,0.400567 -3.513415,0.560794 -3.617186,0.849203 -6.730339,1.682381 -8.924378,2.419427 -1.349029,0.448637 -3.113145,1.025456 -3.913676,1.29784 -6.893403,2.211131 -15.387866,6.649415 -22.133025,11.520305 -3.468941,2.51556 -8.672354,6.87374 -11.459364,9.61361 -3.187279,3.14045 -7.975603,8.29975 -9.769374,10.55895 -4.210164,5.28749 -7.88665,10.97554 -10.258572,15.94257 -1.141492,2.37136 -3.958148,9.02077 -4.803151,11.29599 -1.586226,4.34215 -3.439288,11.50429 -4.284291,16.50337 -0.741223,4.43829 -0.904294,6.26487 -0.904294,10.41475 0,3.94157 0.103772,5.19134 0.400261,5.09521 0.28167,-0.11217 0.548506,-1.15364 1.156311,-4.45432 0.311316,-1.71441 0.637459,-3.49293 0.711577,-3.92554 0.118599,-0.62489 0.133426,-0.40057 0.05932,1.04147 -0.05932,1.00943 -0.103772,3.50896 -0.103772,5.55987 0,4.08578 0.08895,4.51839 0.667105,3.4609 0.252017,-0.43262 0.429915,-1.2658 0.681932,-3.01227 l 0.340962,-2.4034 -0.08895,3.06033 c -0.04451,2.06693 -0.01481,3.54101 0.103772,4.53442 0.192717,1.45806 0.192717,1.47409 0.385434,0.97738 0.148253,-0.36852 0.504041,-3.63714 0.504041,-4.58248 0,-0.0321 0.103764,-0.0641 0.222363,-0.0641 0.370616,0 0.948775,-2.43544 1.867888,-7.86713 0.474388,-2.86806 1.067374,-6.15272 1.319391,-7.29032 0.518852,-2.33932 1.171138,-4.77476 1.260083,-4.67863 0.04451,0.0321 -0.02962,0.62489 -0.148244,1.31386 -0.266844,1.47409 -0.252017,1.37795 -0.07414,1.37795 0.08895,0 0.148245,-0.12818 0.148245,-0.28841 0.01481,-0.19227 0.07413,-0.1442 0.23719,0.17625 0.118599,0.24034 0.28167,0.40057 0.370615,0.3525 0.07413,-0.0641 0.370616,-0.59284 0.652278,-1.16966 0.29649,-0.6409 0.504034,-0.94533 0.518861,-0.75306 0,0.19227 0.05932,0.40057 0.133417,0.48068 0.07413,0.0961 0.07413,0.94534 0,1.92272 -0.163071,2.45147 0.05932,4.40624 0.489215,4.40624 0.192717,0 0.622624,-1.13761 1.601045,-4.29408 0.993248,-3.12442 1.052547,-3.26862 1.185965,-2.83601 0.07413,0.22431 0.222371,0.016 0.592978,-0.89728 1.111839,-2.64374 4.224992,-9.18099 5.410957,-11.32804 1.497281,-2.73987 2.297803,-3.98964 6.330078,-9.8219 4.328763,-6.24884 6.211479,-8.71634 9.962083,-12.96235 1.85307,-2.09897 2.164386,-2.32329 0.978421,-0.72102 -2.119905,2.90011 -3.172453,5.04714 -2.460875,5.04714 0.266843,0 1.838243,-1.31385 4.758678,-3.98965 8.790946,-8.07542 14.750408,-12.46564 22.340569,-16.42325 8.28692,-4.34214 16.722084,-6.8577 26.654527,-7.97929 2.49052,-0.27238 11.755849,-0.27238 14.231559,0 4.81797,0.54478 9.81383,1.5542 13.72751,2.7559 25.51302,7.81907 45.42237,28.44026 53.63516,55.55065 1.76413,5.84828 2.90561,11.95292 3.52824,18.87472 0.23719,2.73988 0.23719,10.92747 0,13.77951 -0.93394,10.99156 -3.63201,21.2621 -8.25726,31.40446 -6.12254,13.45906 -15.44717,24.96334 -27.1289,33.48741 -13.09007,9.5335 -27.73671,14.4044 -44.844229,14.91712 -13.594093,0.41658 -26.461793,-2.78795 -39.581502,-9.86998 -2.090259,-1.12158 -1.571407,-0.60886 0.741223,0.73705 9.650775,5.62396 20.027947,8.95668 31.724508,10.19042 2.668411,0.27239 12.14129,0.27239 14.82454,0 20.11689,-2.11499 37.2244,-10.68713 51.50043,-25.82856 1.52693,-1.63432 3.46894,-3.79738 4.28428,-4.80681 2.03097,-2.49954 2.16439,-2.62772 1.05255,-0.96136 -0.26684,0.40057 -0.47439,0.8492 -0.45956,0.99341 0.0444,0.36852 -3.33552,4.4543 -5.92982,7.19418 -5.76674,6.05658 -11.94857,11.00759 -18.72338,14.93314 -3.67649,2.13102 -10.4513,4.8709 -15.72883,6.34498 -6.4042,1.79455 -11.25183,2.51557 -19.553571,2.90011 -2.075428,0.0961 -4.328758,0.24034 -4.995868,0.33648 -3.00937,0.38454 -11.577955,-0.65693 -17.240928,-2.11499 -13.119717,-3.38079 -25.335131,-10.04623 -35.9495,-19.62779 -1.764117,-1.60227 -5.974281,-6.00851 -8.687173,-9.11691 -2.179205,-2.48352 -4.64008,-5.81624 -6.656221,-9.02077 -0.518852,-0.81716 -0.963594,-1.44204 -1.008067,-1.39398 -0.222363,0.24035 3.632013,5.89635 6.063235,8.90862 0.681931,0.8492 1.764124,2.1951 2.401575,2.99624 1.630699,2.03488 6.374551,7.01793 8.479637,8.94066 8.538929,7.69089 17.952506,13.31485 28.388985,16.95199 3.053853,1.07353 7.679106,2.3233 10.599542,2.90011 1.141484,0.2083 2.416394,0.46466 2.816656,0.54478 0.444741,0.0801 0.578159,0.1442 0.340969,0.16022 -0.785703,0.0321 -5.722272,-0.96136 -8.68718,-1.76249 -5.707446,-1.52216 -11.400065,-3.74931 -16.559005,-6.48919 -12.615676,-6.69748 -22.859429,-15.84644 -31.02775,-27.75129 -0.859822,-1.24977 -1.586226,-2.24318 -1.630699,-2.19511 -0.08894,0.0801 1.008067,1.7625 2.623939,4.00567 7.352971,10.20645 16.484886,18.58632 26.773112,24.54676 13.075236,7.56271 28.018369,11.31201 43.361771,10.8794 2.001311,-0.048 4.195341,-0.12818 4.892091,-0.17625 l 1.26009,-0.0641 -1.30456,0.22432 c -2.40158,0.40056 -6.078059,0.60886 -10.184459,0.60886 -9.191214,-0.016 -16.114271,-1.18567 -24.015748,-4.05374 C 62.475908,276.88787 54.248288,272.40151 48.066462,267.72289 33.049211,256.3628 21.693611,240.4683 15.912047,222.74721 c -0.963594,-2.98022 -1.245264,-2.83601 -0.326143,0.16023 4.610434,15.12541 13.712695,29.69003 25.39443,40.66557 0.637452,0.59284 1.156312,1.12159 1.156312,1.15363 0,0.0481 -0.385435,-0.25636 -0.844995,-0.68897 -5.233059,-4.74272 -9.813847,-9.96611 -13.905413,-15.84644 -3.350343,-4.8068 -5.6778,-8.9727 -8.924371,-15.94257 -1.260083,-2.69181 -2.386748,-4.99907 -2.505347,-5.12726 -0.177891,-0.19227 -0.207544,-0.19227 -0.207544,0.0801 0,0.38454 0.28167,1.39397 0.800522,2.86806 0.207544,0.59284 0.355789,1.15363 0.311316,1.23374 -0.252016,0.43262 4.447363,9.51748 7.352972,14.1961 5.233058,8.42794 12.334013,16.48735 20.072419,22.80028 2.164385,1.74648 6.211479,4.64658 8.598228,6.15271 2.431229,1.52216 2.727718,1.7625 1.03772,0.80114 -4.032275,-2.2592 -9.547003,-6.32896 -13.786822,-10.15838 -6.656213,-5.99249 -12.24506,-12.68997 -16.944439,-20.31677 -1.719644,-2.7559 -3.483768,-5.96044 -3.379996,-6.0726 0.118599,-0.12818 -0.800523,-2.01885 -1.171138,-2.37135 -0.163064,-0.17625 -0.533679,-0.89727 -0.800523,-1.60227 -0.266843,-0.705 -0.844995,-2.00284 -1.27491,-2.88408 -1.586226,-3.20454 -3.913676,-10.19043 -5.188586,-15.52599 -1.630698,-6.8577 -2.446048,-12.65792 -2.742537,-19.72392 -0.207544,-4.67862 -0.252017,-5.03112 -0.266844,-2.16307 -0.07413,6.95385 1.185965,16.08679 3.305871,24.05006 2.446048,9.14895 6.226306,18.07359 10.984984,25.89266 0.770869,1.26579 1.363855,2.38737 1.319383,2.46749 -0.177898,0.28841 1.927188,3.39681 5.559201,8.21964 0.252017,0.33647 0.05932,0.22431 -0.592986,-0.36853 -1.097012,-0.97738 -1.289729,-0.86522 -0.607806,0.3525 l 0.459561,0.83318 -0.681932,-0.80113 c -1.126657,-1.29784 -4.032266,-5.27146 -5.57402,-7.61078 -4.788324,-7.2743 -8.92437,-15.78234 -11.637262,-23.95391 -0.415088,-1.23375 -0.830169,-2.46749 -0.919122,-2.72386 l -0.163063,-0.48068 0.05932,0.5608 c 0.02962,0.30443 0.474379,1.82658 0.978413,3.36476 4.551134,13.76349 11.815153,26.21311 21.347329,36.54774 3.024208,3.26863 4.64008,4.83885 8.005249,7.75498 3.64684,3.15647 5.425784,4.56647 8.449983,6.72953 12.793574,9.181 27.128901,14.43644 42.576068,15.62212 3.2021,0.24034 9.724891,0.19227 13.030761,-0.0961 11.13322,-0.96136 22.13303,-4.19794 32.13959,-9.45338 8.55376,-4.48636 17.24094,-10.86338 23.54136,-17.27246 0.845,-0.8492 1.55657,-1.53817 1.58623,-1.53817 0.25201,0 -0.54851,1.12158 -1.51211,2.09897 -5.91498,6.10464 -14.61699,12.56178 -22.45917,16.64757 -12.5119,6.53725 -25.45372,9.78985 -39.685281,10.01418 -14.453905,0.20825 -28.1666,-3.06038 -41.27149,-9.854 C 43.248513,274.51649 31.685377,264.26197 22.672061,251.31564 12.680324,236.97533 6.631916,220.9206 4.630602,203.40781 c -0.429907,-3.8134 -0.75605,-6.08862 -0.889468,-6.16874 -0.444733,-0.2884 -0.237189,5.01511 0.370616,9.42135 2.297803,16.90393 8.538928,32.86252 18.071104,46.25749 9.428404,13.25076 22.04408,23.93788 36.260808,30.7315 16.425587,7.85112 33.799937,10.36668 52.034118,7.54669 10.68849,-1.65034 22.25162,-5.89635 31.7838,-11.68054 11.87445,-7.17816 21.46593,-16.32711 29.85661,-28.44026 6.38938,-9.21305 11.57797,-20.74938 14.63182,-32.52605 2.2978,-8.87657 3.30587,-16.87189 3.54306,-28.11981 0.0148,-1.18568 0.0296,0.40056 0,3.52498 -0.0148,3.79739 -0.11859,6.52124 -0.26684,8.17158 -1.60105,16.71166 -6.15218,31.14809 -14.18708,45.00772 -0.88947,1.53818 -1.60105,2.81999 -1.55658,2.85203 0.10377,0.12819 1.08219,-1.29783 2.28299,-3.31669 7.27884,-12.32145 11.91892,-26.32527 13.72751,-41.33853 0.71158,-5.92839 0.96359,-14.90109 0.54851,-20.26869 -0.88947,-11.80872 -3.21692,-22.25551 -7.13061,-32.04537 -0.41508,-1.0575 -0.96359,-2.56363 -1.21561,-3.34874 -2.28297,-7.33839 -7.96076,-17.56086 -14.2019,-25.57221 -2.1792,-2.78794 -6.80446,-7.80304 -9.26533,-9.99815 -4.25465,-3.8134 -9.36911,-7.69088 -12.37849,-9.37327 -6.167,-3.42885 -8.6427,-4.67862 -12.60085,-6.344978 -1.09701,-0.464663 -3.06868,-1.313866 -4.37324,-1.87466 -7.10095,-3.124422 -15.12102,-5.1593 -24.23811,-6.152704 -3.40964,-0.368524 -12.808401,-0.448637 -16.232864,-0.144209 z m -26.535922,8.04339 c -10.154801,4.35817 -20.102065,10.81531 -27.944243,18.13767 -2.105086,1.97079 -5.944644,6.00852 -8.005249,8.42793 -1.349037,1.58625 -1.319383,1.45807 0.133417,-0.48068 3.869203,-5.1593 11.385246,-12.00098 18.619619,-16.93597 5.010687,-3.42886 11.859625,-7.22623 16.010491,-8.876566 1.334209,-0.52875 2.31263,-0.753064 1.185965,-0.272384 z m -12.06717,9.24509 c -0.103772,0.12818 -0.785704,0.62488 -1.541754,1.10556 -5.766737,3.71727 -12.719447,9.72577 -17.077857,14.72484 -1.586226,1.82659 -6.107715,6.53727 -5.499909,5.73613 0.222371,-0.30443 1.304564,-1.60227 2.386756,-2.88409 5.796391,-6.82566 12.511904,-12.78609 19.998293,-17.7371 0.978421,-0.64091 1.808597,-1.16966 1.838243,-1.16966 0.04451,0 -0.01481,0.0961 -0.103772,0.22432 z m -32.184061,32.86252 c 0,0.0321 -0.266844,0.54477 -0.592986,1.12159 -0.75605,1.32988 -2.030961,4.06976 -3.098327,6.66543 -0.45956,1.10557 -0.97842,2.16307 -1.141484,2.35534 -0.57816,0.67295 -3.869203,8.86054 -4.803151,11.96895 -0.311316,1.07352 -0.592979,1.65034 -0.592979,1.24977 0,-0.60886 2.075433,-6.76158 3.335516,-9.91804 1.497281,-3.74931 3.913676,-8.66828 6.241133,-12.77008 0.370608,-0.64091 0.652278,-0.94535 0.652278,-0.67296 z m -6.463496,15.25359 c -1.215611,3.14045 -3.231752,9.69373 -3.958156,12.86622 -0.548506,2.4034 -1.21561,6.34499 -1.719643,10.06224 -0.163072,1.16966 -0.355789,2.22716 -0.429908,2.3233 -0.07413,0.11216 -0.177898,0.33647 -0.22237,0.51272 -0.177899,0.65694 0.07413,-1.53818 0.578159,-5.06316 0.548506,-3.92556 1.245256,-7.19419 2.416394,-11.37611 1.09702,-3.97363 3.691313,-11.36008 3.824731,-10.92747 0.02962,0.0961 -0.192718,0.81716 -0.489207,1.60226 z M 3.99312,177.32292 c -0.04451,0.12818 -0.08895,0.0801 -0.08895,-0.0961 -0.01481,-0.17625 0.02962,-0.27239 0.07413,-0.2083 0.04443,0.048 0.05932,0.19228 0.01481,0.30444 z m 1.897542,5.72009 c -0.05932,0.40057 -0.148245,0.64091 -0.177898,0.52875 -0.04443,-0.11216 -0.02962,-0.62489 0.04443,-1.12159 0.07413,-0.57682 0.133418,-0.76909 0.177898,-0.52875 0.02962,0.2083 0.01481,0.72102 -0.04443,1.12159 z m 32.332305,80.62615 c 8.835426,8.37986 19.138471,14.74087 30.301346,18.73051 5.247885,1.87466 11.222174,3.30068 17.389181,4.16591 2.075433,0.2884 2.920436,0.46465 4.625255,0.94533 0.845,0.24034 -1.23044,0.0961 -4.313939,-0.30442 -19.968647,-2.6117 -38.336249,-12.2894 -52.01929,-27.41482 l -1.778944,-1.97079 2.016134,2.08295 c 1.097019,1.15363 2.801836,2.83601 3.780257,3.76533 z m 47.097548,18.20176 c -0.103772,0.0321 -0.311316,0.0321 -0.444741,0 -0.148245,-0.048 -0.05932,-0.0801 0.177898,-0.0801 0.252016,0 0.355788,0.0321 0.266843,0.0801 z"
             id="path1759" />
        </g>
        <g
           id="g1078">
          <g
             id="g1717"
             transform="matrix(1.4698018,0,0,1.4698018,-367.94324,364.59791)"
             style="stroke:#0c295c;stroke-width:0.27001941;stroke-miterlimit:4;stroke-dasharray:none;stroke-opacity:1">
            <text
               xml:space="preserve"
               style="font-style:normal;font-weight:normal;font-size:34.63993073px;line-height:1.25;font-family:sans-serif;letter-spacing:0px;word-spacing:0px;fill:#8aacaf;fill-opacity:1;stroke:#0c295c;stroke-width:0.27001941;stroke-miterlimit:4;stroke-dasharray:none;stroke-opacity:1"
               x="418.59467"
               y="-127.94077"
               id="text1079"
               transform="scale(0.96188446,1.0396259)"><tspan
                 sodipodi:role="line"
                 x="418.59467"
                 y="-127.94077"
                 style="font-style:normal;font-variant:normal;font-weight:normal;font-stretch:normal;font-family:Milestone;-inkscape-font-specification:Milestone;fill:#8aacaf;fill-opacity:1;stroke:#0c295c;stroke-width:0.27001941;stroke-miterlimit:4;stroke-dasharray:none;stroke-opacity:1"
                 id="tspan1641">mojopixie</tspan></text>
            <text
               xml:space="preserve"
               style="font-style:normal;font-weight:normal;font-size:34.63993073px;line-height:1.25;font-family:sans-serif;letter-spacing:0px;word-spacing:0px;fill:#8aacaf;fill-opacity:1;stroke:#0c295c;stroke-width:0.27001941;stroke-miterlimit:4;stroke-dasharray:none;stroke-opacity:1"
               x="403.52081"
               y="-78.44619"
               id="text1079-0"
               transform="scale(0.96188446,1.0396259)"><tspan
                 sodipodi:role="line"
                 x="403.52081"
                 y="-78.44619"
                 style="font-style:normal;font-variant:normal;font-weight:normal;font-stretch:normal;font-family:Milestone;-inkscape-font-specification:Milestone;fill:#8aacaf;fill-opacity:1;stroke:#0c295c;stroke-width:0.27001941;stroke-miterlimit:4;stroke-dasharray:none;stroke-opacity:1"
                 id="tspan1641-2">Innovations</tspan></text>
          </g>
          <g
             id="g1085"
             transform="translate(2.9147796,0.02354538)">
            <ellipse
               transform="rotate(33.805982)"
               ry="4.9778948"
               rx="1.1191912"
               cy="-6.8852739"
               cx="299.26834"
               id="path833"
               style="opacity:1;fill:#8aacaf;fill-opacity:1;fill-rule:nonzero;stroke:none;stroke-width:0.13816722;stroke-linecap:square;stroke-linejoin:round;stroke-miterlimit:4;stroke-dasharray:none;stroke-opacity:1;paint-order:fill markers stroke" />
            <ellipse
               transform="rotate(38.5241)"
               ry="4.9778948"
               rx="1.1191912"
               cy="-32.274342"
               cx="296.92834"
               id="path833-1"
               style="opacity:1;fill:#8aacaf;fill-opacity:1;fill-rule:nonzero;stroke:none;stroke-width:0.13816722;stroke-linecap:square;stroke-linejoin:round;stroke-miterlimit:4;stroke-dasharray:none;stroke-opacity:1;paint-order:fill markers stroke" />
            <ellipse
               transform="matrix(0.71977614,0.69420625,-0.83407864,0.55164555,0,0)"
               ry="3.4628844"
               rx="0.73156369"
               cy="-105.01531"
               cx="305.44559"
               id="path833-9"
               style="opacity:1;fill:#8aacaf;fill-opacity:1;fill-rule:nonzero;stroke:none;stroke-width:0.09316979;stroke-linecap:square;stroke-linejoin:round;stroke-miterlimit:4;stroke-dasharray:none;stroke-opacity:1;paint-order:fill markers stroke" />
            <ellipse
               transform="matrix(0.92786376,0.37291936,-0.69893986,0.71518045,0,0)"
               ry="2.2683842"
               rx="0.63780397"
               cy="29.536253"
               cx="354.99878"
               id="path833-15"
               style="opacity:1;fill:#8aacaf;fill-opacity:1;fill-rule:nonzero;stroke:none;stroke-width:0.07040961;stroke-linecap:square;stroke-linejoin:round;stroke-miterlimit:4;stroke-dasharray:none;stroke-opacity:1;paint-order:fill markers stroke" />
            <ellipse
               transform="matrix(0.71023284,0.70396684,-0.41214098,0.91112009,0,0)"
               ry="3.4157243"
               rx="0.66554224"
               cy="-166.3083"
               cx="436.72784"
               id="path833-96"
               style="opacity:1;fill:#8aacaf;fill-opacity:1;fill-rule:nonzero;stroke:none;stroke-width:0.08825905;stroke-linecap:square;stroke-linejoin:round;stroke-miterlimit:4;stroke-dasharray:none;stroke-opacity:1;paint-order:fill markers stroke" />
            <ellipse
               transform="matrix(0.71023284,0.70396684,-0.41214098,0.91112009,0,0)"
               ry="3.4157243"
               rx="0.66554224"
               cy="-162.16527"
               cx="437.25043"
               id="path833-96-6"
               style="opacity:1;fill:#8aacaf;fill-opacity:1;fill-rule:nonzero;stroke:none;stroke-width:0.08825905;stroke-linecap:square;stroke-linejoin:round;stroke-miterlimit:4;stroke-dasharray:none;stroke-opacity:1;paint-order:fill markers stroke" />
            <ellipse
               transform="matrix(0.41664498,0.90906928,-0.38151681,0.9243619,0,0)"
               ry="2.7315817"
               rx="0.46550781"
               cy="-382.93253"
               cx="559.65387"
               id="path833-96-7"
               style="opacity:1;fill:#8aacaf;fill-opacity:1;fill-rule:nonzero;stroke:none;stroke-width:0.06600861;stroke-linecap:square;stroke-linejoin:round;stroke-miterlimit:4;stroke-dasharray:none;stroke-opacity:1;paint-order:fill markers stroke" />
            <ellipse
               transform="rotate(38.5241)"
               ry="4.9778948"
               rx="1.1191912"
               cy="21.99272"
               cx="349.39822"
               id="path833-1-2"
               style="opacity:1;fill:#8aacaf;fill-opacity:1;fill-rule:nonzero;stroke:none;stroke-width:0.13816722;stroke-linecap:square;stroke-linejoin:round;stroke-miterlimit:4;stroke-dasharray:none;stroke-opacity:1;paint-order:fill markers stroke" />
            <ellipse
               transform="matrix(0.77786358,0.62843317,-0.61724091,0.78677421,0,0)"
               ry="2.4837642"
               rx="0.55659592"
               cy="20.442591"
               cx="350.44202"
               id="path833-1-4"
               style="opacity:1;fill:#8aacaf;fill-opacity:1;fill-rule:nonzero;stroke:none;stroke-width:0.06882642;stroke-linecap:square;stroke-linejoin:round;stroke-miterlimit:4;stroke-dasharray:none;stroke-opacity:1;paint-order:fill markers stroke" />
            <ellipse
               transform="matrix(0.73965912,0.67298171,-0.57159302,0.82053728,0,0)"
               ry="1.8805803"
               rx="0.41041726"
               cy="-40.192188"
               cx="406.50229"
               id="path833-1-6"
               style="opacity:1;fill:#8aacaf;fill-opacity:1;fill-rule:nonzero;stroke:none;stroke-width:0.05142672;stroke-linecap:square;stroke-linejoin:round;stroke-miterlimit:4;stroke-dasharray:none;stroke-opacity:1;paint-order:fill markers stroke" />
            <ellipse
               transform="matrix(0.77934129,0.62659967,-0.61908178,0.78532652,0,0)"
               ry="1.2948879"
               rx="0.29048985"
               cy="-15.308592"
               cx="402.80026"
               id="path833-1-9"
               style="opacity:1;fill:#8aacaf;fill-opacity:1;fill-rule:nonzero;stroke:none;stroke-width:0.03590142;stroke-linecap:square;stroke-linejoin:round;stroke-miterlimit:4;stroke-dasharray:none;stroke-opacity:1;paint-order:fill markers stroke" />
            <ellipse
               transform="matrix(0.9264216,0.37648773,-0.84181899,0.53975993,0,0)"
               ry="3.0146344"
               rx="0.77361196"
               cy="130.27901"
               cx="422.51071"
               id="path833-1-66"
               style="opacity:1;fill:#8aacaf;fill-opacity:1;fill-rule:nonzero;stroke:none;stroke-width:0.08939411;stroke-linecap:square;stroke-linejoin:round;stroke-miterlimit:4;stroke-dasharray:none;stroke-opacity:1;paint-order:fill markers stroke" />
            <ellipse
               transform="matrix(0.9264216,0.37648774,-0.841819,0.53975992,0,0)"
               ry="3.0146344"
               rx="0.77361196"
               cy="131.64302"
               cx="422.87683"
               id="path833-1-66-2"
               style="opacity:1;fill:#8aacaf;fill-opacity:1;fill-rule:nonzero;stroke:none;stroke-width:0.08939411;stroke-linecap:square;stroke-linejoin:round;stroke-miterlimit:4;stroke-dasharray:none;stroke-opacity:1;paint-order:fill markers stroke" />
            <ellipse
               transform="matrix(0.56190551,0.82720143,-0.39544534,0.91848951,0,0)"
               ry="3.9377513"
               rx="0.78261828"
               cy="-192.41289"
               cx="494.31689"
               id="path833-1-66-7"
               style="opacity:1;fill:#8aacaf;fill-opacity:1;fill-rule:nonzero;stroke:none;stroke-width:0.10276119;stroke-linecap:square;stroke-linejoin:round;stroke-miterlimit:4;stroke-dasharray:none;stroke-opacity:1;paint-order:fill markers stroke" />
            <ellipse
               transform="matrix(0.9006042,0.43464017,-0.87683049,0.48079965,0,0)"
               ry="3.6451075"
               rx="1.0237349"
               cy="51.364887"
               cx="437.53091"
               id="path833-1-66-1"
               style="opacity:1;fill:#8aacaf;fill-opacity:1;fill-rule:nonzero;stroke:none;stroke-width:0.11307821;stroke-linecap:square;stroke-linejoin:round;stroke-miterlimit:4;stroke-dasharray:none;stroke-opacity:1;paint-order:fill markers stroke" />
            <ellipse
               transform="matrix(0.83886083,0.54434594,-0.69873487,0.71538072,0,0)"
               ry="2.2745633"
               rx="0.53505576"
               cy="-8.5432158"
               cx="407.57483"
               id="path833-1-66-26"
               style="opacity:1;fill:#8aacaf;fill-opacity:1;fill-rule:nonzero;stroke:none;stroke-width:0.0645771;stroke-linecap:square;stroke-linejoin:round;stroke-miterlimit:4;stroke-dasharray:none;stroke-opacity:1;paint-order:fill markers stroke" />
            <ellipse
               transform="matrix(0.9264216,0.37648774,-0.841819,0.53975992,0,0)"
               ry="3.0146344"
               rx="0.77361196"
               cy="84.169533"
               cx="452.03351"
               id="path833-1-66-15"
               style="opacity:1;fill:#8aacaf;fill-opacity:1;fill-rule:nonzero;stroke:none;stroke-width:0.08939411;stroke-linecap:square;stroke-linejoin:round;stroke-miterlimit:4;stroke-dasharray:none;stroke-opacity:1;paint-order:fill markers stroke" />
            <ellipse
               transform="matrix(0.95235415,0.30499438,-0.8925338,0.4509805,0,0)"
               ry="1.4204559"
               rx="0.37595204"
               cy="140.0006"
               cx="496.65378"
               id="path833-1-66-13"
               style="opacity:1;fill:#8aacaf;fill-opacity:1;fill-rule:nonzero;stroke:none;stroke-width:0.04277698;stroke-linecap:square;stroke-linejoin:round;stroke-miterlimit:4;stroke-dasharray:none;stroke-opacity:1;paint-order:fill markers stroke" />
            <ellipse
               transform="matrix(0.90393678,0.42766611,-0.80135961,0.59818289,0,0)"
               ry="1.1808596"
               rx="0.29564202"
               cy="47.236855"
               cx="432.55267"
               id="path833-1-66-3"
               style="opacity:1;fill:#8aacaf;fill-opacity:1;fill-rule:nonzero;stroke:none;stroke-width:0.03458695;stroke-linecap:square;stroke-linejoin:round;stroke-miterlimit:4;stroke-dasharray:none;stroke-opacity:1;paint-order:fill markers stroke" />
            <ellipse
               transform="matrix(0.9264216,0.37648774,-0.841819,0.53975992,0,0)"
               ry="3.0146344"
               rx="0.77361196"
               cy="88.523193"
               cx="484.65897"
               id="path833-1-66-25"
               style="opacity:1;fill:#8aacaf;fill-opacity:1;fill-rule:nonzero;stroke:none;stroke-width:0.08939411;stroke-linecap:square;stroke-linejoin:round;stroke-miterlimit:4;stroke-dasharray:none;stroke-opacity:1;paint-order:fill markers stroke" />
            <ellipse
               transform="matrix(0.9264216,0.37648774,-0.841819,0.53975992,0,0)"
               ry="3.0146344"
               rx="0.77361196"
               cy="87.192406"
               cx="484.17093"
               id="path833-1-66-39"
               style="opacity:1;fill:#8aacaf;fill-opacity:1;fill-rule:nonzero;stroke:none;stroke-width:0.08939411;stroke-linecap:square;stroke-linejoin:round;stroke-miterlimit:4;stroke-dasharray:none;stroke-opacity:1;paint-order:fill markers stroke" />
            <ellipse
               transform="matrix(0.82558939,0.56427136,-0.67996386,0.73324562,0,0)"
               ry="2.2191455"
               rx="0.51616198"
               cy="-35.24688"
               cx="455.15164"
               id="path833-1-66-30"
               style="opacity:1;fill:#8aacaf;fill-opacity:1;fill-rule:nonzero;stroke:none;stroke-width:0.06264926;stroke-linecap:square;stroke-linejoin:round;stroke-miterlimit:4;stroke-dasharray:none;stroke-opacity:1;paint-order:fill markers stroke" />
            <ellipse
               transform="matrix(0.86338417,0.5045471,-0.73519291,0.67785794,0,0)"
               ry="2.4004717"
               rx="0.57726109"
               cy="82.775681"
               cx="347.27475"
               id="path833-1-66-0"
               style="opacity:1;fill:#8aacaf;fill-opacity:1;fill-rule:nonzero;stroke:none;stroke-width:0.06890717;stroke-linecap:square;stroke-linejoin:round;stroke-miterlimit:4;stroke-dasharray:none;stroke-opacity:1;paint-order:fill markers stroke" />
            <ellipse
               transform="matrix(0.86338417,0.5045471,-0.73519291,0.67785794,0,0)"
               ry="2.4004717"
               rx="0.57726109"
               cy="85.174652"
               cx="348.03156"
               id="path833-1-66-0-6"
               style="opacity:1;fill:#8aacaf;fill-opacity:1;fill-rule:nonzero;stroke:none;stroke-width:0.06890717;stroke-linecap:square;stroke-linejoin:round;stroke-miterlimit:4;stroke-dasharray:none;stroke-opacity:1;paint-order:fill markers stroke" />
            <ellipse
               transform="matrix(0.86338417,0.5045471,-0.73519291,0.67785794,0,0)"
               ry="2.4004717"
               rx="0.57726109"
               cy="84.429474"
               cx="347.86215"
               id="path833-1-66-0-5"
               style="opacity:1;fill:#8aacaf;fill-opacity:1;fill-rule:nonzero;stroke:none;stroke-width:0.06890717;stroke-linecap:square;stroke-linejoin:round;stroke-miterlimit:4;stroke-dasharray:none;stroke-opacity:1;paint-order:fill markers stroke" />
          </g>
        </g>
      </g>
    </g>
  </g>
</svg>
