<?xml version="1.0" encoding="UTF-8" standalone="no"?>
<!-- Created with Inkscape (http://www.inkscape.org/) -->

<svg
   xmlns:dc="http://purl.org/dc/elements/1.1/"
   xmlns:cc="http://creativecommons.org/ns#"
   xmlns:rdf="http://www.w3.org/1999/02/22-rdf-syntax-ns#"
   xmlns:svg="http://www.w3.org/2000/svg"
   xmlns="http://www.w3.org/2000/svg"
   xmlns:sodipodi="http://sodipodi.sourceforge.net/DTD/sodipodi-0.dtd"
   xmlns:inkscape="http://www.inkscape.org/namespaces/inkscape"
   width="1600"
   height="800"
   viewBox="0 0 423.33332 211.66667"
   version="1.1"
   id="svg924"
   inkscape:version="0.92.4 (5da689c313, 2019-01-14)"
   sodipodi:docname="logo-nav.svg">
  <defs
     id="defs918" />
  <sodipodi:namedview
     id="base"
     pagecolor="#ffffff"
     bordercolor="#666666"
     borderopacity="1.0"
     inkscape:pageopacity="0.0"
     inkscape:pageshadow="2"
     inkscape:zoom="0.7"
     inkscape:cx="954.56177"
     inkscape:cy="352.0089"
     inkscape:document-units="mm"
     inkscape:current-layer="g1700"
     showgrid="false"
     units="px"
     inkscape:pagecheckerboard="true"
     inkscape:window-width="1920"
     inkscape:window-height="1027"
     inkscape:window-x="-8"
     inkscape:window-y="-8"
     inkscape:window-maximized="1" />
  <metadata
     id="metadata921">
    <rdf:RDF>
      <cc:Work
         rdf:about="">
        <dc:format>image/svg+xml</dc:format>
        <dc:type
           rdf:resource="http://purl.org/dc/dcmitype/StillImage" />
        <dc:title></dc:title>
      </cc:Work>
    </rdf:RDF>
  </metadata>
  <g
     inkscape:label="Layer 1"
     inkscape:groupmode="layer"
     id="layer1"
     transform="translate(0,-85.333324)">
    <g
       id="g1700">
      <g
         id="g1753"
         transform="translate(0,26.458336)">
        <g
           transform="matrix(0.78365826,0,0,0.78365826,569.28873,166.59243)"
           id="g1722">
          <text
             transform="scale(0.96188446,1.0396259)"
             id="text1083"
             y="50.584389"
             x="-698.22278"
             style="font-style:normal;font-weight:normal;font-size:212.32229614px;line-height:1.25;font-family:sans-serif;letter-spacing:0px;word-spacing:0px;fill:#8aacaf;fill-opacity:1;stroke:#0c295c;stroke-width:0.34395835;stroke-miterlimit:4;stroke-dasharray:none;stroke-opacity:1"
             xml:space="preserve"><tspan
               style="font-style:normal;font-variant:normal;font-weight:normal;font-stretch:normal;font-family:Milestone;-inkscape-font-specification:Milestone;fill:#8aacaf;fill-opacity:1;stroke:#0c295c;stroke-width:0.34395835;stroke-miterlimit:4;stroke-dasharray:none;stroke-opacity:1"
               y="50.584389"
               x="-698.22278"
               id="tspan1081"
               sodipodi:role="line">m</tspan></text>
          <path
             id="path1059"
             d="m -609.01575,-131.23487 c -4.69144,0.42937 -7.1885,0.7974 -7.15066,1.04275 0.0189,0.14312 -1.05936,0.36803 -2.79973,0.59293 -1.57012,0.18402 -3.59425,0.51115 -4.48335,0.71561 -4.61577,1.08364 -8.58836,2.14683 -11.3881,3.08735 -1.72145,0.57249 -3.97258,1.30855 -4.99411,1.65613 -8.79644,2.82155 -19.63594,8.48509 -28.24321,14.70068 -4.4266,3.21002 -11.0665,8.77134 -14.62291,12.267596 -4.06718,4.00742 -10.1774,10.59104 -12.46637,13.47392 -5.37245,6.74719 -10.06389,14.00552 -13.09062,20.34378 -1.45662,3.02601 -5.05086,11.51111 -6.12914,14.41444 -2.02413,5.54087 -4.38876,14.68024 -5.46704,21.05939 -0.94585,5.66355 -1.15394,7.99439 -1.15394,13.28991 0,5.0297096 0.13242,6.6244996 0.51076,6.5018296 0.35943,-0.14313 0.69993,-1.47212 1.47553,-5.6839996 0.39726,-2.18771 0.81344,-4.45722 0.90802,-5.00926 0.15134,-0.7974 0.17026,-0.51115 0.0757,1.32899 -0.0757,1.2881 -0.13242,4.47767 -0.13242,7.09476 0,5.2137296 0.11351,5.7657696 0.85127,4.4163396 0.32159,-0.55205 0.5486,-1.61524 0.87019,-3.84385 l 0.43509,-3.0668996 -0.1135,3.9051796 c -0.0568,2.63754 -0.0189,4.51857 0.13242,5.78622 0.24592,1.86059 0.24592,1.88104 0.49184,1.24721 0.18918,-0.47026 0.64319,-4.64124 0.64319,-5.84756 0,-0.0409 0.13241,-0.0818 0.28375,-0.0818 0.47293,0 1.2107,-3.1077896 2.38355,-10.0389896 0.60535,-3.65983 1.36204,-7.85127 1.68363,-9.30293 0.66209,-2.98512 1.49445,-6.09291 1.60795,-5.97024 0.0568,0.0409 -0.0378,0.7974 -0.18917,1.67657 -0.34051,1.88104 -0.32159,1.75836 -0.0946,1.75836 0.1135,0 0.18917,-0.16357 0.18917,-0.36803 0.0189,-0.24535 0.0946,-0.18401 0.30267,0.22491 0.15134,0.30669 0.35943,0.51115 0.47293,0.44981 0.0946,-0.0818 0.47293,-0.7565 0.83235,-1.49256 0.37834,-0.81784 0.64318,-1.20631 0.6621,-0.96096 0,0.24535 0.0757,0.51115 0.17025,0.61338 0.0946,0.12268 0.0946,1.20632 0,2.45352 -0.20809,3.12824 0.0757,5.62265 0.62427,5.62265 0.24592,0 0.79451,-1.45166 2.04304,-5.47953 1.26745,-3.98697 1.34312,-4.17098 1.51337,-3.61894 0.0946,0.28624 0.28376,0.0204 0.75668,-1.14498 1.41878,-3.37359 5.39137,-11.71556 6.90474,-14.45533 1.91063,-3.49626 2.93215,-5.09105 8.0776,-12.5334 5.52379,-7.97394 7.92626,-11.12263 12.71228,-16.54082 2.36464,-2.67843 2.7619,-2.96467 1.24853,-0.92007 -2.70514,3.70073 -4.04826,6.44049 -3.14024,6.44049 0.34051,0 2.34572,-1.67657 6.07239,-5.09106 11.21783,-10.30478 18.8225,-15.90699 28.50805,-20.95716 10.57466,-5.540856 21.33849,-8.750886 34.01294,-10.182106 3.17807,-0.34758 15.00125,-0.34758 18.16041,0 6.14805,0.69517 12.52311,1.98326 17.51722,3.51671 32.55631,9.977656 57.96196,36.291666 68.44203,70.886316 2.25114,7.4628 3.70775,15.25273 4.50227,24.0853996 0.30267,3.49627 0.30267,13.94418 0,17.58357 -1.19178,14.0259604 -4.63469,27.1318554 -10.53682,40.0741804 -7.81276,17.174648 -19.71161,31.854883 -34.61827,42.73216 -16.7038,12.165374 -35.39389,18.380964 -57.22421,19.035234 -17.34697,0.53159 -33.76701,-3.55761 -50.50863,-12.594744 -2.66731,-1.431221 -2.00522,-0.776949 0.94585,0.940516 12.31503,7.176548 25.55699,11.429318 40.48258,13.003658 3.40507,0.34759 15.49309,0.34759 18.91709,0 25.67049,-2.69887 47.50081,-13.637484 65.71797,-32.958964 1.94846,-2.085493 4.4266,-4.845704 5.46703,-6.133803 2.59165,-3.189577 2.7619,-3.353145 1.34312,-1.22676 -0.34051,0.51115 -0.60535,1.083638 -0.58643,1.267652 0.0567,0.470259 -4.25635,5.683991 -7.56684,9.180259 -7.35875,7.728591 -15.24717,14.046409 -23.89228,19.055676 -4.69144,2.71932 -13.33655,6.21559 -20.07103,8.09662 -8.17219,2.28996 -14.35808,3.21003 -24.95165,3.70073 -2.64839,0.12268 -5.52379,0.30669 -6.37506,0.42937 -3.84016,0.4907 -14.77424,-0.83829 -22.00057,-2.69887 -16.74163,-4.31411 -32.32931,-12.819652 -45.87395,-25.046367 -2.25113,-2.044601 -7.62358,-7.667253 -11.08541,-11.633779 -2.78081,-3.169132 -5.92105,-7.421902 -8.49378,-11.511104 -0.66209,-1.042746 -1.22961,-1.840141 -1.28636,-1.778803 -0.28375,0.306691 4.63469,7.524132 7.73709,11.367982 0.87019,1.083639 2.25114,2.801103 3.06457,3.823404 2.08088,2.596643 8.13435,8.955352 10.82058,11.408873 10.89624,9.814085 22.90859,16.990634 36.22623,21.631874 3.89692,1.36989 9.79905,2.96468 13.52572,3.70073 1.45661,0.2658 3.08348,0.59294 3.59424,0.69517 0.56752,0.10223 0.73777,0.18401 0.4351,0.20446 -1.00261,0.0409 -7.302,-1.22676 -11.08542,-2.24906 -7.28308,-1.94238 -14.54724,-4.78437 -21.13039,-8.28064 -16.09844,-8.54643 -29.17015,-20.221102 -39.59347,-35.412487 -1.09719,-1.594789 -2.02413,-2.862442 -2.08088,-2.801104 -0.1135,0.10223 1.28636,2.249062 3.34832,5.111503 9.38288,13.024108 21.03581,23.717371 34.16427,31.323288 16.68487,9.65052 35.7533,14.43488 55.33249,13.88284 2.55381,-0.0613 5.35354,-0.16357 6.24264,-0.22491 l 1.60795,-0.0818 -1.6647,0.28625 c -3.06457,0.51114 -7.75601,0.77694 -12.99604,0.77694 -11.7286,-0.0204 -20.56288,-1.513 -30.64569,-5.17284 -9.23154,-3.35314 -19.73053,-9.07803 -27.61895,-15.048262 -19.16301,-14.496221 -33.65351,-34.778662 -41.03117,-57.39195 -1.22961,-3.802957 -1.58904,-3.618943 -0.41618,0.204461 5.88322,19.301033 17.49831,37.886456 32.40498,51.891973 0.81343,0.756502 1.47553,1.43122 1.47553,1.472112 0,0.06134 -0.49184,-0.327136 -1.07827,-0.879178 -6.67773,-6.052019 -12.52312,-12.717418 -17.74423,-20.221104 -4.27526,-6.133803 -7.24525,-11.449765 -11.38809,-20.34378 -1.60795,-3.434929 -3.04565,-6.379155 -3.19699,-6.542723 -0.227,-0.245352 -0.26484,-0.245352 -0.26484,0.10223 0,0.490704 0.35943,1.778803 1.02152,3.659836 0.26484,0.756502 0.45401,1.472113 0.39726,1.574343 -0.32159,0.552042 5.67513,12.14493 9.38288,18.115165 6.67773,10.754601 15.73902,21.038944 25.61374,29.094672 2.7619,2.228615 7.92626,5.929345 10.97191,7.851265 3.10241,1.94237 3.48075,2.24906 1.3242,1.0223 -5.14545,-2.88288 -12.18261,-8.076171 -17.5929,-12.962767 -8.49377,-7.646808 -15.62551,-16.19324 -21.62223,-25.925541 -2.19438,-3.516714 -4.44552,-7.605916 -4.3131,-7.749038 0.15134,-0.163568 -1.02152,-2.576197 -1.49445,-3.026009 -0.20808,-0.224906 -0.68101,-1.144977 -1.02152,-2.044601 -0.34051,-0.899624 -1.07827,-2.555751 -1.62687,-3.680282 -2.02413,-4.089202 -4.99411,-13.003662 -6.62098,-19.812184 -2.08088,-8.750892 -3.12132,-16.152352 -3.49966,-25.1690424 -0.26484,-5.97023 -0.32159,-6.42004 -0.34051,-2.76021 -0.0946,8.8735704 1.51337,20.5278004 4.21851,30.6894644 3.12132,11.674672 7.94518,23.063099 14.01757,33.040752 0.98368,1.615235 1.74037,3.046455 1.68362,3.148686 -0.22701,0.368028 2.45922,4.334554 7.09391,10.488802 0.32159,0.429367 0.0757,0.286245 -0.75669,-0.470258 -1.39986,-1.247206 -1.64578,-1.104084 -0.7756,0.449812 l 0.58643,1.063193 -0.87019,-1.022301 c -1.43769,-1.656126 -5.14544,-6.726737 -7.11282,-9.711854 -6.11022,-9.282489 -11.38809,-20.13932 -14.84992,-30.566785 -0.52968,-1.574343 -1.05935,-3.148686 -1.17286,-3.475822 l -0.20808,-0.61338 0.0757,0.71561 c 0.0378,0.388474 0.60534,2.330845 1.24852,4.293662 5.80755,17.563123 15.07692,33.449673 27.24061,46.637349 3.85909,4.170986 5.92105,6.174695 10.21523,9.895869 4.65361,4.027865 6.92366,5.827115 10.78274,8.587325 16.32545,11.71556 34.61828,18.42185 54.32989,19.93486 4.08609,0.30669 12.40961,0.24535 16.62812,-0.12268 14.20673,-1.22676 28.24321,-5.35685 41.01225,-12.06314 10.91516,-5.72489 22.00058,-13.862398 30.04034,-22.040802 1.07827,-1.083639 1.98629,-1.962817 2.02413,-1.962817 0.32159,0 -0.69993,1.431221 -1.92955,2.678427 -7.54791,7.78993 -18.65225,16.029672 -28.65939,21.243402 -15.96602,8.34197 -32.48064,12.49251 -50.64105,12.77876 -18.44416,0.2658 -35.94247,-3.90519 -52.66518,-12.5743 -17.0443,-8.83267 -31.79963,-21.91812 -43.30122,-38.438496 -12.75012,-18.299179 -20.46829,-38.786081 -23.0221,-61.133568 -0.54859,-4.8661504 -0.96477,-7.7694904 -1.13502,-7.8717204 -0.56751,-0.36802 -0.30267,6.3996104 0.47293,12.0222604 2.93215,21.570539 10.89624,41.934765 23.05993,59.027629 12.03127,16.90885 28.12971,30.546335 46.2712,39.215445 20.96014,10.01855 43.13097,13.22857 66.39899,9.63007 13.63922,-2.10594 28.39455,-7.52413 40.55824,-14.90514 15.15259,-9.15981 27.39195,-20.834483 38.09902,-36.291666 8.15327,-11.756456 14.77425,-26.477583 18.67117,-41.5054 2.93215,-11.327088 4.21851,-21.529648 4.52118,-35.8827484 0.0189,-1.513 0.0378,0.51115 0,4.49812 -0.0189,4.84571 -0.15133,8.32153 -0.34051,10.4274704 -2.04304,21.325186 -7.85059,39.747041 -18.10365,57.43284 -1.13503,1.962817 -2.04305,3.598497 -1.9863,3.639389 0.13242,0.163569 1.38095,-1.656126 2.91324,-4.232324 9.28829,-15.722981 15.20934,-33.592794 17.51722,-52.750705 0.90802,-7.5650204 1.22961,-19.0147904 0.69993,-25.8642 -1.13502,-15.06871 -4.105,-28.39951 -9.09912,-40.89202 -0.52967,-1.34944 -1.22961,-3.27136 -1.5512,-4.27322 -2.91323,-9.36427 -10.15847,-22.40882 -18.12257,-32.63183 -2.78081,-3.5576 -8.68294,-9.9572 -11.82318,-12.758306 -5.42921,-4.86615 -11.9556,-9.81408 -15.79577,-11.96091 -7.86951,-4.37545 -11.02866,-5.97024 -16.07953,-8.09662 -1.39986,-0.59294 -3.91584,-1.67658 -5.58054,-2.39219 -9.06129,-3.98697 -19.29543,-6.58361 -30.92944,-7.85126 -4.35093,-0.47026 -16.34437,-0.57249 -20.71421,-0.18402 z m -33.8616,10.2639 c -12.9582,5.56131 -25.65157,13.80106 -35.65871,23.144876 -2.68623,2.51486 -7.58576,7.66726 -10.21523,10.7546 -1.72146,2.02416 -1.68362,1.86059 0.17025,-0.61338 4.93736,-6.58361 14.52833,-15.314056 23.75987,-21.611426 6.39397,-4.37545 15.13367,-9.22115 20.43045,-11.32709 1.70254,-0.67472 2.95107,-0.96096 1.51337,-0.34758 z m -15.39851,11.79735 c -0.13242,0.16356 -1.00261,0.79739 -1.96738,1.41077 -7.35874,4.74348 -16.23086,12.410726 -21.79248,18.789876 -2.02413,2.33085 -7.79385,8.34198 -7.01825,7.31968 0.28376,-0.38848 1.66471,-2.04461 3.04566,-3.68029 7.39658,-8.71 15.96602,-16.315906 25.51915,-22.633726 1.24853,-0.81784 2.30789,-1.49256 2.34572,-1.49256 0.0568,0 -0.0189,0.12268 -0.13242,0.28625 z m -41.069,41.934756 c 0,0.0409 -0.34051,0.69517 -0.75669,1.43122 -0.96477,1.69702 -2.59164,5.19329 -3.95367,8.50554 -0.58643,1.41078 -1.24853,2.76022 -1.45661,3.00557 -0.73777,0.85873 -4.93736,11.30664 -6.12914,15.27317 -0.39726,1.36988 -0.75668,2.10594 -0.75668,1.59479 0,-0.77695 2.64839,-8.62822 4.25634,-12.65608 1.91063,-4.78437 4.99411,-11.0613 7.9641,-16.29547 0.47292,-0.81784 0.83235,-1.20632 0.83235,-0.85874 z m -8.24785,19.4646 c -1.5512,4.00742 -4.12393,12.36984 -5.05087,16.41815 -0.69993,3.0669 -1.5512,8.09662 -2.19438,12.84009 -0.20809,1.49256 -0.45401,2.842 -0.54859,2.96468 -0.0946,0.14312 -0.22701,0.42936 -0.28376,0.65427 -0.22701,0.83829 0.0946,-1.96282 0.73777,-6.46094 0.69993,-5.00927 1.58903,-9.18026 3.08348,-14.51667 1.39987,-5.07061 4.71036,-14.49622 4.88061,-13.94418 0.0378,0.12268 -0.24592,1.04275 -0.62426,2.0446 z m -10.15848,27.70435 c -0.0568,0.16357 -0.1135,0.10223 -0.1135,-0.12268 -0.0189,-0.2249 0.0378,-0.34758 0.0946,-0.2658 0.0567,0.0613 0.0757,0.24536 0.0189,0.38848 z m 2.42139,7.29922 c -0.0757,0.51115 -0.18917,0.81784 -0.22701,0.67472 -0.0567,-0.14312 -0.0378,-0.7974 0.0567,-1.43122 0.0946,-0.73606 0.17025,-0.98141 0.22701,-0.67472 0.0378,0.2658 0.0189,0.92007 -0.0567,1.43122 z m 41.25817,102.884322 c 11.27459,10.693262 24.42196,18.810332 38.66653,23.901382 6.69665,2.39219 14.32024,4.21188 22.18975,5.31597 2.64839,0.36802 3.72667,0.59293 5.90213,1.20631 1.07828,0.30669 -1.57012,0.12268 -5.50487,-0.38847 -25.48132,-3.3327 -48.9196,-15.68209 -66.38007,-34.983127 l -2.27005,-2.514859 2.57272,2.657981 c 1.39987,1.472113 3.57533,3.618944 4.82386,4.804813 z m 60.0996,23.226662 c -0.13242,0.0409 -0.39726,0.0409 -0.56752,0 -0.18917,-0.0613 -0.0757,-0.10223 0.22701,-0.10223 0.32159,0 0.45401,0.0409 0.34051,0.10223 z"
             inkscape:connector-curvature="0"
             style="fill:#474d5d;fill-opacity:1;stroke:#b4cacc;stroke-width:0.1984375;stroke-miterlimit:4;stroke-dasharray:none;stroke-opacity:1" />
        </g>
        <g
           transform="matrix(1.4698018,0,0,1.4698018,-370.8644,338.13958)"
           id="g1717">
          <text
             transform="scale(0.96188446,1.0396259)"
             id="text1079"
             y="-127.94077"
             x="418.59467"
             style="font-style:normal;font-weight:normal;font-size:34.63993073px;line-height:1.25;font-family:sans-serif;letter-spacing:0px;word-spacing:0px;fill:#474d5d;fill-opacity:1;stroke:#b4cacc;stroke-width:0.26458332;stroke-miterlimit:4;stroke-dasharray:none;stroke-opacity:1"
             xml:space="preserve"><tspan
               id="tspan1641"
               style="font-style:normal;font-variant:normal;font-weight:normal;font-stretch:normal;font-family:Milestone;-inkscape-font-specification:Milestone;fill:#474d5d;fill-opacity:1;stroke:#b4cacc;stroke-width:0.26458332;stroke-miterlimit:4;stroke-dasharray:none;stroke-opacity:1"
               y="-127.94077"
               x="418.59467"
               sodipodi:role="line">mojopixie</tspan></text>
          <text
             transform="scale(0.96188446,1.0396259)"
             id="text1079-0"
             y="-78.44619"
             x="403.52081"
             style="font-style:normal;font-weight:normal;font-size:34.63993073px;line-height:1.25;font-family:sans-serif;letter-spacing:0px;word-spacing:0px;fill:#474d5d;fill-opacity:1;stroke:#b4cacc;stroke-width:0.26458332;stroke-miterlimit:4;stroke-dasharray:none;stroke-opacity:1"
             xml:space="preserve"><tspan
               id="tspan1641-2"
               style="font-style:normal;font-variant:normal;font-weight:normal;font-stretch:normal;font-family:Milestone;-inkscape-font-specification:Milestone;fill:#474d5d;fill-opacity:1;stroke:#b4cacc;stroke-width:0.26458332;stroke-miterlimit:4;stroke-dasharray:none;stroke-opacity:1"
               y="-78.44619"
               x="403.52081"
               sodipodi:role="line">Innovations</tspan></text>
        </g>
      </g>
      <g
         id="g869">
        <g
           id="g852">
          <text
             xml:space="preserve"
             style="font-style:normal;font-weight:normal;font-size:166.38812256px;line-height:1.25;font-family:sans-serif;letter-spacing:0px;word-spacing:0px;fill:#8aacaf;fill-opacity:1;stroke:#0c295c;stroke-width:0.26458333;stroke-miterlimit:4;stroke-dasharray:none;stroke-opacity:1"
             x="44.679264"
             y="225.3334"
             id="text1757"
             transform="scale(0.96188446,1.0396259)"><tspan
               sodipodi:role="line"
               id="tspan1755"
               x="44.679264"
               y="225.3334"
               style="font-style:normal;font-variant:normal;font-weight:normal;font-stretch:normal;font-family:Milestone;-inkscape-font-specification:Milestone;fill:#8aacaf;fill-opacity:1;stroke:#0c295c;stroke-width:0.26458333;stroke-miterlimit:4;stroke-dasharray:none;stroke-opacity:1">m</tspan></text>
          <path
             style="fill:#474d5d;fill-opacity:1;stroke:#ffffff;stroke-width:0.1984375;stroke-miterlimit:4;stroke-dasharray:none;stroke-opacity:1"
             inkscape:connector-curvature="0"
             d="m 92.028507,90.20748 c -3.676486,0.336479 -5.633327,0.624889 -5.603674,0.81716 0.01481,0.112157 -0.830176,0.28841 -2.194031,0.464654 -1.230438,0.144209 -2.816664,0.400567 -3.513415,0.560794 -3.617186,0.849203 -6.730339,1.682381 -8.924378,2.419427 -1.349029,0.448637 -3.113145,1.025456 -3.913676,1.29784 -6.893403,2.211131 -15.387866,6.649415 -22.133025,11.520305 -3.468941,2.51556 -8.672354,6.87374 -11.459364,9.61361 -3.187279,3.14045 -7.975603,8.29975 -9.769374,10.55895 -4.210164,5.28749 -7.88665,10.97554 -10.258572,15.94257 -1.141492,2.37136 -3.958148,9.02077 -4.8031512,11.29599 -1.5862262,4.34215 -3.4392881,11.50429 -4.2842911,16.50337 -0.7412231,4.43829 -0.9042946,6.26487 -0.9042946,10.41475 0,3.94157 0.103772,5.19134 0.4002613,5.09521 0.2816703,-0.11217 0.5485059,-1.15364 1.1563113,-4.45432 0.3113161,-1.71441 0.6374589,-3.49293 0.7115773,-3.92554 0.1185989,-0.62489 0.1334257,-0.40057 0.059323,1.04147 -0.059323,1.00943 -0.1037721,3.50896 -0.1037721,5.55987 0,4.08578 0.088953,4.51839 0.6671048,3.4609 0.2520167,-0.43262 0.4299149,-1.2658 0.6819316,-3.01227 l 0.3409619,-2.4034 -0.088945,3.06033 c -0.044512,2.06693 -0.014811,3.54101 0.103772,4.53442 0.1927172,1.45806 0.1927172,1.47409 0.3854345,0.97738 0.1482524,-0.36852 0.5040411,-3.63714 0.5040411,-4.58248 0,-0.0321 0.1037642,-0.0641 0.222363,-0.0641 0.3706155,0 0.9487752,-2.43544 1.8678882,-7.86713 0.474388,-2.86806 1.067374,-6.15272 1.319391,-7.29032 0.518852,-2.33932 1.171138,-4.77476 1.260083,-4.67863 0.04451,0.0321 -0.02962,0.62489 -0.148244,1.31386 -0.266844,1.47409 -0.252017,1.37795 -0.07414,1.37795 0.08895,0 0.148245,-0.12818 0.148245,-0.28841 0.01481,-0.19227 0.07413,-0.1442 0.23719,0.17625 0.118599,0.24034 0.28167,0.40057 0.370615,0.3525 0.07413,-0.0641 0.370616,-0.59284 0.652278,-1.16966 0.29649,-0.6409 0.504034,-0.94533 0.518861,-0.75306 0,0.19227 0.05932,0.40057 0.133417,0.48068 0.07413,0.0961 0.07413,0.94534 0,1.92272 -0.163071,2.45147 0.05932,4.40624 0.489215,4.40624 0.192717,0 0.622624,-1.13761 1.601045,-4.29408 0.993248,-3.12442 1.052547,-3.26862 1.185965,-2.83601 0.07413,0.22431 0.222371,0.016 0.592978,-0.89728 1.111839,-2.64374 4.224992,-9.18099 5.410957,-11.32804 1.497281,-2.73987 2.297803,-3.98964 6.330078,-9.8219 4.328763,-6.24884 6.211479,-8.71634 9.962083,-12.96235 1.85307,-2.09897 2.164386,-2.32329 0.978421,-0.72102 -2.119905,2.90011 -3.172453,5.04714 -2.460875,5.04714 0.266843,0 1.838243,-1.31385 4.758678,-3.98965 8.790946,-8.07542 14.750408,-12.46564 22.340569,-16.42325 8.28692,-4.34214 16.722084,-6.8577 26.654522,-7.97929 2.49052,-0.27238 11.755854,-0.27238 14.231564,0 4.81797,0.54478 9.81383,1.5542 13.72751,2.7559 25.51302,7.81907 45.42237,28.44026 53.63516,55.55065 1.76413,5.84828 2.90561,11.95292 3.52824,18.87472 0.23719,2.73988 0.23719,10.92747 0,13.77951 -0.93394,10.99156 -3.63201,21.2621 -8.25726,31.40446 -6.12254,13.45906 -15.44717,24.96334 -27.1289,33.48741 -13.09007,9.5335 -27.73671,14.4044 -44.844226,14.91712 -13.594096,0.41658 -26.461796,-2.78795 -39.581505,-9.86998 -2.090259,-1.12158 -1.571407,-0.60886 0.741223,0.73705 9.650775,5.62396 20.027947,8.95668 31.724508,10.19042 2.668412,0.27239 12.14129,0.27239 14.82454,0 20.11689,-2.11499 37.2244,-10.68713 51.50043,-25.82856 1.52693,-1.63432 3.46894,-3.79738 4.28428,-4.80681 2.03097,-2.49954 2.16439,-2.62772 1.05255,-0.96136 -0.26684,0.40057 -0.47439,0.8492 -0.45956,0.99341 0.0444,0.36852 -3.33552,4.4543 -5.92982,7.19418 -5.76674,6.05658 -11.94857,11.00759 -18.72338,14.93314 -3.67649,2.13102 -10.4513,4.8709 -15.72883,6.34498 -6.4042,1.79455 -11.25183,2.51557 -19.55357,2.90011 -2.07543,0.0961 -4.328764,0.24034 -4.995869,0.33648 -3.009373,0.38454 -11.577955,-0.65693 -17.240928,-2.11499 -13.119717,-3.38079 -25.335131,-10.04623 -35.9495,-19.62779 -1.764117,-1.60227 -5.974281,-6.00851 -8.687173,-9.11691 -2.179205,-2.48352 -4.64008,-5.81624 -6.656221,-9.02077 -0.518852,-0.81716 -0.963594,-1.44204 -1.008067,-1.39398 -0.222363,0.24035 3.632013,5.89635 6.063235,8.90862 0.681931,0.8492 1.764124,2.1951 2.401575,2.99624 1.630699,2.03488 6.374551,7.01793 8.479637,8.94066 8.538929,7.69089 17.952506,13.31485 28.388985,16.95199 3.053853,1.07353 7.679106,2.3233 10.599542,2.90011 1.141484,0.2083 2.416394,0.46466 2.816656,0.54478 0.444741,0.0801 0.578159,0.1442 0.340969,0.16022 -0.785703,0.0321 -5.722272,-0.96136 -8.68718,-1.76249 -5.707446,-1.52216 -11.400065,-3.74931 -16.559005,-6.48919 -12.615676,-6.69748 -22.859429,-15.84644 -31.02775,-27.75129 -0.859822,-1.24977 -1.586226,-2.24318 -1.630699,-2.19511 -0.08894,0.0801 1.008067,1.7625 2.623939,4.00567 7.352971,10.20645 16.484886,18.58632 26.773112,24.54676 13.075236,7.56271 28.018369,11.31201 43.361772,10.8794 2.00131,-0.048 4.19534,-0.12818 4.89209,-0.17625 l 1.26009,-0.0641 -1.30456,0.22432 c -2.40158,0.40056 -6.07806,0.60886 -10.184459,0.60886 -9.191214,-0.016 -16.114271,-1.18567 -24.015748,-4.05374 C 65.29987,276.88777 57.07225,272.40141 50.890424,267.72279 35.873173,256.3627 24.517573,240.4682 18.736009,222.74711 c -0.963594,-2.98022 -1.245264,-2.83601 -0.326143,0.16023 4.610434,15.12541 13.712695,29.69003 25.39443,40.66557 0.637452,0.59284 1.156312,1.12159 1.156312,1.15363 0,0.0481 -0.385435,-0.25636 -0.844995,-0.68897 -5.233059,-4.74272 -9.813847,-9.96611 -13.905413,-15.84644 -3.350343,-4.8068 -5.6778,-8.9727 -8.924371,-15.94257 -1.260083,-2.69181 -2.386748,-4.99907 -2.505347,-5.12726 -0.177891,-0.19227 -0.207544,-0.19227 -0.207544,0.0801 0,0.38454 0.28167,1.39397 0.800522,2.86806 0.207544,0.59284 0.355789,1.15363 0.311316,1.23374 -0.252016,0.43262 4.447363,9.51748 7.352972,14.1961 5.233058,8.42794 12.334013,16.48735 20.072419,22.80028 2.164385,1.74648 6.211479,4.64658 8.598228,6.15271 2.431229,1.52216 2.727718,1.7625 1.03772,0.80114 -4.032275,-2.2592 -9.547003,-6.32896 -13.786822,-10.15838 -6.656213,-5.99249 -12.24506,-12.68997 -16.944439,-20.31677 -1.719644,-2.7559 -3.483768,-5.96044 -3.379996,-6.0726 0.118599,-0.12818 -0.800523,-2.01885 -1.171138,-2.37135 -0.163064,-0.17625 -0.533679,-0.89727 -0.800523,-1.60227 -0.266843,-0.705 -0.844995,-2.00284 -1.27491,-2.88408 -1.586226,-3.20454 -3.913676,-10.19043 -5.188586,-15.52599 -1.630698,-6.8577 -2.446048,-12.65792 -2.742537,-19.72392 -0.207544,-4.67862 -0.252017,-5.03112 -0.266844,-2.16307 -0.07413,6.95385 1.185965,16.08679 3.305871,24.05006 2.446048,9.14895 6.226306,18.07359 10.984984,25.89266 0.770869,1.26579 1.363855,2.38737 1.319383,2.46749 -0.177898,0.28841 1.927188,3.39681 5.559201,8.21964 0.252017,0.33647 0.05932,0.22431 -0.592986,-0.36853 -1.097012,-0.97738 -1.289729,-0.86522 -0.607806,0.3525 l 0.459561,0.83318 -0.681932,-0.80113 c -1.126657,-1.29784 -4.032266,-5.27146 -5.57402,-7.61078 -4.788324,-7.2743 -8.92437,-15.78234 -11.637262,-23.95391 -0.415088,-1.23375 -0.830169,-2.46749 -0.919122,-2.72386 l -0.163063,-0.48068 0.05932,0.5608 c 0.02962,0.30443 0.474379,1.82658 0.978413,3.36476 4.551134,13.76349 11.815153,26.21311 21.347329,36.54774 3.024208,3.26863 4.64008,4.83885 8.005249,7.75498 3.64684,3.15647 5.425784,4.56647 8.449983,6.72953 12.793574,9.181 27.128901,14.43644 42.576067,15.62212 3.202099,0.24034 9.72489,0.19227 13.03076,-0.0961 11.13322,-0.96136 22.13303,-4.19794 32.13959,-9.45338 8.55376,-4.48636 17.24094,-10.86338 23.54136,-17.27246 0.845,-0.8492 1.55657,-1.53817 1.58623,-1.53817 0.25201,0 -0.54851,1.12158 -1.51211,2.09897 -5.91498,6.10464 -14.61699,12.56178 -22.45917,16.64757 -12.5119,6.53725 -25.45372,9.78985 -39.68528,10.01418 -14.453904,0.20825 -28.166599,-3.06038 -41.271489,-9.854 C 46.072475,274.51639 34.509339,264.26187 25.496023,251.31554 15.504286,236.97523 9.4558781,220.9205 7.4545638,203.40771 c -0.4299071,-3.8134 -0.75605,-6.08862 -0.8894678,-6.16874 -0.4447339,-0.2884 -0.2371898,5.01511 0.3706155,9.42135 2.2978036,16.90393 8.5389285,32.86252 18.0711045,46.25749 9.428404,13.25076 22.04408,23.93788 36.260808,30.7315 16.425587,7.85112 33.799941,10.36668 52.034116,7.54669 10.68849,-1.65034 22.25162,-5.89635 31.7838,-11.68054 11.87445,-7.17816 21.46593,-16.32711 29.85661,-28.44026 6.38938,-9.21305 11.57797,-20.74938 14.63182,-32.52605 2.2978,-8.87657 3.30587,-16.87189 3.54306,-28.11981 0.0148,-1.18568 0.0296,0.40056 0,3.52498 -0.0148,3.79739 -0.11859,6.52124 -0.26684,8.17158 -1.60105,16.71166 -6.15218,31.14809 -14.18708,45.00772 -0.88947,1.53818 -1.60105,2.81999 -1.55658,2.85203 0.10377,0.12819 1.08219,-1.29783 2.28299,-3.31669 7.27884,-12.32145 11.91892,-26.32527 13.72751,-41.33853 0.71158,-5.92839 0.96359,-14.90109 0.54851,-20.26869 -0.88947,-11.80872 -3.21692,-22.25551 -7.13061,-32.04537 -0.41508,-1.0575 -0.96359,-2.56363 -1.21561,-3.34874 -2.28297,-7.33839 -7.96076,-17.56086 -14.2019,-25.57221 -2.1792,-2.78794 -6.80446,-7.80304 -9.26533,-9.99815 -4.25465,-3.8134 -9.36911,-7.69088 -12.37849,-9.37327 -6.167,-3.42885 -8.6427,-4.67862 -12.60085,-6.344978 -1.09701,-0.464663 -3.06868,-1.313866 -4.37324,-1.87466 -7.10095,-3.124422 -15.12102,-5.1593 -24.23811,-6.152704 -3.40964,-0.368524 -12.8084,-0.448637 -16.232862,-0.144209 z m -26.535922,8.04339 c -10.154801,4.35817 -20.102065,10.81531 -27.944243,18.13767 -2.105086,1.97079 -5.944644,6.00852 -8.005249,8.42793 -1.349037,1.58625 -1.319383,1.45807 0.133417,-0.48068 3.869203,-5.1593 11.385246,-12.00098 18.619619,-16.93597 5.010687,-3.42886 11.859625,-7.22623 16.010491,-8.876566 1.334209,-0.52875 2.31263,-0.753064 1.185965,-0.272384 z m -12.06717,9.24509 c -0.103772,0.12818 -0.785704,0.62488 -1.541754,1.10556 -5.766737,3.71727 -12.719447,9.72577 -17.077857,14.72484 -1.586226,1.82659 -6.107715,6.53727 -5.499909,5.73613 0.222371,-0.30443 1.304564,-1.60227 2.386756,-2.88409 5.796391,-6.82566 12.511904,-12.78609 19.998293,-17.7371 0.978421,-0.64091 1.808597,-1.16966 1.838243,-1.16966 0.04451,0 -0.01481,0.0961 -0.103772,0.22432 z m -32.184061,32.86252 c 0,0.0321 -0.266844,0.54477 -0.592986,1.12159 -0.75605,1.32988 -2.030961,4.06976 -3.098327,6.66543 -0.45956,1.10557 -0.97842,2.16307 -1.141484,2.35534 -0.57816,0.67295 -3.869203,8.86054 -4.803151,11.96895 -0.311316,1.07352 -0.592979,1.65034 -0.592979,1.24977 0,-0.60886 2.075433,-6.76158 3.335516,-9.91804 1.497281,-3.74931 3.913676,-8.66828 6.241133,-12.77008 0.370608,-0.64091 0.652278,-0.94535 0.652278,-0.67296 z m -6.463496,15.25359 c -1.215611,3.14045 -3.231752,9.69373 -3.958156,12.86622 -0.548506,2.4034 -1.2156106,6.34499 -1.7196439,10.06224 -0.1630715,1.16966 -0.3557887,2.22716 -0.4299071,2.3233 -0.074134,0.11216 -0.1778983,0.33647 -0.2223709,0.51272 -0.1778982,0.65694 0.074134,-1.53818 0.5781596,-5.06316 0.5485059,-3.92556 1.2452563,-7.19419 2.4163943,-11.37611 1.09702,-3.97363 3.691313,-11.36008 3.824731,-10.92747 0.02962,0.0961 -0.192718,0.81716 -0.489207,1.60226 z m -7.9607767,21.71075 c -0.044512,0.12818 -0.088945,0.0801 -0.088945,-0.0961 -0.014811,-0.17625 0.029622,-0.27239 0.074134,-0.2083 0.044433,0.048 0.059323,0.19228 0.014811,0.30444 z m 1.8975423,5.72009 c -0.059323,0.40057 -0.1482446,0.64091 -0.1778983,0.52875 -0.044433,-0.11216 -0.029622,-0.62489 0.044434,-1.12159 0.074134,-0.57682 0.1334178,-0.76909 0.1778982,-0.52875 0.029622,0.2083 0.014811,0.72102 -0.044434,1.12159 z m 32.3323054,80.62615 c 8.835426,8.37986 19.138471,14.74087 30.301346,18.73051 5.247885,1.87466 11.222174,3.30068 17.389181,4.16591 2.075433,0.2884 2.920436,0.46465 4.625253,0.94533 0.845003,0.24034 -1.230438,0.0961 -4.313937,-0.30442 -19.968647,-2.6117 -38.336249,-12.2894 -52.01929,-27.41482 l -1.778944,-1.97079 2.016134,2.08295 c 1.097019,1.15363 2.801836,2.83601 3.780257,3.76533 z m 47.097548,18.20176 c -0.103772,0.0321 -0.311316,0.0321 -0.444741,0 -0.148245,-0.048 -0.05932,-0.0801 0.177898,-0.0801 0.252016,0 0.355788,0.0321 0.266843,0.0801 z"
             id="path1759" />
        </g>
        <g
           id="g858">
          <text
             xml:space="preserve"
             style="font-style:normal;font-weight:normal;font-size:50.91383362px;line-height:1.25;font-family:sans-serif;letter-spacing:0px;word-spacing:0px;fill:#474d5d;fill-opacity:1;stroke:#0c295c;stroke-width:0.33072917;stroke-miterlimit:4;stroke-dasharray:none;stroke-opacity:1"
             x="229.69095"
             y="162.6535"
             id="text1765"
             transform="scale(0.96188446,1.0396259)"><tspan
               sodipodi:role="line"
               x="229.69095"
               y="162.6535"
               style="font-style:normal;font-variant:normal;font-weight:normal;font-stretch:normal;font-family:Milestone;-inkscape-font-specification:Milestone;fill:#8aacaf;fill-opacity:1;stroke:#0c295c;stroke-width:0.33072917;stroke-miterlimit:4;stroke-dasharray:none;stroke-opacity:1"
               id="tspan1763">mojopixie</tspan></text>
          <text
             xml:space="preserve"
             style="font-style:normal;font-weight:normal;font-size:50.91383362px;line-height:1.25;font-family:sans-serif;letter-spacing:0px;word-spacing:0px;fill:#474d5d;fill-opacity:1;stroke:#0c295c;stroke-width:0.33072917;stroke-miterlimit:4;stroke-dasharray:none;stroke-opacity:1"
             x="207.53537"
             y="235.40073"
             id="text1769"
             transform="scale(0.96188446,1.0396259)"><tspan
               sodipodi:role="line"
               x="207.53537"
               y="235.40073"
               style="font-style:normal;font-variant:normal;font-weight:normal;font-stretch:normal;font-family:Milestone;-inkscape-font-specification:Milestone;fill:#8aacaf;fill-opacity:1;stroke:#0c295c;stroke-width:0.33072917;stroke-miterlimit:4;stroke-dasharray:none;stroke-opacity:1"
               id="tspan1767">Innovations</tspan></text>
        </g>
      </g>
    </g>
  </g>
</svg>
