<?xml version="1.0" encoding="UTF-8" standalone="no"?>
<!-- Created with Inkscape (http://www.inkscape.org/) -->

<svg
   xmlns:dc="http://purl.org/dc/elements/1.1/"
   xmlns:cc="http://creativecommons.org/ns#"
   xmlns:rdf="http://www.w3.org/1999/02/22-rdf-syntax-ns#"
   xmlns:svg="http://www.w3.org/2000/svg"
   xmlns="http://www.w3.org/2000/svg"
   xmlns:sodipodi="http://sodipodi.sourceforge.net/DTD/sodipodi-0.dtd"
   xmlns:inkscape="http://www.inkscape.org/namespaces/inkscape"
   width="1600"
   height="800"
   viewBox="0 0 423.33332 211.66667"
   version="1.1"
   id="svg1799"
   inkscape:version="0.92.4 (5da689c313, 2019-01-14)"
   sodipodi:docname="navLogoSmWhite.svg">
  <defs
     id="defs1793" />
  <sodipodi:namedview
     id="base"
     pagecolor="#ffffff"
     bordercolor="#666666"
     borderopacity="1.0"
     inkscape:pageopacity="0.0"
     inkscape:pageshadow="2"
     inkscape:zoom="0.24748738"
     inkscape:cx="272.20186"
     inkscape:cy="14.348772"
     inkscape:document-units="mm"
     inkscape:current-layer="layer1"
     showgrid="false"
     units="px"
     inkscape:window-width="1920"
     inkscape:window-height="1027"
     inkscape:window-x="-8"
     inkscape:window-y="-8"
     inkscape:window-maximized="1" />
  <metadata
     id="metadata1796">
    <rdf:RDF>
      <cc:Work
         rdf:about="">
        <dc:format>image/svg+xml</dc:format>
        <dc:type
           rdf:resource="http://purl.org/dc/dcmitype/StillImage" />
        <dc:title></dc:title>
      </cc:Work>
    </rdf:RDF>
  </metadata>
  <g
     inkscape:label="Layer 1"
     inkscape:groupmode="layer"
     id="layer1"
     transform="translate(0,-85.333317)">
    <g
       id="g1030">
      <ellipse
         transform="matrix(0.2325925,0.97257428,-0.72324368,0.69059291,0,0)"
         ry="4.1993856"
         rx="1.564029"
         cy="-244.26819"
         cx="341.42737"
         id="path942"
         style="opacity:1;fill:#eef3f3;fill-opacity:1;fill-rule:nonzero;stroke:none;stroke-width:0.2874943;stroke-linecap:square;stroke-linejoin:round;stroke-miterlimit:4;stroke-dasharray:none;stroke-opacity:1;paint-order:fill markers stroke" />
      <ellipse
         transform="matrix(0.2325925,0.97257428,-0.72324367,0.69059293,0,0)"
         ry="4.1993856"
         rx="1.564029"
         cy="-242.44695"
         cx="342.11377"
         id="path942-9"
         style="opacity:1;fill:#eef3f3;fill-opacity:1;fill-rule:nonzero;stroke:none;stroke-width:0.2874943;stroke-linecap:square;stroke-linejoin:round;stroke-miterlimit:4;stroke-dasharray:none;stroke-opacity:1;paint-order:fill markers stroke" />
      <ellipse
         transform="matrix(-0.24721818,0.96895984,-0.96167265,0.27420012,0,0)"
         ry="4.1993856"
         rx="1.564029"
         cy="-330.29199"
         cx="266.37766"
         id="path942-1"
         style="opacity:1;fill:#eef3f3;fill-opacity:1;fill-rule:nonzero;stroke:none;stroke-width:0.2874943;stroke-linecap:square;stroke-linejoin:round;stroke-miterlimit:4;stroke-dasharray:none;stroke-opacity:1;paint-order:fill markers stroke" />
      <ellipse
         transform="matrix(0.29891353,0.9542802,-0.8080631,0.58909594,0,0)"
         ry="1.9472274"
         rx="0.63050193"
         cy="-264.26495"
         cx="328.37646"
         id="path942-8"
         style="opacity:1;fill:#eef3f3;fill-opacity:1;fill-rule:nonzero;stroke:none;stroke-width:0.12429839;stroke-linecap:square;stroke-linejoin:round;stroke-miterlimit:4;stroke-dasharray:none;stroke-opacity:1;paint-order:fill markers stroke" />
      <ellipse
         transform="matrix(0.24377866,0.96983089,-0.4060065,0.91387019,0,0)"
         ry="4.433517"
         rx="2.0231669"
         cy="-539.12805"
         cx="672.85754"
         id="path942-8-2"
         style="opacity:1;fill:#eef3f3;fill-opacity:1;fill-rule:nonzero;stroke:none;stroke-width:0.33597273;stroke-linecap:square;stroke-linejoin:round;stroke-miterlimit:4;stroke-dasharray:none;stroke-opacity:1;paint-order:fill markers stroke" />
      <ellipse
         transform="matrix(0.90057068,0.43470962,-0.12301776,0.99240447,0,0)"
         ry="1.9472274"
         rx="0.63050193"
         cy="-19.693493"
         cx="421.1459"
         id="path942-8-1"
         style="opacity:1;fill:#eef3f3;fill-opacity:1;fill-rule:nonzero;stroke:none;stroke-width:0.12429839;stroke-linecap:square;stroke-linejoin:round;stroke-miterlimit:4;stroke-dasharray:none;stroke-opacity:1;paint-order:fill markers stroke" />
    </g>
    <g
       id="g1255"
       transform="translate(0.32293298,5.8114671e-4)"
       inkscape:export-xdpi="96"
       inkscape:export-ydpi="96">
      <g
         id="g876">
        <g
           id="text1757"
           style="font-style:normal;font-weight:normal;font-size:166.38812256px;line-height:1.25;font-family:sans-serif;letter-spacing:0px;word-spacing:0px;fill:#eef3f3;fill-opacity:1;stroke:#0c295c;stroke-width:0.39687499;stroke-miterlimit:4;stroke-dasharray:none;stroke-opacity:1"
           transform="scale(0.96188446,1.0396259)"
           aria-label="m">
          <path
             id="path884"
             style="font-style:normal;font-variant:normal;font-weight:normal;font-stretch:normal;font-family:Milestone;-inkscape-font-specification:Milestone;fill:#eef3f3;fill-opacity:1;stroke:#0c295c;stroke-width:0.39687499;stroke-miterlimit:4;stroke-dasharray:none;stroke-opacity:1"
             d="m 168.33261,175.25058 q -0.33278,0.83194 0.16638,1.3311 -0.49916,0.83195 -1.49749,1.83027 0,0.33278 0.16639,0.49917 0.33277,0 0.49916,0 -0.33277,0.66555 -1.3311,1.66388 -0.99833,0.99833 -1.99666,2.99499 -0.33278,0.99832 -0.66555,0.99832 -0.66555,0.33278 -0.66555,0.66556 -0.16639,0.49916 -0.83195,1.3311 -0.66555,0.83194 -0.83194,1.33111 0,0 -0.16638,0.16639 -0.16639,0 -0.33278,0 l -0.33278,-0.16639 q 0,0.33277 -0.16638,0.66555 -0.16639,0.33278 -0.16639,0.49916 0,0.66556 0.49916,0.66556 0.66555,0 0.83194,0 -0.33277,0.33277 -0.33277,0.33277 -0.16639,0.16639 -0.49917,0.16639 -1.49749,0 -2.49582,1.49749 h 0.33278 q 0.66555,0 1.66388,-0.66555 0.49916,0 0.49916,0.66555 0,0 0,0.16639 0,0 -0.16639,0 -1.16471,1.16472 -1.3311,1.66388 -0.33278,0.49917 -0.66555,0.33278 -0.16639,0 -0.33278,0.33278 -0.16639,0.16638 0,0.49916 0.33278,0.99833 -0.66555,0.99833 l -0.83194,0.66555 q -0.16639,0.16639 -0.83194,1.33111 -0.49917,1.16471 -1.66389,1.66388 -0.49916,0.16639 -0.66555,0.83194 0,0.66555 -0.16639,0.99833 -0.16638,0 -0.66555,0 -0.49916,0 -0.99833,0.66555 -0.16639,0.33278 0,0.83194 0.16639,0.49916 0,0.83194 -0.16639,0 -0.66555,0.16639 -0.49916,0 -0.66555,0.66555 -0.16639,0.16639 -0.66555,0.33278 -0.49917,0.16639 -0.66556,0.16639 v 0.33277 q 0,1.16472 -0.83194,2.16305 -0.66555,0.99833 -0.99833,1.3311 -0.66555,-0.33277 -1.16471,-0.33277 -0.99833,0 -1.66388,0.83194 0.16638,0.33277 0.49916,0.49916 0.33278,0.16639 0.49916,0.33278 -0.33277,0.49916 -0.99832,0.66555 -0.49917,0.16639 -0.83195,0.33278 v 0.49916 q 0,0.99833 -1.16471,1.16472 l -0.16639,0.33277 q 0,1.16472 -0.99833,1.66388 -0.33278,0.33278 -0.33278,0.83195 0,0.49916 -0.16638,0.66555 -0.33278,0.16639 -0.49917,0 -0.16639,-0.33278 -0.33277,-0.33278 -0.49917,0 -0.83194,0.66555 0,0.49917 -0.33278,0.49917 -0.99833,0.16639 -1.83027,1.49749 -0.83194,1.16472 -1.33111,1.49749 -0.33277,0.16639 -0.83194,0.49917 -0.33277,0.33278 -1.16471,0.49916 -0.16639,0.66556 -1.4975,2.8286 -0.66555,0.66555 -1.3311,0.16639 0,-0.66555 0.16639,-1.16472 0.16639,-0.66555 0.33277,-1.3311 -0.66555,-0.33278 -0.99832,0.33277 -0.16639,0.49917 -0.33278,0.49917 -0.33278,-0.49917 -0.99833,-0.49917 0,-0.16638 0.16639,-0.33277 0.16639,-0.33278 0,-0.49917 -0.49917,-0.49916 -0.83194,0 -0.33278,0.33278 -0.33278,0.33278 -0.83194,1.16472 -1.66388,1.3311 l 0.16639,0.16639 v 0.16639 l -0.16639,0.16639 -0.16639,0.16639 -0.16639,0.16639 q 0,0 -0.16638,0.16638 0,0.16639 -0.16639,0 v -0.16638 -0.16639 q 0,0 0,0 0,-0.16639 0.16639,-0.16639 v -0.16639 l 0.16638,-0.49916 q -0.49916,-0.49917 -1.3311,0 -0.16639,0.16638 0,0.33277 0.16639,0.16639 0.16639,0.33278 -0.33278,0.33278 -0.66556,0 -0.16638,-0.33278 -0.33277,-0.49917 -2.16305,0.83195 -3.99332,0.66556 -0.16638,0.33277 0.33278,0.49916 0.66555,0 0.66555,0.16639 h -0.33277 q -0.99833,0 -1.83027,-0.33278 -0.66556,-0.49916 -0.99833,-0.66555 0.49916,0 0.66555,-0.16639 0.16639,0 0.49916,-0.33277 l 0.33278,-0.49917 q -0.16639,-0.16639 -0.66555,-0.16639 -0.33278,0 -1.16472,0.33278 -0.66555,0.16639 -1.16472,0 0,-0.16639 -0.33277,-0.83194 -0.16639,-0.66555 -0.83194,-0.33278 -0.16639,0.16639 -0.33278,0 -0.16639,-0.16638 -0.16639,-0.16638 -0.16638,-0.66556 -0.83194,-1.33111 -0.66555,-0.83194 -0.99833,-1.49749 v -0.66556 q 0,-0.66555 -0.33277,-0.99832 -0.33278,-0.33278 -1.33111,-0.49917 0,-0.99833 -0.83194,-1.66388 -0.66555,-0.83194 -0.66555,-2.99499 0.16639,-1.3311 0.33278,-2.66221 0.16638,-1.3311 0.33277,-2.66221 l 1.33111,-9.48412 1.49749,-7.15469 q 0.33278,-0.66555 1.16472,-4.32609 0.33277,-0.49916 -0.33278,-1.16472 0.16639,-0.33277 0.49917,-0.66555 0.49916,-0.49916 0.33277,-0.99833 l -0.16639,-0.33277 q -0.33277,0 -0.83194,0.49916 -0.49916,0.49917 -0.83194,0.66555 l -0.16639,-0.66555 q -0.33277,0.16639 -0.66555,0.49917 -0.16639,0.33277 0.49917,0.49916 0,0 0,-0.16639 0,-0.16639 0.16638,0 v 0.49917 q -0.49916,0.83194 -1.49749,2.16304 -0.99833,1.16472 -1.3311,2.16305 0,0.16639 -0.49917,0.16639 -0.33277,0 -0.33277,0.49916 0,0.16639 0.16638,0 0.16639,-0.16639 0.33278,0 v 0.16639 q -0.16639,0.33277 -0.49916,0.66555 -0.16639,0.33278 -0.33278,0.66555 -0.16639,0.49917 -0.83194,0.49917 0.33277,0 0,0.33277 -0.16639,0.49917 0,0.83194 0.33277,0.16639 0.83194,0.16639 0,0.16639 -0.33278,0.83194 -0.33277,0.49917 0.33278,0.99833 -0.66555,0.16639 -0.83194,0.16639 -0.99833,-0.49916 -1.33111,-0.49916 -0.33277,0 -1.3311,0.99832 0.49916,0.49917 0.49916,1.33111 0,0.66555 -0.66555,1.3311 -0.16639,0.33278 -0.16639,0.99833 0.16639,0 0.16639,0.33278 v 0.16639 h -0.33278 q -0.83194,-0.33278 -0.99832,0.33277 l -0.99833,1.66388 -0.83194,1.66389 q 0,0.33277 0.49916,0.49916 0.49916,0.16639 0.49916,0.33278 0,0.99832 -0.83194,0.99832 -0.49916,0.16639 -0.99832,0.66556 -0.33278,0.49916 -0.49917,0.66555 -0.33278,0.33278 -0.33278,0.66555 0,0.16639 0.49917,0.49917 0.83194,0.83194 0,1.3311 -0.33278,0.33278 -0.665553,1.33111 -0.166388,0.99833 -0.665553,1.3311 -0.166388,0.16639 0.166388,0.49917 l 0.166388,0.66555 q 0,0.49916 -0.332776,1.16472 -0.166388,0.66555 -0.332776,1.16471 0,0.16639 -0.665553,0.16639 l 0.166389,0.83194 q 0,0.99833 -0.665553,2.66221 -0.166388,0.33278 0,0.83194 -0.332776,-0.16639 -0.665552,-0.16639 -0.332777,0 -0.499165,0.49917 -0.499164,0.49916 -0.499164,0.83194 l -0.166388,0.66555 q 0,1.16472 1.830269,0.99833 -1.331105,1.66388 -2.828598,1.83027 -0.332776,0.16639 -0.499164,-0.16639 -0.166388,-0.33278 -0.332777,-0.49916 0.332777,-0.16639 0.998329,-0.49917 0.831941,-0.33277 0.831941,-1.16471 -0.998329,-0.49917 -1.663881,-0.49917 -0.831941,0 -1.497494,0.16639 -0.499164,0.16639 -0.998328,0.33278 -0.166388,-0.16639 0,-0.49917 0.332776,-0.33278 0.166388,-0.66555 -0.166388,0 -0.665553,0 -0.499164,0 -0.83194,0.66555 0,0.16639 -0.166388,0.49917 -0.166389,0.33277 0.499164,0.66555 -0.166388,0.33277 -0.499164,0.49916 -0.332777,0.16639 -0.499165,0.49917 0.166388,0 0.499165,0.33277 0,0.16639 -0.332777,0.16639 -1.164717,0.33278 -1.663881,0.99833 0,0.16639 -0.166388,0.33278 0,0.16638 -0.166388,0 h -0.332776 q -0.499165,0 -1.497493,0.33277 -0.831941,0.33278 -1.331105,0.16639 h -0.499165 q -0.166388,0 -1.331105,0.66555 -0.166388,-0.33277 -1.663881,-0.83194 -1.331105,-0.33277 -2.329434,-1.16471 -0.83194,-0.83195 -1.164717,-1.16472 -0.332776,-0.16639 -0.665552,-0.49917 -0.332776,-0.49916 -0.665553,-0.49916 0,0 -0.499164,-0.49916 0,-0.33278 -0.665552,-0.99833 -0.499165,-0.83194 -0.332777,-1.4975 l -0.332776,-0.33277 q -0.665552,-0.49917 -0.831941,-1.16472 0,-0.83194 -0.499164,-0.99833 -0.166388,-0.33277 -0.332776,-0.66555 0,-0.49917 -0.166388,-0.83194 -0.332777,-0.66555 -0.332777,-1.99666 0,-1.3311 0.665553,-3.99331 0.831941,-3.16138 1.164717,-7.15469 0.332776,-4.32609 0.665552,-6.48914 l 0.332777,-2.99499 q 0.332776,-1.3311 0.332776,-4.32609 v -0.49916 q 0,-1.33111 -0.998329,-1.66388 -0.166388,0 -0.166388,-0.16639 0.166388,-0.33278 0,-0.49917 -0.499164,0.16639 -0.831941,0.83195 -0.665552,0.99832 -1.331105,2.16304 -0.499164,0.99833 -1.164717,1.99666 -0.332776,0.16639 -0.332776,0.83194 0,1.3311 -0.998328,1.66388 l -0.332777,0.66555 q -0.499164,0.83194 -0.998328,1.16472 -0.499165,0.33278 -1.164717,0.49916 -0.332777,0.99833 -0.332777,1.4975 0.332777,0.83194 -0.499164,0.99833 -0.665552,0.16638 -0.998329,0.66555 -0.166388,0.49916 0,0.99833 v 0.33277 q 0,0.49917 -0.332776,0.99833 -0.166388,0.49917 -0.166388,0.99833 -0.166388,0.16639 -0.332776,0.66555 -0.166388,0.33278 -0.166388,0.83194 0,0.33278 -0.332777,0.33278 l -0.665552,0.33278 -0.332776,1.66388 q -0.998329,-0.66556 -1.497493,-0.33278 -0.166389,0.33278 0,0.49917 0.166388,0.16638 0.332776,0.33277 -0.166388,0.33278 -0.332776,0.66555 -0.166389,0.16639 -0.166389,0.66556 0,0.33277 -0.332776,0.66555 -0.332776,0.16639 -0.499164,0.33278 -0.499165,0.66555 -0.831941,1.83026 -0.332776,1.16472 -0.665552,1.66389 -0.166388,0.16638 -0.166388,0.49916 0.166388,0.16639 0,0.16639 -1.164717,0.66555 -1.497494,1.99666 -0.332776,1.16471 -0.332776,1.49749 -0.665552,2.16304 -1.331105,2.8286 -0.166388,0.33277 0,0.66555 0.332776,0.16639 0.332776,0.33278 -0.166388,0.33277 -0.499164,0.49916 -0.166388,0.16639 -0.332776,0.49916 0,0.16639 0.166388,0.49917 0.166388,0.33278 -0.166388,0.66555 -0.998329,0.66555 -2.329434,0.16639 -0.166388,0.83194 -0.998329,1.3311 -0.665552,0.49917 -1.164716,0.83195 -0.166389,0.16638 -0.499165,0.33277 -0.166388,0 -0.332776,0.16639 0,0.16639 -0.499164,0.33278 -0.332777,0.16638 -0.499165,0.49916 -0.166388,0.16639 -0.499164,0 -0.166388,-0.16639 -0.166388,-0.33278 -0.166388,-0.16638 -0.665553,-0.16638 0.166388,-0.66556 0.831941,-0.66556 0.83194,0 1.164717,0 -0.332777,-0.33277 -0.332777,-0.83194 0,-0.16639 0,-0.66555 0.166389,-0.49916 -0.166388,-0.83194 -0.332776,0.16639 -0.499164,0.49916 0,0.16639 0,0.49917 -0.166388,0.16639 -0.831941,0.49916 -0.499164,0.16639 -1.164717,0.16639 0,0.49917 -0.166388,0.83194 -0.166388,0.33278 -0.83194,0.49917 -0.499165,-0.66556 -1.83027,-0.33278 -0.83194,0 -1.331105,-0.33278 -0.998328,-0.99833 -2.329433,-1.66388 -1.164717,-0.83194 -1.996658,-2.66221 -1.663881,-2.49582 -3.161374,-3.99331 -0.831941,-0.83194 -0.998329,-1.83027 -0.332776,-1.16472 0.166388,-1.99666 1.996658,-3.82693 3.660539,-8.98496 l 2.994986,-10.48245 q 1.83027,-5.6572 2.828598,-9.8169 0.499165,-1.49749 1.164717,-4.82525 l 0.998329,-3.82693 q 1.164717,-4.99165 3.327762,-10.31607 0.831941,-2.32943 0.998329,-4.65886 0.166388,-1.83027 1.164717,-3.66054 1.331105,-2.49582 2.329434,-8.31941 0.166388,-0.49916 0.332776,-0.99833 0.332776,-0.66555 0.499164,-1.16471 0,-0.16639 0.166388,-0.33278 0.166388,-0.16639 0.332777,-0.16639 0.499164,-0.16639 1.331105,-0.49916 0.83194,-0.49917 1.663881,-0.49917 0.998329,0 2.163045,-0.16638 1.331105,-0.33278 2.163046,-0.16639 0.499164,0 1.164717,-0.33278 0.83194,-0.33277 1.331105,-0.16639 0.166388,0 0.499164,0 0.499165,-0.16638 0.665553,0 1.663881,1.16472 3.161374,0.33278 0,0 0.998329,1.49749 0.83194,0.83194 0.83194,2.32944 0,1.16471 0.332777,1.83027 0.332776,0.33277 0,0.83194 -0.332777,0.33277 -0.499165,0.83194 0,0.49916 -0.166388,0.83194 -0.332776,0.66555 0.166388,1.66388 -1.164717,0.66555 -0.998328,1.49749 0.166388,0.16639 0,0.66555 -0.166389,0.33278 -0.332777,0.49917 0,0 -0.499164,0.33277 -0.332776,0.33278 0,0.99833 0.166388,0.16639 -0.332776,0.33278 -0.332777,0.16639 -0.332777,0.49916 0.332777,0.16639 0.831941,0.16639 -0.166388,0.16639 -0.665552,0.66555 -0.499165,0.49917 -0.332777,1.33111 0,0.33278 -0.499164,0.83194 -0.499164,0.33278 0,0.99833 -0.166388,0 -0.665553,0 -0.499164,0 -0.499164,0.49916 -0.166388,0.33278 0,0.66556 0.332776,0.16638 0.332776,0.49916 -0.166388,0.16639 -0.499164,0.83194 -0.166388,0.49917 -0.665553,0.66555 0.831941,1.66388 0.831941,2.16305 -0.166388,0.49916 -0.831941,0.99833 -0.499164,0.49916 -0.83194,0.83194 1.497493,0.49916 1.830269,-0.49917 0.831941,-1.66388 1.996658,-1.83027 0.166388,0 0.332776,-0.16638 0.332776,-0.33278 0.332776,-0.49917 l 3.826927,-5.82358 q 0.998329,-1.33111 1.663881,-1.83027 1.164717,-0.83194 1.663881,-2.16305 1.164717,-1.49749 3.494151,-3.82692 1.663881,-1.4975 4.658867,-4.82526 1.663882,-1.66388 3.161375,-2.49582 1.497493,-0.99833 3.49415,-0.83194 h 0.499165 q 0.83194,-0.33278 2.66221,-0.33278 1.996657,0 2.828598,0.16639 0.332776,0 0.998328,0 0.665553,-0.16639 1.164717,0 0.665548,0 0.831938,0.49916 0.66556,0.66556 1.83027,0.83195 0.16639,0.16638 0.16639,0.83194 0.16639,0.49916 0.49916,0.66555 0.33278,0 0.33278,0.49916 l -0.16639,0.66556 q 0,0.66555 0.16639,1.49749 0.33278,0.83194 0.49917,1.49749 0,0.16639 0,0.83194 0,0.49917 -0.49917,0.83194 -0.49916,0.66555 -0.16639,1.83027 0.49917,0.99833 0,1.49749 -0.16639,0.33278 -0.33277,0.83195 0,0.33277 0.16638,0.49916 0.99833,0.83194 0,1.83027 -0.33277,0.66555 -0.33277,1.66388 0.33277,-0.33278 0.49916,-0.33278 v 0.49917 q 0,0.49916 -0.16639,1.3311 -0.16638,0.66556 0,1.33111 0,0.16639 -0.33277,0.16639 -0.33278,-0.16639 -0.49917,0 -0.16638,0.33277 0.16639,0.49916 0.49917,0.16639 0.49917,0.49917 -0.49917,0.49916 -0.99833,1.3311 -0.33278,0.66555 -0.49917,0.99833 l 1.16472,0.83194 q 0.49916,-0.49916 1.66388,-1.33111 1.33111,-0.99832 2.16305,-1.99665 0.83194,-1.16472 2.8286,-3.49415 l 0.49916,-0.66556 q 2.66221,-2.49582 4.65887,-4.82525 0.49916,-0.83194 1.49749,-1.66388 l 3.16137,-3.32776 q 0.49917,-0.66556 1.83027,-1.66389 0.99833,-0.83194 2.32944,-2.16304 1.3311,-1.49749 2.49582,-2.32944 0.66555,-0.66555 1.16472,-1.66388 1.66388,-1.3311 2.66221,-1.49749 0.49916,-0.16639 1.3311,-0.49916 0.83194,-0.49917 1.66388,-0.49917 1.16472,-0.16639 3.32776,-0.33277 2.32944,-0.33278 3.82693,-0.16639 0.49917,0.16639 1.16472,0.16639 h 0.66555 q 1.83027,0 2.16305,1.66388 l -0.99833,0.16638 0.16639,0.66556 -0.16639,0.83194 v 0.49916 q 1.16471,-0.66555 1.49749,-2.16304 0.49917,0.16638 0.83194,0.49916 0.49917,0.16639 0.83194,0.33278 0,0.49916 -0.33277,0.99833 -0.16639,0.49916 0.33277,0.83194 -0.16639,0.33277 -0.66555,0.66555 -0.49916,0.16639 -0.49916,0.49916 h 0.33277 q 0.33278,0 0.66555,-0.16638 0.49917,-0.33278 0.83194,-0.16639 0,0.33277 -0.49916,0.49916 -0.33278,0.16639 -0.49916,0.49917 0,0.33277 0.16638,0.66555 0.33278,0.33277 0.66556,0.16639 -0.49917,0.66555 -0.49917,1.16471 0,0.16639 0.99833,0.99833 0.16639,0.16639 0,0.49917 -0.16639,0.33277 -0.16639,0.49916 -0.83194,1.83027 -0.66555,3.32776 l 0.16639,0.33278 q -0.66555,0.66555 -0.66555,1.83027 0,0.16639 0,0.83194 0,0.49916 -0.33278,0.99833 -0.33278,0.33277 -0.16639,0.66555 0.16639,0.16639 0.16639,0.49916 0,0.66556 -0.66555,1.33111 0,0.16639 0.16639,0.49916 0.16638,0.16639 0.49916,0 -0.16639,0.16639 -0.16639,0.49917 0,0.16639 -0.16639,0.33277 -0.49916,0.99833 -0.66555,2.32944 -0.16639,1.3311 -0.16639,1.66388 -0.99833,0.16639 -1.3311,0.49916 -0.33278,0.33278 -0.99833,1.4975 0.66555,0.66555 0.99833,-0.16639 0.16639,0 0.33277,-0.16639 0.33278,-0.16639 0.66556,0 -0.16639,0.33278 -0.49917,0.66555 -0.33277,0.33278 -0.66555,0.99833 0.16639,0.16639 0.83194,0.16639 l -0.16639,0.83194 q 0,0.33278 -0.33277,0.66555 -0.33278,0.33278 0.16638,0.66556 0,0.16638 -0.33277,0.66555 -0.16639,0.33277 -0.49917,0.49916 -0.66555,0 -0.66555,0.49917 0.16639,0.16639 0.49917,0.16639 0.49916,-0.16639 0.66555,0 v 0.33277 q 0,0.99833 -0.66555,1.33111 -0.83195,0.49916 -0.83195,0.83194 0,0.16639 0.83195,0.99833 -0.49917,0.49916 -0.49917,0.66555 0.16639,0.16639 0.83194,0.33277 0,2.66221 -1.16472,4.82526 -1.99665,4.1597 -1.99665,8.65218 0,0.99833 0.33277,3.32777 v 0.66555 q 0,0.83194 -0.49916,1.3311 -0.83194,0.49917 -0.99833,1.33111 0.99833,-0.33278 3.32776,-2.32944 0.16639,0 0.49917,0.16639 0.49916,0.16639 0.83194,-0.16639 1.16471,-1.49749 3.32776,-3.16137 2.32943,-1.66388 3.32776,-2.49582 0.66556,-0.66555 1.4975,-0.83194 0.16638,0 0.83194,-0.66556 0.66555,-0.83194 1.49749,-1.49749 0.99833,-0.83194 1.49749,-1.16472 5.98998,-4.99164 5.98998,-4.99164 l 2.82859,-1.99666 5.6572,-3.99331 q 0,0.49916 -0.33278,0.83194 -0.16638,0.33278 -0.16638,0.83194 z m -55.24086,9.31773 q 0.16639,0.33278 0,0.99833 -0.16639,0.49917 -0.16639,0.66556 -0.16639,0 -0.49916,0.16638 -0.16639,0 -0.49917,-0.16638 0.49917,-0.99833 1.16472,-1.66389 z m -38.934822,3.82693 q -1.331105,0.83194 -0.998329,2.16305 h -0.665553 q -0.332776,-0.99833 -0.166388,-1.16472 0.166388,-0.66555 0.499165,-0.83194 0.332776,-0.33278 1.331105,-0.16639 z m 32.279292,2.49582 q 0.49917,0.16639 0.66556,0 0.16638,-0.33277 0.33277,-0.49916 -0.66555,-0.16639 -0.83194,0.16639 0,0.16639 -0.16639,0.33277 z m -34.941502,-0.33277 q 0.499164,0.99833 1.331105,1.16471 -0.665553,0.66556 -1.164717,1.33111 -0.332776,0.66555 -0.332776,1.49749 -0.332777,0.16639 -0.499165,0 -0.166388,-0.16639 -0.332776,-0.16639 0.665552,-0.49916 0.499164,-0.99832 0,-0.66556 -0.332776,-1.16472 0.831941,-1.33111 0.831941,-1.66388 z m -4.326091,6.48913 q 0.665552,0.16639 0.332776,0.99833 -0.332776,-0.16639 -0.499165,-0.33277 -0.166388,-0.33278 0.166389,-0.66556 z m -0.166389,1.33111 q 0,-0.16639 0,-0.16639 0.166389,0 0.166389,0 h 0.166388 v 0.16639 q -0.166388,0 -0.166388,0.16639 0,0 0,0 z m 35.773442,4.1597 0.16639,0.16639 h -0.16639 z m 19.13464,22.29601 q 0.16639,-0.49916 0.49916,-0.66555 0.33278,-0.16639 0.33278,-0.16639 0.16639,-0.16639 0.49916,-0.16639 0.33278,-0.16639 0.66556,-0.33277 0,0.33277 -0.33278,0.83194 -0.16639,0.33277 -0.16639,0.66555 z m 3.16137,0.33278 q -0.49916,-0.83194 -0.16638,-1.16472 0.49916,-0.33278 0.66555,-0.33278 v 0.16639 q 0,0.49917 -0.49917,1.33111 z m -35.607055,0.16638 q 0.166388,-0.66555 0.499164,-0.49916 0.499165,0.16639 0.665553,0.16639 -0.166388,0 -0.499165,0.33277 -0.332776,0.16639 -0.665552,0 z"
             inkscape:connector-curvature="0" />
        </g>
        <g
           id="g836"
           transform="translate(-3.1750001)"
           style="stroke-width:0.39687499;stroke-miterlimit:4;stroke-dasharray:none">
          <g
             id="g832"
             style="stroke-width:0.39687499;stroke-miterlimit:4;stroke-dasharray:none">
            <path
               style="fill:#eef3f3;fill-opacity:1;stroke:#0c295c;stroke-width:0.39687499;stroke-miterlimit:4;stroke-dasharray:none;stroke-opacity:0.94117647"
               inkscape:connector-curvature="0"
               d="m 92.028522,90.20747 c -3.676486,0.336479 -5.633327,0.624889 -5.603674,0.81716 0.01481,0.112157 -0.830176,0.28841 -2.194031,0.464654 -1.230438,0.144209 -2.816664,0.400567 -3.513415,0.560794 -3.617186,0.849203 -6.730339,1.682381 -8.924378,2.419427 -1.349029,0.448637 -3.113145,1.025456 -3.913676,1.29784 -6.893403,2.211131 -15.387866,6.649415 -22.133025,11.520305 -3.468941,2.51556 -8.672354,6.87374 -11.459364,9.61361 -3.187279,3.14045 -7.975603,8.29975 -9.769374,10.55895 -4.210164,5.28749 -7.88665,10.97554 -10.258572,15.94257 -1.141492,2.37136 -3.958148,9.02077 -4.8031512,11.29599 -1.5862262,4.34215 -3.4392881,11.50429 -4.2842911,16.50337 -0.7412231,4.43829 -0.9042946,6.26487 -0.9042946,10.41475 0,3.94157 0.103772,5.19134 0.4002613,5.09521 0.2816703,-0.11217 0.5485059,-1.15364 1.1563113,-4.45432 0.3113161,-1.71441 0.6374589,-3.49293 0.7115773,-3.92554 0.1185989,-0.62489 0.1334257,-0.40057 0.059323,1.04147 -0.059323,1.00943 -0.1037721,3.50896 -0.1037721,5.55987 0,4.08578 0.088953,4.51839 0.6671048,3.4609 0.2520167,-0.43262 0.4299149,-1.2658 0.6819316,-3.01227 l 0.3409619,-2.4034 -0.088945,3.06033 c -0.044512,2.06693 -0.014811,3.54101 0.103772,4.53442 0.1927172,1.45806 0.1927172,1.47409 0.3854345,0.97738 0.1482524,-0.36852 0.5040411,-3.63714 0.5040411,-4.58248 0,-0.0321 0.1037642,-0.0641 0.222363,-0.0641 0.3706155,0 0.9487752,-2.43544 1.8678882,-7.86713 0.474388,-2.86806 1.067374,-6.15272 1.319391,-7.29032 0.518852,-2.33932 1.171138,-4.77476 1.260083,-4.67863 0.04451,0.032 -0.02962,0.62489 -0.148244,1.31386 -0.266844,1.47409 -0.252017,1.37795 -0.07414,1.37795 0.08895,0 0.148245,-0.12818 0.148245,-0.28841 0.01481,-0.19227 0.07413,-0.1442 0.23719,0.17625 0.118599,0.24034 0.28167,0.40057 0.370615,0.3525 0.07413,-0.0641 0.370616,-0.59284 0.652278,-1.16966 0.29649,-0.6409 0.504034,-0.94533 0.518861,-0.75306 0,0.19227 0.05932,0.40057 0.133417,0.48068 0.07413,0.0961 0.07413,0.94534 0,1.92272 -0.163071,2.45147 0.05932,4.40624 0.489215,4.40624 0.192717,0 0.622624,-1.13761 1.601045,-4.29408 0.993248,-3.12442 1.052547,-3.26862 1.185965,-2.83601 0.07413,0.22431 0.222371,0.016 0.592978,-0.89728 1.111839,-2.64374 4.224992,-9.18099 5.410957,-11.32804 1.497281,-2.73987 2.297803,-3.98964 6.330078,-9.8219 4.328763,-6.24884 6.211479,-8.71634 9.962083,-12.96235 1.85307,-2.09897 2.164386,-2.32329 0.978421,-0.72102 -2.119905,2.90011 -3.172453,5.04714 -2.460875,5.04714 0.266843,0 1.838243,-1.31385 4.758678,-3.98965 8.790946,-8.07542 14.750408,-12.46564 22.340569,-16.42325 8.28692,-4.34214 16.722084,-6.8577 26.654522,-7.97929 2.49052,-0.27238 11.755859,-0.27238 14.231569,0 4.81797,0.54478 9.81383,1.5542 13.72751,2.7559 25.51302,7.81907 45.42237,28.44026 53.63516,55.55065 1.76413,5.84828 2.90561,11.95292 3.52824,18.87472 0.23719,2.73988 0.23719,10.92747 0,13.77951 -0.93394,10.99156 -3.63201,21.2621 -8.25726,31.40446 -6.12254,13.45906 -15.44717,24.96334 -27.1289,33.48741 -13.09007,9.5335 -27.73671,14.4044 -44.844231,14.91712 -13.594096,0.41658 -26.461796,-2.78795 -39.581505,-9.86998 -2.090259,-1.12158 -1.571407,-0.60886 0.741223,0.73705 9.650775,5.62396 20.027947,8.95668 31.724508,10.19042 2.668412,0.27239 12.141295,0.27239 14.824545,0 20.11689,-2.11499 37.2244,-10.68713 51.50043,-25.82856 1.52693,-1.63432 3.46894,-3.79738 4.28428,-4.80681 2.03097,-2.49954 2.16439,-2.62772 1.05255,-0.96136 -0.26684,0.40057 -0.47439,0.8492 -0.45956,0.99341 0.0444,0.36852 -3.33552,4.4543 -5.92982,7.19418 -5.76674,6.05658 -11.94857,11.00759 -18.72338,14.93314 -3.67649,2.13102 -10.4513,4.8709 -15.72883,6.34498 -6.4042,1.79455 -11.25183,2.51557 -19.55357,2.90011 -2.07543,0.0961 -4.328769,0.24034 -4.995874,0.33648 -3.009373,0.38454 -11.577955,-0.65693 -17.240928,-2.11499 -13.119717,-3.38079 -25.335131,-10.04623 -35.9495,-19.62779 -1.764117,-1.60227 -5.974281,-6.00851 -8.687173,-9.11691 -2.179205,-2.48352 -4.64008,-5.81624 -6.656221,-9.02077 -0.518852,-0.81716 -0.963594,-1.44204 -1.008067,-1.39398 -0.222363,0.24035 3.632013,5.89635 6.063235,8.90862 0.681931,0.8492 1.764124,2.1951 2.401575,2.99624 1.630699,2.03488 6.374551,7.01793 8.479637,8.94066 8.538929,7.69089 17.952506,13.31485 28.388985,16.95199 3.053853,1.07353 7.679106,2.3233 10.599542,2.90011 1.141484,0.2083 2.416394,0.46466 2.816656,0.54478 0.444741,0.0801 0.578159,0.1442 0.340969,0.16022 -0.785703,0.0321 -5.722272,-0.96136 -8.68718,-1.76249 -5.707446,-1.52216 -11.400065,-3.74931 -16.559005,-6.48919 -12.615676,-6.69748 -22.859429,-15.84644 -31.02775,-27.75129 -0.859822,-1.24977 -1.586226,-2.24318 -1.630699,-2.19511 -0.08895,0.0801 1.008067,1.7625 2.623939,4.00567 7.352971,10.20645 16.484886,18.58632 26.773112,24.54676 13.075236,7.56271 28.018369,11.31201 43.361777,10.8794 2.00131,-0.048 4.19534,-0.12818 4.89209,-0.17625 l 1.26009,-0.0641 -1.30456,0.22432 c -2.40158,0.40056 -6.07806,0.60886 -10.184464,0.60886 -9.191214,-0.016 -16.114271,-1.18567 -24.015748,-4.05374 C 65.299885,276.88776 57.072265,272.4014 50.890439,267.72278 35.873188,256.36269 24.517588,240.46819 18.736024,222.7471 c -0.963594,-2.98022 -1.245264,-2.83601 -0.326143,0.16023 4.610434,15.12541 13.712695,29.69003 25.39443,40.66557 0.637452,0.59284 1.156312,1.12159 1.156312,1.15363 0,0.0481 -0.385435,-0.25636 -0.844995,-0.68897 -5.233059,-4.74272 -9.813847,-9.96611 -13.905413,-15.84644 -3.350343,-4.8068 -5.6778,-8.9727 -8.924371,-15.94257 -1.260083,-2.69181 -2.386748,-4.99907 -2.505347,-5.12726 -0.177891,-0.19227 -0.207544,-0.19227 -0.207544,0.0801 0,0.38454 0.28167,1.39397 0.800522,2.86806 0.207544,0.59284 0.355789,1.15363 0.311316,1.23374 -0.252016,0.43262 4.447363,9.51748 7.352972,14.1961 5.233058,8.42794 12.334013,16.48735 20.072419,22.80028 2.164385,1.74648 6.211479,4.64658 8.598228,6.15271 2.431229,1.52216 2.727718,1.7625 1.03772,0.80114 -4.032275,-2.2592 -9.547003,-6.32896 -13.786822,-10.15838 -6.656213,-5.99249 -12.24506,-12.68997 -16.944439,-20.31677 -1.719644,-2.7559 -3.483768,-5.96044 -3.379996,-6.0726 0.118599,-0.12818 -0.800523,-2.01885 -1.171138,-2.37135 -0.163064,-0.17625 -0.533679,-0.89727 -0.800523,-1.60227 -0.266843,-0.705 -0.844995,-2.00284 -1.27491,-2.88408 -1.586226,-3.20454 -3.913676,-10.19043 -5.188586,-15.52599 -1.630698,-6.8577 -2.446048,-12.65792 -2.742537,-19.72392 -0.207544,-4.67862 -0.252017,-5.03112 -0.266844,-2.16307 -0.07413,6.95385 1.185965,16.08679 3.305871,24.05006 2.446048,9.14895 6.226306,18.07359 10.984984,25.89266 0.770869,1.26579 1.363855,2.38737 1.319383,2.46749 -0.177898,0.28841 1.927188,3.39681 5.559201,8.21964 0.252017,0.33647 0.05932,0.22431 -0.592986,-0.36853 -1.097012,-0.97738 -1.289729,-0.86522 -0.607806,0.3525 l 0.459561,0.83318 -0.681932,-0.80113 c -1.126657,-1.29784 -4.032266,-5.27146 -5.57402,-7.61078 -4.788324,-7.2743 -8.92437,-15.78234 -11.637262,-23.95391 -0.415088,-1.23375 -0.830169,-2.46749 -0.919122,-2.72386 l -0.163063,-0.48068 0.05932,0.5608 c 0.02962,0.30443 0.474379,1.82658 0.978413,3.36476 4.551134,13.76349 11.815153,26.21311 21.347329,36.54774 3.024208,3.26863 4.64008,4.83885 8.005249,7.75498 3.64684,3.15647 5.425784,4.56647 8.449983,6.72953 12.793574,9.181 27.128901,14.43644 42.576067,15.62212 3.202099,0.24034 9.724895,0.19227 13.030765,-0.0961 11.13322,-0.96136 22.13303,-4.19794 32.13959,-9.45338 8.55376,-4.48636 17.24094,-10.86338 23.54136,-17.27246 0.845,-0.8492 1.55657,-1.53817 1.58623,-1.53817 0.25201,0 -0.54851,1.12158 -1.51211,2.09897 -5.91498,6.10464 -14.61699,12.56178 -22.45917,16.64757 -12.5119,6.53725 -25.45372,9.78985 -39.68528,10.01418 -14.453917,0.20829 -28.166612,-3.06034 -41.271502,-9.85396 C 46.07249,274.51638 34.509354,264.26186 25.496038,251.31553 15.504301,236.97522 9.4558931,220.92049 7.4545788,203.4077 c -0.4299071,-3.8134 -0.75605,-6.08862 -0.8894678,-6.16874 -0.4447339,-0.2884 -0.2371898,5.01511 0.3706155,9.42135 2.2978036,16.90393 8.5389285,32.86252 18.0711045,46.25749 9.428404,13.25076 22.04408,23.93788 36.260808,30.7315 16.425587,7.85112 33.799941,10.36668 52.034121,7.54669 10.68849,-1.65034 22.25162,-5.89635 31.7838,-11.68054 11.87445,-7.17816 21.46593,-16.32711 29.85661,-28.44026 6.38938,-9.21305 11.57797,-20.74938 14.63182,-32.52605 2.2978,-8.87657 3.30587,-16.87189 3.54306,-28.11981 0.0148,-1.18568 0.0296,0.40056 0,3.52498 -0.0148,3.79739 -0.11859,6.52124 -0.26684,8.17158 -1.60105,16.71166 -6.15218,31.14809 -14.18708,45.00772 -0.88947,1.53818 -1.60105,2.81999 -1.55658,2.85203 0.10377,0.12819 1.08219,-1.29783 2.28299,-3.31669 7.27884,-12.32145 11.91892,-26.32527 13.72751,-41.33853 0.71158,-5.92839 0.96359,-14.90109 0.54851,-20.26869 -0.88947,-11.80872 -3.21692,-22.25551 -7.13061,-32.04537 -0.41508,-1.0575 -0.96359,-2.56363 -1.21561,-3.34874 -2.28297,-7.33839 -7.96076,-17.56086 -14.2019,-25.57221 -2.1792,-2.78794 -6.80446,-7.80304 -9.26533,-9.99815 -4.25465,-3.8134 -9.36911,-7.69088 -12.37849,-9.37327 -6.167,-3.42885 -8.6427,-4.67862 -12.60085,-6.344978 -1.09701,-0.464663 -3.06868,-1.313866 -4.37324,-1.87466 -7.10095,-3.124422 -15.12102,-5.1593 -24.23811,-6.152704 -3.40964,-0.368524 -12.808405,-0.448637 -16.232867,-0.144209 z M 65.4926,98.25086 c -10.154801,4.35817 -20.102065,10.81531 -27.944243,18.13767 -2.105086,1.97079 -5.944644,6.00852 -8.005249,8.42793 -1.349037,1.58625 -1.319383,1.45807 0.133417,-0.48068 3.869203,-5.1593 11.385246,-12.00098 18.619619,-16.93597 5.010687,-3.42886 11.859625,-7.22623 16.010491,-8.876566 1.334209,-0.52875 2.31263,-0.753064 1.185965,-0.272384 z m -12.06717,9.24509 c -0.103772,0.12818 -0.785704,0.62488 -1.541754,1.10556 -5.766737,3.71727 -12.719447,9.72577 -17.077857,14.72484 -1.586226,1.82659 -6.107715,6.53727 -5.499909,5.73613 0.222371,-0.30443 1.304564,-1.60227 2.386756,-2.88409 5.796391,-6.82566 12.511904,-12.78609 19.998293,-17.7371 0.978421,-0.64091 1.808597,-1.16966 1.838243,-1.16966 0.04451,0 -0.01481,0.0961 -0.103772,0.22432 z m -32.184061,32.86252 c 0,0.032 -0.266844,0.54477 -0.592986,1.12159 -0.75605,1.32988 -2.030961,4.06976 -3.098327,6.66543 -0.45956,1.10557 -0.97842,2.16307 -1.141484,2.35534 -0.57816,0.67295 -3.869203,8.86054 -4.803151,11.96895 -0.311316,1.07352 -0.592979,1.65034 -0.592979,1.24977 0,-0.60886 2.075433,-6.76158 3.335516,-9.91804 1.497281,-3.74931 3.913676,-8.66828 6.241133,-12.77008 0.370608,-0.64091 0.652278,-0.94535 0.652278,-0.67296 z m -6.463496,15.25359 c -1.215611,3.14045 -3.231752,9.69373 -3.958156,12.86622 -0.548506,2.4034 -1.2156106,6.34499 -1.7196439,10.06224 -0.1630715,1.16966 -0.3557887,2.22716 -0.4299071,2.3233 -0.074134,0.11216 -0.1778983,0.33647 -0.2223709,0.51272 -0.1778982,0.65694 0.074134,-1.53818 0.5781596,-5.06316 0.5485059,-3.92556 1.2452563,-7.19419 2.4163943,-11.37611 1.09702,-3.97363 3.691313,-11.36008 3.824731,-10.92747 0.02962,0.0961 -0.192718,0.81716 -0.489207,1.60226 z m -7.9607767,21.71075 c -0.044512,0.12818 -0.088945,0.0801 -0.088945,-0.0961 -0.014811,-0.17625 0.029622,-0.27239 0.074134,-0.2083 0.044433,0.048 0.059323,0.19228 0.014811,0.30444 z m 1.8975423,5.72009 c -0.059323,0.40057 -0.1482446,0.64091 -0.1778983,0.52875 -0.044433,-0.11216 -0.029622,-0.62489 0.044434,-1.12159 0.074134,-0.57682 0.1334178,-0.76909 0.1778982,-0.52875 0.029622,0.2083 0.014811,0.72102 -0.044434,1.12159 z m 32.3323054,80.62615 c 8.835426,8.37986 19.138471,14.74087 30.301346,18.73051 5.247885,1.87466 11.222174,3.30068 17.389181,4.16591 2.075433,0.2884 2.920436,0.46465 4.625253,0.94533 0.845003,0.24034 -1.230438,0.0961 -4.313937,-0.30442 -19.968647,-2.6117 -38.336249,-12.2894 -52.01929,-27.41482 l -1.778944,-1.97079 2.016134,2.08295 c 1.097019,1.15363 2.801836,2.83601 3.780257,3.76533 z m 47.097548,18.20176 c -0.103772,0.0321 -0.311316,0.0321 -0.444741,0 -0.148245,-0.048 -0.05932,-0.0801 0.177898,-0.0801 0.252016,0 0.355788,0.032 0.266843,0.0801 z"
               id="path1759" />
          </g>
        </g>
      </g>
      <g
         id="g1219">
        <text
           transform="scale(0.96188445,1.0396259)"
           id="text1765"
           y="166.96129"
           x="232.4416"
           style="font-style:normal;font-weight:normal;font-size:50.91383362px;line-height:1.25;font-family:sans-serif;letter-spacing:0px;word-spacing:0px;fill:#eef3f3;fill-opacity:1;stroke:#0c295c;stroke-width:0.39687499;stroke-miterlimit:4;stroke-dasharray:none;stroke-opacity:1"
           xml:space="preserve"><tspan
             id="tspan1763"
             style="font-style:normal;font-variant:normal;font-weight:normal;font-stretch:normal;font-family:Milestone;-inkscape-font-specification:Milestone;fill:#eef3f3;fill-opacity:1;stroke:#0c295c;stroke-width:0.39687499;stroke-miterlimit:4;stroke-dasharray:none;stroke-opacity:1"
             y="166.96129"
             x="232.4416"
             sodipodi:role="line">mojopixie</tspan></text>
        <g
           id="g1188">
          <text
             transform="scale(0.96188446,1.0396259)"
             id="text1769"
             y="231.0918"
             x="210.28606"
             style="font-style:normal;font-weight:normal;font-size:50.91383362px;line-height:1.25;font-family:sans-serif;letter-spacing:0px;word-spacing:0px;fill:#eef3f3;fill-opacity:1;stroke:#0c295c;stroke-width:0.39687499;stroke-miterlimit:4;stroke-dasharray:none;stroke-opacity:1"
             xml:space="preserve"><tspan
               id="tspan1767"
               style="font-style:normal;font-variant:normal;font-weight:normal;font-stretch:normal;font-family:Milestone;-inkscape-font-specification:Milestone;fill:#eef3f3;fill-opacity:1;stroke:#0c295c;stroke-width:0.39687499;stroke-miterlimit:4;stroke-dasharray:none;stroke-opacity:1"
               y="231.0918"
               x="210.28606"
               sodipodi:role="line">Innovations</tspan></text>
          <ellipse
             transform="matrix(0.29891353,0.9542802,-0.80806311,0.58909593,0,0)"
             ry="1.9472274"
             rx="0.63050193"
             cy="-172.08521"
             cx="343.76633"
             id="path942-8-0"
             style="opacity:1;fill:#eef3f3;fill-opacity:1;fill-rule:nonzero;stroke:none;stroke-width:0.12429839;stroke-linecap:square;stroke-linejoin:round;stroke-miterlimit:4;stroke-dasharray:none;stroke-opacity:1;paint-order:fill markers stroke" />
          <ellipse
             transform="matrix(0.29891353,0.9542802,-0.80806311,0.58909593,0,0)"
             ry="1.9472274"
             rx="0.63050193"
             cy="-170.5694"
             cx="344.51102"
             id="path942-8-4"
             style="opacity:1;fill:#eef3f3;fill-opacity:1;fill-rule:nonzero;stroke:none;stroke-width:0.12429839;stroke-linecap:square;stroke-linejoin:round;stroke-miterlimit:4;stroke-dasharray:none;stroke-opacity:1;paint-order:fill markers stroke" />
          <ellipse
             transform="matrix(0.29891353,0.9542802,-0.80806311,0.58909593,0,0)"
             ry="1.9472274"
             rx="0.63050193"
             cy="-168.93965"
             cx="345.67551"
             id="path942-8-22"
             style="opacity:1;fill:#eef3f3;fill-opacity:1;fill-rule:nonzero;stroke:none;stroke-width:0.12429839;stroke-linecap:square;stroke-linejoin:round;stroke-miterlimit:4;stroke-dasharray:none;stroke-opacity:1;paint-order:fill markers stroke" />
          <ellipse
             transform="matrix(0.29891353,0.9542802,-0.80806311,0.58909593,0,0)"
             ry="1.9472274"
             rx="0.63050193"
             cy="-194.26311"
             cx="358.47244"
             id="path942-8-3"
             style="opacity:1;fill:#eef3f3;fill-opacity:1;fill-rule:nonzero;stroke:none;stroke-width:0.12429839;stroke-linecap:square;stroke-linejoin:round;stroke-miterlimit:4;stroke-dasharray:none;stroke-opacity:1;paint-order:fill markers stroke" />
          <ellipse
             transform="matrix(0.29891353,0.9542802,-0.80806311,0.58909593,0,0)"
             ry="1.9472274"
             rx="0.63050193"
             cy="-193.00603"
             cx="359.41187"
             id="path942-8-39"
             style="opacity:1;fill:#eef3f3;fill-opacity:1;fill-rule:nonzero;stroke:none;stroke-width:0.12429839;stroke-linecap:square;stroke-linejoin:round;stroke-miterlimit:4;stroke-dasharray:none;stroke-opacity:1;paint-order:fill markers stroke" />
          <ellipse
             transform="matrix(0.29891353,0.9542802,-0.80806311,0.58909593,0,0)"
             ry="1.9472274"
             rx="0.63050193"
             cy="-192.44359"
             cx="360.14996"
             id="path942-8-5"
             style="opacity:1;fill:#eef3f3;fill-opacity:1;fill-rule:nonzero;stroke:none;stroke-width:0.12429839;stroke-linecap:square;stroke-linejoin:round;stroke-miterlimit:4;stroke-dasharray:none;stroke-opacity:1;paint-order:fill markers stroke" />
          <ellipse
             transform="matrix(0.29891353,0.9542802,-0.80806311,0.58909593,0,0)"
             ry="1.9472274"
             rx="0.63050193"
             cy="-191.34869"
             cx="360.87445"
             id="path942-8-00"
             style="opacity:1;fill:#eef3f3;fill-opacity:1;fill-rule:nonzero;stroke:none;stroke-width:0.12429839;stroke-linecap:square;stroke-linejoin:round;stroke-miterlimit:4;stroke-dasharray:none;stroke-opacity:1;paint-order:fill markers stroke" />
          <ellipse
             transform="matrix(0.24638558,0.96917189,-0.74394215,0.66824402,0,0)"
             ry="2.1150603"
             rx="0.76492119"
             cy="-248.95265"
             cx="403.84866"
             id="path942-8-6"
             style="opacity:1;fill:#eef3f3;fill-opacity:1;fill-rule:nonzero;stroke:none;stroke-width:0.14268677;stroke-linecap:square;stroke-linejoin:round;stroke-miterlimit:4;stroke-dasharray:none;stroke-opacity:1;paint-order:fill markers stroke" />
          <ellipse
             transform="matrix(0.86675139,0.49874044,-0.66629221,0.74569075,0,0)"
             ry="1.8987381"
             rx="0.39076829"
             cy="42.389854"
             cx="409.16803"
             id="path942-8-51"
             style="opacity:1;fill:#eef3f3;fill-opacity:1;fill-rule:nonzero;stroke:none;stroke-width:0.0966287;stroke-linecap:square;stroke-linejoin:round;stroke-miterlimit:4;stroke-dasharray:none;stroke-opacity:1;paint-order:fill markers stroke" />
          <ellipse
             transform="matrix(0.33228519,0.94317896,-0.78684826,0.61714651,0,0)"
             ry="1.9472274"
             rx="0.63050193"
             cy="-240.99384"
             cx="408.61002"
             id="path942-8-67"
             style="opacity:1;fill:#eef3f3;fill-opacity:1;fill-rule:nonzero;stroke:none;stroke-width:0.12429839;stroke-linecap:square;stroke-linejoin:round;stroke-miterlimit:4;stroke-dasharray:none;stroke-opacity:1;paint-order:fill markers stroke" />
          <ellipse
             transform="matrix(0.55422906,0.83236419,-0.36865402,0.92956668,0,0)"
             ry="1.8373353"
             rx="0.55762821"
             cy="-208.51135"
             cx="505.27026"
             id="path942-8-60"
             style="opacity:1;fill:#eef3f3;fill-opacity:1;fill-rule:nonzero;stroke:none;stroke-width:0.11354827;stroke-linecap:square;stroke-linejoin:round;stroke-miterlimit:4;stroke-dasharray:none;stroke-opacity:1;paint-order:fill markers stroke" />
          <ellipse
             inkscape:transform-center-y="-0.49609376"
             inkscape:transform-center-x="0.33072917"
             transform="matrix(0.59258541,0.80550763,-0.57298709,0.8195644,0,0)"
             ry="1.9472274"
             rx="0.63050193"
             cy="-159.83423"
             cx="446.57861"
             id="path942-8-27"
             style="opacity:1;fill:#eef3f3;fill-opacity:1;fill-rule:nonzero;stroke:none;stroke-width:0.12429839;stroke-linecap:square;stroke-linejoin:round;stroke-miterlimit:4;stroke-dasharray:none;stroke-opacity:1;paint-order:fill markers stroke" />
          <ellipse
             transform="matrix(0.29891353,0.9542802,-0.80806311,0.58909593,0,0)"
             ry="1.9472274"
             rx="0.63050193"
             cy="-288.35422"
             cx="398.285"
             id="path942-8-10"
             style="opacity:1;fill:#eef3f3;fill-opacity:1;fill-rule:nonzero;stroke:none;stroke-width:0.12429839;stroke-linecap:square;stroke-linejoin:round;stroke-miterlimit:4;stroke-dasharray:none;stroke-opacity:1;paint-order:fill markers stroke" />
          <ellipse
             transform="matrix(0.29891353,0.9542802,-0.80806311,0.58909593,0,0)"
             ry="1.9472274"
             rx="0.63050193"
             cy="-289.19785"
             cx="398.53348"
             id="path942-8-514"
             style="opacity:1;fill:#eef3f3;fill-opacity:1;fill-rule:nonzero;stroke:none;stroke-width:0.12429839;stroke-linecap:square;stroke-linejoin:round;stroke-miterlimit:4;stroke-dasharray:none;stroke-opacity:1;paint-order:fill markers stroke" />
          <ellipse
             inkscape:transform-center-y="0.15589336"
             inkscape:transform-center-x="-0.28349298"
             transform="matrix(0.52515971,0.85100369,-0.93784917,0.34704313,0,0)"
             ry="1.6777565"
             rx="0.35887283"
             cy="-194.96147"
             cx="325.32346"
             id="path942-8-8"
             style="opacity:1;fill:#eef3f3;fill-opacity:1;fill-rule:nonzero;stroke:none;stroke-width:0.08704598;stroke-linecap:square;stroke-linejoin:round;stroke-miterlimit:4;stroke-dasharray:none;stroke-opacity:1;paint-order:fill markers stroke" />
          <ellipse
             transform="matrix(0.29891353,0.9542802,-0.80806311,0.58909593,0,0)"
             ry="1.9472274"
             rx="0.63050193"
             cy="-285.39789"
             cx="397.42548"
             id="path942-8-53"
             style="opacity:1;fill:#eef3f3;fill-opacity:1;fill-rule:nonzero;stroke:none;stroke-width:0.12429839;stroke-linecap:square;stroke-linejoin:round;stroke-miterlimit:4;stroke-dasharray:none;stroke-opacity:1;paint-order:fill markers stroke" />
          <ellipse
             transform="matrix(0.29891353,0.9542802,-0.80806311,0.58909593,0,0)"
             ry="1.9472274"
             rx="0.63050193"
             cy="-285.51633"
             cx="398.29077"
             id="path942-8-33"
             style="opacity:1;fill:#eef3f3;fill-opacity:1;fill-rule:nonzero;stroke:none;stroke-width:0.12429839;stroke-linecap:square;stroke-linejoin:round;stroke-miterlimit:4;stroke-dasharray:none;stroke-opacity:1;paint-order:fill markers stroke" />
          <ellipse
             transform="matrix(-0.15818921,0.98740882,-0.98599978,0.16674659,0,0)"
             ry="1.9472274"
             rx="0.63050193"
             cy="-399.43604"
             cx="281.15509"
             id="path942-8-55"
             style="opacity:1;fill:#eef3f3;fill-opacity:1;fill-rule:nonzero;stroke:none;stroke-width:0.12429839;stroke-linecap:square;stroke-linejoin:round;stroke-miterlimit:4;stroke-dasharray:none;stroke-opacity:1;paint-order:fill markers stroke" />
          <ellipse
             transform="matrix(0.23201566,0.97271205,-0.72233764,0.69154055,0,0)"
             ry="1.6587657"
             rx="0.61855459"
             cy="-393.32742"
             cx="511.86273"
             id="path942-8-66"
             style="opacity:1;fill:#eef3f3;fill-opacity:1;fill-rule:nonzero;stroke:none;stroke-width:0.11363064;stroke-linecap:square;stroke-linejoin:round;stroke-miterlimit:4;stroke-dasharray:none;stroke-opacity:1;paint-order:fill markers stroke" />
          <ellipse
             transform="matrix(0.29891353,0.9542802,-0.80806311,0.58909593,0,0)"
             ry="1.9472274"
             rx="0.63050193"
             cy="-310.09537"
             cx="427.24722"
             id="path942-8-59"
             style="opacity:1;fill:#eef3f3;fill-opacity:1;fill-rule:nonzero;stroke:none;stroke-width:0.12429839;stroke-linecap:square;stroke-linejoin:round;stroke-miterlimit:4;stroke-dasharray:none;stroke-opacity:1;paint-order:fill markers stroke" />
          <ellipse
             transform="matrix(0.2850122,0.95852389,-0.79310315,0.60908734,0,0)"
             ry="3.0805812"
             rx="1.02676"
             cy="-291.01376"
             cx="407.05612"
             id="path942-8-32"
             style="opacity:1;fill:#eef3f3;fill-opacity:1;fill-rule:nonzero;stroke:none;stroke-width:0.19951004;stroke-linecap:square;stroke-linejoin:round;stroke-miterlimit:4;stroke-dasharray:none;stroke-opacity:1;paint-order:fill markers stroke" />
          <ellipse
             transform="matrix(0.29891353,0.9542802,-0.80806311,0.58909593,0,0)"
             ry="1.9472274"
             rx="0.63050193"
             cy="-282.89896"
             cx="397.9375"
             id="path942-8-34"
             style="opacity:1;fill:#eef3f3;fill-opacity:1;fill-rule:nonzero;stroke:none;stroke-width:0.12429839;stroke-linecap:square;stroke-linejoin:round;stroke-miterlimit:4;stroke-dasharray:none;stroke-opacity:1;paint-order:fill markers stroke" />
        </g>
      </g>
    </g>
  </g>
</svg>
