<?xml version="1.0" encoding="UTF-8" standalone="no"?>
<svg
   xmlns:v="http://vecta.io"
   xmlns:dc="http://purl.org/dc/elements/1.1/"
   xmlns:cc="http://creativecommons.org/ns#"
   xmlns:rdf="http://www.w3.org/1999/02/22-rdf-syntax-ns#"
   xmlns:svg="http://www.w3.org/2000/svg"
   xmlns="http://www.w3.org/2000/svg"
   xmlns:xlink="http://www.w3.org/1999/xlink"
   xmlns:sodipodi="http://sodipodi.sourceforge.net/DTD/sodipodi-0.dtd"
   xmlns:inkscape="http://www.inkscape.org/namespaces/inkscape"
   viewBox="0 0 100 24"
   font-size="14px"
   width="300"
   height="150"
   version="1.1"
   id="svg27"
   sodipodi:docname="java.svg"
   style="font-size:14px;font-family:Roboto;text-anchor:middle;fill:#ffffff;fill-rule:evenodd;stroke:#000000;stroke-linecap:round;stroke-linejoin:round"
   inkscape:version="0.92.4 (5da689c313, 2019-01-14)">
  <metadata
     id="metadata31">
    <rdf:RDF>
      <cc:Work
         rdf:about="">
        <dc:format>image/svg+xml</dc:format>
        <dc:type
           rdf:resource="http://purl.org/dc/dcmitype/StillImage" />
        <dc:title></dc:title>
      </cc:Work>
    </rdf:RDF>
  </metadata>
  <sodipodi:namedview
     pagecolor="#ffffff"
     bordercolor="#666666"
     borderopacity="1"
     objecttolerance="10"
     gridtolerance="10"
     guidetolerance="10"
     inkscape:pageopacity="0"
     inkscape:pageshadow="2"
     inkscape:window-width="1920"
     inkscape:window-height="1027"
     id="namedview29"
     showgrid="false"
     inkscape:zoom="3.1466667"
     inkscape:cx="130.94699"
     inkscape:cy="56.214446"
     inkscape:window-x="-8"
     inkscape:window-y="-8"
     inkscape:window-maximized="1"
     inkscape:current-layer="svg27" />
  <defs
     id="defs4">
    <style
       type="text/css"
       id="style2" />
  </defs>
  <g
     id="g10"
     transform="translate(0.09110651,-11.500169)">
    <title
       id="title6">java-ar21</title>
    <use
       xlink:href="#xRJIbet_9aL1u-4ms99Urx.sym"
       x="0.5"
       y="0.5"
       id="use8"
       width="100%"
       height="100%"
       transform="translate(0,50)" />
  </g>
  <symbol
     id="xRJIbet_9aL1u-4ms99Urx.sym"
     overflow="visible"
     v:tags="java, logo, java, programming language"
     style="overflow:visible"
     transform="translate(0,-50)">
    <title
       id="title12">java-ar21</title>
    <g
       id="juhn10thfhj"
       class="Group.cls"
       v:abox="{&quot;x&quot;:0,&quot;y&quot;:0,&quot;width&quot;:98.81778622059417,&quot;height&quot;:46.00033847992243}"
       v:size="100,48,0.5,0.5">
      <g
         class="Prim.cls"
         id="g23">
        <g
           id="juhn10t5fhd"
           transform="translate(0,24.889834)"
           class="">
          <path
             d="m 10.955787,10.672162 c 0,0 -1.7669986,1.075005 1.230011,1.383003 3.599991,0.46 5.529998,0.383995 9.523987,-0.383995 0,0 1.075012,0.689995 2.535003,1.229996 C 15.257789,16.741162 3.8907995,12.67117 10.956794,10.674161 Z M 9.8037939,5.6801654 c 0,0 -1.9199982,1.4599991 1.0749971,1.767006 3.917007,0.383995 7,0.4599914 12.290008,-0.6140061 0,0 0.690003,0.7679978 1.842987,1.1520004 C 14.1818,11.211164 2.0457983,8.292165 9.8037939,5.6811649 Z M 31.003791,14.43617 c 0,0 1.306,1.074997 -1.459992,1.919998 -5.145996,1.535995 -21.5830074,1.996994 -26.1920009,0 -1.6130066,-0.690002 1.4599914,-1.699997 2.4579925,-1.843002 1,-0.229996 1.5359955,-0.229996 1.5359955,-0.229996 -1.7659912,-1.230003 -11.7519989,2.534996 -5.0699921,3.599991 18.356995,2.99501 33.488007,-1.306 28.726013,-3.455994 z M 11.799796,0.45716587 c 0,0 -8.3720092,1.99700163 -2.9960021,2.68800353 2.3040011,0.3069916 6.8359981,0.2299957 11.0600131,-0.077004 3.455993,-0.3069992 6.912994,-0.9220047 6.912994,-0.9220047 0,0 -1.230011,0.5380097 -2.074005,1.0750046 C 16.176795,5.4481632 -0.1832056,4.4511692 4.502799,2.1461612 8.4967871,0.22616306 11.799796,0.44616428 11.799796,0.44616428 Z M 26.777808,8.8291675 c 8.60199,-4.4550018 4.607971,-8.75600432 1.842987,-8.2180023 -0.690002,0.15399932 -1,0.3069992 -1,0.3069992 0,0 0.230011,-0.45999908 0.768006,-0.61399841 5.453003,-1.91999819 9.755005,5.75999451 -1.766999,8.75599671 0,0 0.077,-0.076996 0.153992,-0.2299957 z M 12.645789,20.96417 c 8.295014,0.537994 20.970001,-0.307007 21.276001,-4.223999 0,0 -0.614014,1.535995 -6.835998,2.687988 -7.06601,1.306 -15.821991,1.152008 -20.9700016,0.307007 0,0 1.0749969,0.921997 6.5299986,1.229995 z"
             id="path14"
             inkscape:connector-curvature="0"
             style="fill:#4e7896;stroke:none" />
        </g>
        <g
           id="juhn10t9fhe"
           transform="translate(10.95283)"
           class="">
          <path
             d="m 10.601956,0 c 0,0 4.762024,4.8399963 -4.5319823,12.136002 -7.4500122,5.914001 -1.7000122,9.293998 0,13.134002 C 1.6919677,21.352997 -1.4570343,17.897003 0.69295957,14.669998 3.8429687,9.9080048 12.520962,7.6040039 10.60098,0 Z M 8.1439483,22.043999 c 2.2270207,2.535003 -0.6149902,4.840004 -0.6149902,4.840004 0,0 5.6840209,-2.919998 3.0720219,-6.529999 C 8.2209747,16.898003 6.37695,15.208 16.360959,9.4469986 c 0,0 -15.74600236,3.9169994 -8.2179872,12.5960004 z"
             id="path17"
             inkscape:connector-curvature="0"
             style="fill:#f58219;stroke:none" />
        </g>
        <g
           id="juhn10tbfhf"
           transform="translate(46.03379,9)"
           class="">
          <path
             d="M 22.283997,22.162003 V 10.485001 c 0,-2.9800037 -1.668,-5.0039982 -5.837983,-5.0039982 -2.383026,0 -4.410003,0.595993 -6.196014,1.3099976 l 0.596008,2.1450042 c 1.309998,-0.477005 2.979981,-0.9530029 4.765992,-0.9530029 2.264007,0 3.335998,0.9530029 3.335998,2.8600003 v 1.549996 h -1.182007 c -5.71997,0 -8.3399961,2.145004 -8.3399961,5.599998 0,2.860001 1.7870181,4.528 5.0039981,4.528 2.026001,0 3.575012,-0.952995 5.004028,-2.144997 l 0.237976,1.786995 h 2.619995 z m -3.337983,-3.812005 c -1.190002,1.071999 -2.502014,1.668007 -3.694,1.668007 -1.550018,0 -2.502014,-0.953003 -2.502014,-2.62001 0,-1.666992 0.953003,-2.859993 4.765991,-2.859993 h 1.430023 v 3.812996 z m 14.535981,3.812996 H 29.312012 L 24.309021,5.8399963 h 3.574982 l 3.097992,10.0100017 0.715026,2.980004 c 1.549988,-4.290001 2.739991,-8.697998 3.21698,-12.9869997 h 3.574006 C 37.535004,11.205002 35.868011,17.042999 33.484009,22.166 Z m 19.302002,0 V 10.485001 c 0,-2.9800037 -1.668,-5.0039982 -5.839997,-5.0039982 -2.382995,0 -4.407989,0.595993 -6.196014,1.3099976 l 0.47702,2.1450042 c 1.429993,-0.477005 3.097992,-0.9530029 4.884979,-0.9530029 2.264008,0 3.336029,0.9530029 3.336029,2.8600003 v 1.549996 h -1.190002 c -5.720001,0 -8.339996,2.145004 -8.339996,5.599998 0,2.860001 1.667968,4.528 4.884979,4.528 2.145019,0 3.694,-0.952995 5.123016,-2.144997 l 0.237976,1.786995 h 2.620026 z m -3.335999,-3.812996 c -1.190002,1.071999 -2.501984,1.668007 -3.694,1.668007 -1.549988,0 -2.501984,-0.953003 -2.501984,-2.62001 0,-1.666992 0.953003,-2.859993 4.765991,-2.859993 h 1.429993 v 3.812996 z M 5.7200012,24.903 c -0.9530029,1.43 -2.3829956,2.501999 -4.1700134,3.097999 L 0,26.095001 c 1.1920166,-0.714996 2.3829956,-1.787002 2.8600159,-2.740005 0.4769897,-0.834 0.5959778,-2.026001 0.5959778,-4.765991 V 0 h 3.5750122 v 18.349998 c 0,3.694001 -0.3580017,5.123002 -1.3099976,6.553002 z"
             id="path20"
             inkscape:connector-curvature="0"
             style="fill:#4e7896;stroke:none" />
        </g>
      </g>
    </g>
  </symbol>
</svg>
