<?xml version="1.0" encoding="UTF-8" standalone="no"?>
<!-- Created with Inkscape (http://www.inkscape.org/) -->

<svg
   xmlns:dc="http://purl.org/dc/elements/1.1/"
   xmlns:cc="http://creativecommons.org/ns#"
   xmlns:rdf="http://www.w3.org/1999/02/22-rdf-syntax-ns#"
   xmlns:svg="http://www.w3.org/2000/svg"
   xmlns="http://www.w3.org/2000/svg"
   xmlns:sodipodi="http://sodipodi.sourceforge.net/DTD/sodipodi-0.dtd"
   xmlns:inkscape="http://www.inkscape.org/namespaces/inkscape"
   width="300"
   height="150"
   viewBox="0 0 79.374998 39.687501"
   version="1.1"
   id="svg8"
   inkscape:version="0.92.2 (5c3e80d, 2017-08-06)"
   sodipodi:docname="JavaFx.svg">
  <defs
     id="defs2" />
  <sodipodi:namedview
     id="base"
     pagecolor="#ffffff"
     bordercolor="#666666"
     borderopacity="1.0"
     inkscape:pageopacity="0.0"
     inkscape:pageshadow="2"
     inkscape:zoom="1.979899"
     inkscape:cx="184.77066"
     inkscape:cy="23.891457"
     inkscape:document-units="mm"
     inkscape:current-layer="layer1"
     showgrid="false"
     units="px"
     inkscape:window-width="1920"
     inkscape:window-height="1137"
     inkscape:window-x="-8"
     inkscape:window-y="-8"
     inkscape:window-maximized="1" />
  <metadata
     id="metadata5">
    <rdf:RDF>
      <cc:Work
         rdf:about="">
        <dc:format>image/svg+xml</dc:format>
        <dc:type
           rdf:resource="http://purl.org/dc/dcmitype/StillImage" />
        <dc:title></dc:title>
      </cc:Work>
    </rdf:RDF>
  </metadata>
  <g
     inkscape:label="Layer 1"
     inkscape:groupmode="layer"
     id="layer1"
     transform="translate(0,-257.31248)">
    <g
       id="g906"
       transform="matrix(0.51468233,0,0,0.51468233,-17.016573,218.96109)">
      <path
         style="fill:#54829e;stroke-width:0.26458332"
         d="m 85.305111,143.6908 c -0.455086,-0.51832 -0.824886,-1.02754 -0.82178,-1.13162 0.0031,-0.10408 0.478504,-0.52377 1.056439,-0.93263 0.577932,-0.40888 1.379061,-1.30184 1.780289,-1.98438 l 0.729498,-1.24097 0.07596,-12.50157 0.07596,-12.50156 h 1.986425 1.986426 l -0.07801,12.76615 c -0.08694,14.22673 -0.01577,13.65509 -1.969061,15.81714 -1.041479,1.15279 -2.435883,2.15754 -3.433087,2.47374 -0.43357,0.13748 -0.750306,-0.0368 -1.389063,-0.7643 z M 49.89535,141.69596 c -3.0895,-0.20769 -7.048842,-0.89675 -7.744241,-1.34777 -0.286451,-0.18578 -0.09638,-0.21889 0.654698,-0.11403 0.582084,0.0813 3.346681,0.28626 6.143549,0.45554 11.66173,0.70581 25.94448,-1.34141 28.719597,-4.11653 0.757462,-0.75746 0.577485,0.19108 -0.214942,1.13283 -2.603061,3.09356 -14.744264,4.85137 -27.558661,3.98996 z m -1.930168,-2.80104 c -2.985971,-0.18427 -7.624312,-0.66991 -10.186458,-1.06653 -2.7465,-0.42517 -4.020043,-0.89263 -4.280419,-1.57116 -0.193341,-0.50383 0.816477,-1.5958 2.07055,-2.23898 2.202625,-1.12967 6.816402,-1.98606 7.216053,-1.33941 0.07844,0.12692 -0.361013,0.28897 -0.976572,0.3601 -1.574985,0.18201 -4.270139,1.30622 -4.369596,1.82266 -0.113866,0.59125 1.470631,1.18599 4.646504,1.74405 3.75721,0.66021 18.748367,0.66188 24.026519,0.003 6.080249,-0.75938 8.753686,-1.70312 8.505306,-3.00244 -0.117965,-0.61709 -0.100555,-0.62649 0.370499,-0.20019 0.271854,0.24602 0.494281,0.65888 0.494281,0.91746 0,1.46936 -5.13742,3.19132 -12.170833,4.07942 -3.133744,0.39569 -12.199075,0.68655 -15.345834,0.49235 z m 50.533705,-0.61695 c -1.200832,-0.35023 -2.294107,-1.0299 -2.732249,-1.69859 -0.746609,-1.13947 -1.025284,-2.98839 -0.692226,-4.59271 0.592537,-2.85424 3.282082,-4.48347 7.857958,-4.76007 2.67333,-0.1616 2.54947,-0.0609 2.47708,-2.01332 -0.0486,-1.3112 -0.39032,-1.92489 -1.3473,-2.41976 -1.08683,-0.56202 -4.094349,-0.5122 -6.062746,0.10044 l -1.606677,0.50005 -0.267504,-0.96307 c -0.14713,-0.5297 -0.268171,-1.09533 -0.268981,-1.25697 -0.0026,-0.51931 3.612764,-1.46324 6.160578,-1.60845 4.11836,-0.23471 6.38302,1.01629 7.04564,3.89202 0.15022,0.65193 0.27603,4.19165 0.27959,7.86605 l 0.006,6.68073 h -1.5875 -1.5875 v -0.79375 c 0,-0.43656 -0.0761,-0.79375 -0.16918,-0.79375 -0.093,0 -0.71812,0.33518 -1.38906,0.74485 -0.67094,0.40967 -1.45801,0.83841 -1.74906,0.95276 -0.7391,0.29039 -3.569048,0.39636 -4.367333,0.16354 z m 5.260613,-3.34958 c 0.8991,-0.44805 1.48711,-0.93948 1.65618,-1.38416 0.20015,-0.52642 0.1898,-2.70167 -0.0189,-3.97824 -0.009,-0.0572 -0.95122,-0.0399 -2.09304,0.0383 -3.25645,0.22321 -4.538548,1.16103 -4.538548,3.31984 0,0.9206 0.155406,1.30751 0.773399,1.9255 1.002129,1.00213 2.318609,1.02668 4.220919,0.0787 z m 28.54146,3.24661 c -0.69132,-0.19445 -1.5118,-0.58029 -1.82331,-0.85742 -1.47284,-1.31034 -1.96997,-4.31607 -1.04916,-6.34343 1.0425,-2.2953 3.51617,-3.50964 7.63513,-3.74814 l 2.4474,-0.14171 v -1.44561 c 0,-1.29126 -0.0961,-1.54168 -0.89959,-2.3452 -0.85517,-0.85517 -0.9929,-0.89959 -2.78989,-0.89959 -1.03967,0 -2.66322,0.19415 -3.60787,0.43144 -0.94466,0.23729 -1.76735,0.38165 -1.8282,0.3208 -0.0608,-0.0609 -0.1894,-0.60315 -0.28565,-1.20511 l -0.17501,-1.09446 1.81654,-0.57032 c 3.85241,-1.2095 8.03021,-0.9479 9.80938,0.61423 1.60804,1.41188 1.66445,1.74504 1.66445,9.8293 v 7.28454 h -1.44322 -1.44322 l -0.17667,-0.94173 -0.17667,-0.94174 -0.56621,0.53194 c -1.55278,1.45876 -4.83496,2.16163 -7.10823,1.52221 z m 4.74544,-2.83188 c 0.40965,-0.15397 1.13096,-0.54093 1.60291,-0.8599 0.8532,-0.57664 0.8581,-0.59259 0.8599,-2.80056 l 0.002,-2.22062 -2.11871,0.14522 c -2.768,0.18972 -3.96574,0.78828 -4.47722,2.23746 -0.91953,2.60526 1.36364,4.53866 4.13131,3.4984 z m -20.15478,2.34046 c -0.32137,-0.9059 -5.42644,-17.6406 -5.42644,-17.78818 0,-0.0933 0.91937,-0.13481 2.04305,-0.0923 l 2.04305,0.0773 1.78641,5.68854 c 0.98252,3.1287 1.92627,6.34339 2.09722,7.14375 l 0.31081,1.45521 0.37818,-0.90837 c 0.63694,-1.52987 2.16226,-7.3644 2.75062,-10.5215 l 0.55722,-2.98992 h 1.96621 1.96621 l -0.16682,0.99219 c -0.67884,4.03742 -2.7255,10.98022 -4.45728,15.12029 l -0.8414,2.01148 -2.44309,0.0761 c -1.80912,0.0564 -2.47444,-0.0123 -2.56395,-0.26458 z m 28.79742,-0.13167 c 0.0743,-0.2605 1.04407,-4.79373 2.15515,-10.07385 1.11109,-5.28011 2.18656,-9.99848 2.38995,-10.48524 0.55717,-1.3335 1.69751,-2.55485 2.89197,-3.09742 0.95569,-0.43411 1.86519,-0.48632 8.56159,-0.49152 7.01213,-0.005 7.48365,0.0239 7.35727,0.45721 -0.0743,0.25466 -0.27638,1.20716 -0.44913,2.11667 l -0.31409,1.65364 h -6.41855 c -7.73181,0 -7.32116,-0.16746 -8.07688,3.29389 -0.28433,1.30232 -0.51697,2.52271 -0.51697,2.71198 0,0.26962 1.02404,0.34413 4.72945,0.34413 h 4.72946 l 1.35596,1.96147 c 0.74578,1.07881 1.35596,2.03131 1.35596,2.11667 0,0.0854 -2.97429,0.1552 -6.60954,0.1552 h -6.60954 l -0.14525,0.59531 c -0.0799,0.32742 -0.53613,2.50031 -1.01389,4.82865 l -0.86864,4.23333 -2.31964,0.0768 c -2.1223,0.0702 -2.30816,0.0365 -2.18464,-0.39687 z m 16.5235,-2.65644 c 1.60456,-1.70987 3.41388,-3.58511 4.02071,-4.16719 0.60684,-0.58208 1.33173,-1.3747 1.61087,-1.76138 l 0.50753,-0.70304 -2.72346,-3.92717 c -1.4979,-2.15993 -2.81485,-4.07599 -2.92656,-4.25789 -0.15695,-0.25559 0.36568,-0.33073 2.30041,-0.33073 h 2.5035 l 1.91025,2.80635 1.91025,2.80635 2.67947,-2.82471 2.67946,-2.8247 2.83679,0.0845 2.83679,0.0845 -4.22585,4.42464 c -2.32422,2.43355 -4.22585,4.4955 -4.22585,4.58212 0,0.0866 1.27992,2.0171 2.84427,4.28996 1.56435,2.27286 2.93948,4.28879 3.05586,4.47985 0.1688,0.27715 -0.29057,0.34739 -2.27196,0.34739 h -2.48353 l -2.09367,-3.04608 -2.09368,-3.04609 -2.86784,3.04609 -2.86784,3.04608 h -2.91664 -2.91665 z M 50.517679,132.84079 c -3.729689,-0.60321 -6.03975,-1.91697 -5.561624,-3.16295 0.165224,-0.43057 1.930797,-1.4631 2.501818,-1.4631 0.23009,0 0.23192,0.0911 0.0073,0.36177 -0.784836,0.94567 1.757497,1.496 6.82,1.47629 1.98105,-0.008 4.554408,-0.17127 5.718575,-0.36347 l 2.116667,-0.34944 1.719791,0.87962 c 0.945886,0.48379 1.656133,0.88548 1.57833,0.89263 -0.0778,0.007 -0.851239,0.26248 -1.718744,0.56739 -3.734718,1.31264 -9.244849,1.79806 -13.182089,1.16126 z m -1.626455,-6.63878 c -3.447624,-0.50598 -5.688542,-1.47437 -5.688542,-2.45827 0,-0.54498 0.88532,-1.38345 1.930678,-1.82851 0.994056,-0.42322 1.046409,-0.40486 0.698635,0.24496 -0.69886,1.30583 1.382406,1.81017 7.557146,1.83129 3.42307,0.0117 9.588039,-0.56627 10.222473,-0.95838 0.105701,-0.0653 0.621009,0.17224 1.145127,0.52791 0.524119,0.35568 1.097852,0.69853 1.274964,0.7619 0.651991,0.23328 -0.09825,0.50672 -3.159234,1.15149 -2.551816,0.53751 -4.066307,0.67708 -8.160414,0.75205 -2.764896,0.0506 -5.38427,0.0396 -5.820833,-0.0245 z m 21.999715,-1.92419 c 3.272155,-2.1733 4.59091,-3.85328 4.59091,-5.84841 0,-1.56729 -0.58909,-2.50381 -2.006576,-3.19 -1.05827,-0.5123 -1.387488,-0.55745 -2.390855,-0.32784 -0.96588,0.22102 -1.113364,0.20574 -0.867984,-0.0899 0.766646,-0.92375 3.529645,-1.13519 5.133123,-0.3928 2.563956,1.18707 3.439568,3.52121 2.245911,5.98698 -1.019368,2.10573 -4.928569,4.62471 -8.199036,5.28322 -0.775647,0.15618 -0.532931,-0.0746 1.494507,-1.42123 z M 183.96102,120.9387 c 0,-0.36381 -0.11907,-0.66146 -0.26459,-0.66146 -0.14552,0 -0.26458,-0.11906 -0.26458,-0.26459 0,-0.14552 0.31039,-0.26458 0.68977,-0.26458 0.52027,0 0.6503,0.10284 0.52916,0.41852 -0.0883,0.23018 -0.1606,0.6469 -0.1606,0.92604 0,0.27914 -0.11906,0.50752 -0.26458,0.50752 -0.14552,0 -0.26458,-0.29765 -0.26458,-0.66145 z m 1.07693,-0.19844 c -0.0205,-1.09487 0.34883,-1.32922 0.62551,-0.39688 l 0.17666,0.59532 0.24883,-0.61231 c 0.32242,-0.79336 0.78248,-0.50195 0.78248,0.49563 0,0.78663 -0.37282,1.05631 -0.61852,0.44741 -0.10676,-0.26459 -0.13763,-0.26459 -0.15434,0 -0.0323,0.51078 -0.54764,0.39088 -0.56865,-0.1323 -0.0159,-0.39593 -0.0515,-0.38635 -0.24599,0.0662 -0.18241,0.42449 -0.23107,0.3329 -0.24598,-0.46302 z M 45.848516,119.83511 c -5.968019,-0.42651 -8.764212,-1.59052 -6.813021,-2.83613 1.664258,-1.06244 9.109064,-2.98056 9.612908,-2.47672 0.07162,0.0716 -0.856478,0.44074 -2.062438,0.82027 -2.399567,0.75516 -4.027006,1.62488 -3.782084,2.02118 0.805566,1.30343 12.657188,1.29987 21.955112,-0.007 2.033315,-0.28571 3.759721,-0.51731 3.836458,-0.51467 0.07674,0.003 -0.511117,0.3634 -1.306343,0.8017 -3.015274,1.66189 -13.64483,2.7481 -21.440592,2.19096 z m 12.771559,-4.09403 c 0.83462,-1.10556 1.211037,-2.48338 0.977257,-3.5771 -0.09843,-0.46047 -0.778719,-1.63809 -1.51176,-2.61692 -2.096609,-2.79961 -2.585795,-4.89543 -1.708865,-7.32128 0.931336,-2.576348 3.788397,-4.992475 8.158737,-6.899586 2.313442,-1.009531 5.336468,-1.967888 4.503952,-1.427839 -0.269132,0.174583 -1.742414,1.126339 -3.273965,2.115013 -3.481544,2.24747 -5.736529,4.440232 -6.151661,5.981922 -0.392546,1.45779 -0.08875,2.37386 1.648789,4.97169 1.624724,2.42916 1.892342,3.86884 1.032478,5.55432 -0.523957,1.02704 -2.747259,3.2524 -3.826391,3.82993 -0.437843,0.23433 -0.414216,0.13912 0.151429,-0.61015 z m -5.950519,-4.41687 c -3.536632,-3.642 -4.762632,-5.69396 -4.745217,-7.94206 0.01958,-2.5286 1.307742,-4.182862 6.523302,-8.377257 4.475861,-3.599526 5.729613,-4.930446 6.8498,-7.271405 0.736079,-1.538251 0.821185,-1.967099 0.806236,-4.062609 -0.01453,-2.035214 0.03043,-2.278385 0.342381,-1.852083 0.197504,0.269903 0.54655,1.135271 0.775663,1.92304 1.056662,3.63316 -0.943459,7.980242 -5.495255,11.943457 -5.142212,4.477287 -6.612988,6.454107 -6.619928,8.897637 -0.0051,1.78264 0.599861,3.27877 2.389211,5.90913 1.496745,2.20023 2.528218,3.96434 2.317946,3.96434 -0.05641,0 -1.471279,-1.40948 -3.144139,-3.13219 z"
         id="path910"
         inkscape:connector-curvature="0" />
      <path
         style="fill:#e66e00;stroke-width:0.26458332"
         d="m 85.305111,143.6908 c -0.455086,-0.51832 -0.824886,-1.02754 -0.82178,-1.13162 0.0031,-0.10408 0.478504,-0.52377 1.056439,-0.93263 0.577932,-0.40888 1.379061,-1.30184 1.780289,-1.98438 l 0.729498,-1.24097 0.07596,-12.50157 0.07596,-12.50156 h 1.986425 1.986426 l -0.07801,12.76615 c -0.08694,14.22673 -0.01577,13.65509 -1.969061,15.81714 -1.041479,1.15279 -2.435883,2.15754 -3.433087,2.47374 -0.43357,0.13748 -0.750306,-0.0368 -1.389063,-0.7643 z m 13.193776,-5.41283 c -1.200832,-0.35023 -2.294107,-1.0299 -2.732249,-1.69859 -0.746609,-1.13947 -1.025284,-2.98839 -0.692226,-4.59271 0.592537,-2.85424 3.282082,-4.48347 7.857958,-4.76007 2.67333,-0.1616 2.54947,-0.0609 2.47708,-2.01332 -0.0486,-1.3112 -0.39032,-1.92489 -1.3473,-2.41976 -1.08683,-0.56202 -4.094349,-0.5122 -6.062746,0.10044 l -1.606677,0.50005 -0.267504,-0.96307 c -0.14713,-0.5297 -0.268171,-1.09533 -0.268981,-1.25697 -0.0026,-0.51931 3.612764,-1.46324 6.160578,-1.60845 4.11836,-0.23471 6.38302,1.01629 7.04564,3.89202 0.15022,0.65193 0.27603,4.19165 0.27959,7.86605 l 0.006,6.68073 h -1.5875 -1.5875 v -0.79375 c 0,-0.43656 -0.0761,-0.79375 -0.16918,-0.79375 -0.093,0 -0.71812,0.33518 -1.38906,0.74485 -0.67094,0.40967 -1.45801,0.83841 -1.74906,0.95276 -0.7391,0.29039 -3.569048,0.39636 -4.367333,0.16354 z m 5.260613,-3.34958 c 0.8991,-0.44805 1.48711,-0.93948 1.65618,-1.38416 0.20015,-0.52642 0.1898,-2.70167 -0.0189,-3.97824 -0.009,-0.0572 -0.95122,-0.0399 -2.09304,0.0383 -3.25645,0.22321 -4.538548,1.16103 -4.538548,3.31984 0,0.9206 0.155406,1.30751 0.773399,1.9255 1.002129,1.00213 2.318609,1.02668 4.220919,0.0787 z m 28.54146,3.24661 c -0.69132,-0.19445 -1.5118,-0.58029 -1.82331,-0.85742 -1.47284,-1.31034 -1.96997,-4.31607 -1.04916,-6.34343 1.0425,-2.2953 3.51617,-3.50964 7.63513,-3.74814 l 2.4474,-0.14171 v -1.44561 c 0,-1.29126 -0.0961,-1.54168 -0.89959,-2.3452 -0.85517,-0.85517 -0.9929,-0.89959 -2.78989,-0.89959 -1.03967,0 -2.66322,0.19415 -3.60787,0.43144 -0.94466,0.23729 -1.76735,0.38165 -1.8282,0.3208 -0.0608,-0.0609 -0.1894,-0.60315 -0.28565,-1.20511 l -0.17501,-1.09446 1.81654,-0.57032 c 3.85241,-1.2095 8.03021,-0.9479 9.80938,0.61423 1.60804,1.41188 1.66445,1.74504 1.66445,9.8293 v 7.28454 h -1.44322 -1.44322 l -0.17667,-0.94173 -0.17667,-0.94174 -0.56621,0.53194 c -1.55278,1.45876 -4.83496,2.16163 -7.10823,1.52221 z m 4.74544,-2.83188 c 0.40965,-0.15397 1.13096,-0.54093 1.60291,-0.8599 0.8532,-0.57664 0.8581,-0.59259 0.8599,-2.80056 l 0.002,-2.22062 -2.11871,0.14522 c -2.768,0.18972 -3.96574,0.78828 -4.47722,2.23746 -0.91953,2.60526 1.36364,4.53866 4.13131,3.4984 z m -20.15478,2.34046 c -0.32137,-0.9059 -5.42644,-17.6406 -5.42644,-17.78818 0,-0.0933 0.91937,-0.13481 2.04305,-0.0923 l 2.04305,0.0773 1.78641,5.68854 c 0.98252,3.1287 1.92627,6.34339 2.09722,7.14375 l 0.31081,1.45521 0.37818,-0.90837 c 0.63694,-1.52987 2.16226,-7.3644 2.75062,-10.5215 l 0.55722,-2.98992 h 1.96621 1.96621 l -0.16682,0.99219 c -0.67884,4.03742 -2.7255,10.98022 -4.45728,15.12029 l -0.8414,2.01148 -2.44309,0.0761 c -1.80912,0.0564 -2.47444,-0.0123 -2.56395,-0.26458 z m -58.271545,-21.9425 c 0.83462,-1.10556 1.211037,-2.48338 0.977257,-3.5771 -0.09843,-0.46047 -0.778719,-1.63809 -1.51176,-2.61692 -2.096609,-2.79961 -2.585795,-4.89543 -1.708865,-7.32128 0.931336,-2.576348 3.788397,-4.992475 8.158737,-6.899586 2.313442,-1.009531 5.336468,-1.967888 4.503952,-1.427839 -0.269132,0.174583 -1.742414,1.126339 -3.273965,2.115013 -3.481544,2.24747 -5.736529,4.440232 -6.151661,5.981922 -0.392546,1.45779 -0.08875,2.37386 1.648789,4.97169 1.624724,2.42916 1.892342,3.86884 1.032478,5.55432 -0.523957,1.02704 -2.747259,3.2524 -3.826391,3.82993 -0.437843,0.23433 -0.414216,0.13912 0.151429,-0.61015 z m -5.950519,-4.41687 c -3.536632,-3.642 -4.762632,-5.69396 -4.745217,-7.94206 0.01958,-2.5286 1.307742,-4.182862 6.523302,-8.377257 4.475861,-3.599526 5.729613,-4.930446 6.8498,-7.271405 0.736079,-1.538251 0.821185,-1.967099 0.806236,-4.062609 -0.01453,-2.035214 0.03043,-2.278385 0.342381,-1.852083 0.197504,0.269903 0.54655,1.135271 0.775663,1.92304 1.056662,3.63316 -0.943459,7.980242 -5.495255,11.943457 -5.142212,4.477287 -6.612988,6.454107 -6.619928,8.897637 -0.0051,1.78264 0.599861,3.27877 2.389211,5.90913 1.496745,2.20023 2.528218,3.96434 2.317946,3.96434 -0.05641,0 -1.471279,-1.40948 -3.144139,-3.13219 z"
         id="path908"
         inkscape:connector-curvature="0" />
    </g>
  </g>
</svg>
