<?xml version="1.0" encoding="UTF-8" standalone="no"?>
<svg
   xmlns:dc="http://purl.org/dc/elements/1.1/"
   xmlns:cc="http://creativecommons.org/ns#"
   xmlns:rdf="http://www.w3.org/1999/02/22-rdf-syntax-ns#"
   xmlns:svg="http://www.w3.org/2000/svg"
   xmlns="http://www.w3.org/2000/svg"
   xmlns:sodipodi="http://sodipodi.sourceforge.net/DTD/sodipodi-0.dtd"
   xmlns:inkscape="http://www.inkscape.org/namespaces/inkscape"
   version="1.0"
   width="700.000000pt"
   height="700.000000pt"
   viewBox="0 0 700.000000 700.000000"
   preserveAspectRatio="xMidYMid meet"
   id="svg8"
   sodipodi:docname="safari-pinned-tab.svg"
   inkscape:version="0.92.4 (5da689c313, 2019-01-14)">
  <defs
     id="defs12" />
  <sodipodi:namedview
     pagecolor="#ffffff"
     bordercolor="#666666"
     borderopacity="1"
     objecttolerance="10"
     gridtolerance="10"
     guidetolerance="10"
     inkscape:pageopacity="0"
     inkscape:pageshadow="2"
     inkscape:window-width="1920"
     inkscape:window-height="1027"
     id="namedview10"
     showgrid="false"
     inkscape:zoom="0.715188"
     inkscape:cx="922.50564"
     inkscape:cy="598.79259"
     inkscape:window-x="-8"
     inkscape:window-y="-8"
     inkscape:window-maximized="1"
     inkscape:current-layer="svg8" />
  <metadata
     id="metadata2">
Created by potrace 1.11, written by Peter Selinger 2001-2013
<rdf:RDF>
  <cc:Work
     rdf:about="">
    <dc:format>image/svg+xml</dc:format>
    <dc:type
       rdf:resource="http://purl.org/dc/dcmitype/StillImage" />
  </cc:Work>
</rdf:RDF>
</metadata>
  <g
     transform="translate(0.000000,700.000000) scale(0.100000,-0.100000)"
     fill="#000000"
     stroke="none"
     id="g6">
    <path
       d="M3329 6906 c-2 -2 -47 -6 -99 -10 -53 -3 -120 -10 -150 -16 -30 -5 -71 -12 -90 -15 -368 -59 -690 -163 -1020 -331 -316 -160 -592 -365 -880 -654 -369 -370 -565 -670 -753 -1151 -82 -207 -164 -552 -181 -759 -3 -36 -9 -108 -13 -160 -15 -182 -7 -667 12 -740 2 -8 7 -35 10 -60 47 -346 160 -712 320 -1030 80 -161 115 -221 222 -380 120 -178 141 -207 233 -312 19 -23 43 -50 53 -62 67 -78 261 -266 352 -341 33 -28 62 -52 65 -55 10 -11 187 -138 250 -181 453 -304 1062 -512 1602 -546 526 -34 1009 43 1483 234 139 57 419 194 435 214 3 3 21 14 40 24 71 36 281 182 380 265 30 25 65 54 79 65 170 139 461 458 561 615 12 19 19 26 16 16 -5 -16 -4 -17 9 -6 19 16 106 152 104 164 0 5 3 12 8 15 27 18 152 269 221 442 91 228 176 505 206 674 3 17 8 41 11 55 2 13 7 42 10 65 3 22 10 67 15 100 20 136 25 221 25 440 0 294 -9 403 -56 660 -34 187 -129 512 -180 619 -11 22 -19 43 -19 48 0 20 -124 273 -193 393 -237 415 -489 723 -782 956 -55 44 -107 86 -115 92 -125 102 -506 305 -763 407 -174 69 -354 130 -383 130 -12 0 -25 4 -28 9 -3 4 -20 11 -38 14 -18 3 -87 17 -153 31 -66 14 -142 27 -170 31 -27 3 -63 7 -80 10 -88 13 -149 17 -351 20 -122 2 -223 2 -225 1z"
       id="path4" />
  </g>
  <path
     id="path1059"
     d="m 324.71804,4.2704195 c -13.20635,1.152239 -20.23546,2.139882 -20.12897,2.798305 0.0532,0.384082 -2.98203,0.987633 -7.88115,1.591194 -4.41985,0.493817 -10.11773,1.3717255 -12.6205,1.9204145 -12.99336,2.908039 -24.17613,5.761226 -32.05729,8.285191 -4.84583,1.536332 -11.18277,3.511609 -14.05831,4.444371 -24.76181,7.571906 -55.2747,22.770573 -79.50404,39.450698 -12.4608,8.614407 -31.15195,23.538734 -41.16319,32.921305 -11.44904,10.754282 -28.649175,28.422052 -35.092516,36.158562 -15.12335,18.10672 -28.329705,37.58515 -36.84983,54.59451 -4.100369,8.12058 -14.218101,30.89115 -17.253429,38.68251 -5.69788,14.86944 -12.354305,39.3958 -15.389634,56.51487 -2.662551,15.19868 -3.2483182,21.45373 -3.2483182,35.66474 0,13.49775 0.372778,17.77753 1.4378172,17.44832 1.011745,-0.38409 1.97029,-3.95057 4.153568,-15.25354 1.118239,-5.87097 2.289773,-11.96141 2.556057,-13.44286 0.425978,-2.1399 0.479272,-1.3717 0.212989,3.56645 -0.212989,3.45676 -0.372778,12.01631 -0.372778,19.0395 0,13.99156 0.319578,15.47302 2.396363,11.85166 0.90525,-1.48144 1.544311,-4.33461 2.449562,-10.31536 l 1.224733,-8.2303 -0.319484,10.47995 c -0.159788,7.07807 -0.0532,12.12603 0.372779,15.52791 0.692261,4.99305 0.692261,5.04789 1.384522,3.34697 0.532472,-1.262 1.8105,-12.45522 1.8105,-15.69246 0,-0.1096 0.372778,-0.21975 0.798756,-0.21975 1.331323,0 3.408107,-8.34007 6.70972,-26.9406 1.704005,-9.82154 3.834084,-21.06962 4.739335,-24.96531 1.863795,-8.01088 4.206863,-16.35093 4.526346,-16.02175 0.159788,0.1096 -0.106495,2.13995 -0.532473,4.49928 -0.958544,5.04794 -0.905344,4.71873 -0.266283,4.71873 0.319483,0 0.532472,-0.43893 0.532472,-0.98761 0.0532,-0.65847 0.266284,-0.49385 0.852051,0.60353 0.425978,0.82303 1.011745,1.37168 1.331228,1.20709 0.266284,-0.21974 1.331324,-2.03015 2.343068,-4.00541 1.065039,-2.19474 1.810595,-3.23727 1.863795,-2.57884 0,0.65839 0.212989,1.37175 0.479273,1.64603 0.266283,0.32926 0.266283,3.2373 0,6.58428 -0.585768,8.39494 0.213083,15.08893 1.7573,15.08893 0.692262,0 2.236574,-3.89568 5.751175,-14.70482 3.567801,-10.69944 3.78079,-11.19324 4.260063,-9.7118 0.266283,0.76818 0.798756,0.0547 2.130078,-3.07263 3.993779,-9.05338 15.17655,-31.43985 19.436612,-38.79228 5.378397,-9.38256 8.253937,-13.66234 22.738323,-33.6346 15.54931,-21.39883 22.31224,-29.84862 35.78478,-44.38887 6.65642,-7.18783 7.77466,-7.956 3.5146,-2.46911 -7.61497,9.93126 -11.39575,17.28368 -8.8397,17.28368 0.95854,0 6.60313,-4.49924 17.09363,-13.66233 31.57794,-27.6539 52.98493,-42.68797 80.2496,-56.240562 29.76743,-14.869454 60.06733,-23.48386 95.74562,-27.32468 8.9462,-0.932771 42.22823,-0.932771 51.12123,0 17.30663,1.865542 35.25222,5.322277 49.31063,9.437441 91.64525,26.776001 163.16164,97.392191 192.66287,190.230231 6.33685,20.02715 10.43722,40.93217 12.6737,64.63548 0.85205,9.3826 0.85205,37.42056 0,47.18722 -3.35472,37.64002 -13.04648,72.81096 -29.66084,107.54291 -21.99277,46.08984 -55.48779,85.48569 -97.44973,114.67585 -47.02085,32.64702 -99.633,49.32713 -161.08495,51.08294 -48.83135,1.42659 -95.05336,-9.5472 -142.18071,-33.7992 -7.50838,-3.84086 -5.64458,-2.08501 2.66255,2.52394 34.66656,19.25897 71.94246,30.67167 113.9576,34.89659 9.58517,0.93279 43.61275,0.93279 53.25121,0 72.26184,-7.2427 133.71379,-36.59751 184.9947,-88.44857 5.4849,-5.59663 12.4608,-13.00392 15.38964,-16.46067 7.29539,-8.5595 7.77467,-8.99847 3.78079,-3.29213 -0.95845,1.37174 -1.704,2.90809 -1.65081,3.40189 0.1597,1.26196 -11.98152,15.25355 -21.3004,24.63609 -20.71474,20.74044 -42.9205,37.69491 -67.25633,51.13781 -13.20635,7.29751 -37.54208,16.68008 -56.49952,21.72803 -23.0045,6.1453 -40.41772,8.61442 -70.23835,9.93125 -7.45518,0.32921 -15.54933,0.82303 -17.94569,1.15227 -10.80999,1.31682 -41.58917,-2.24965 -61.93113,-7.24269 -47.12734,-11.57734 -91.00628,-34.40278 -129.13415,-67.21433 -6.33694,-5.48689 -21.46028,-20.57583 -31.20524,-31.22037 -7.82796,-8.50469 -16.66765,-19.91741 -23.90975,-30.89116 -1.86389,-2.79834 -3.461402,-4.93819 -3.621095,-4.77361 -0.798851,0.82307 13.046465,20.19177 21.779665,30.50709 2.44956,2.90806 6.33695,7.517 8.62672,10.26048 5.85767,6.96836 22.89801,24.03256 30.45969,30.61684 30.67268,26.33698 64.48727,45.59595 101.97607,58.0512 10.96978,3.67621 27.58415,7.95599 38.07465,9.93125 4.10038,0.71329 8.67993,1.59122 10.11774,1.86553 1.59752,0.27434 2.07678,0.49383 1.22473,0.54871 -2.82224,0.10961 -20.55494,-3.29212 -31.20515,-6.0356 -20.50174,-5.2125 -40.9502,-12.83927 -59.48165,-22.22185 -45.31676,-22.93518 -82.11339,-54.26528 -111.45473,-95.03282 -3.08863,-4.2798 -5.697884,-7.68167 -5.857673,-7.51705 -0.319483,0.27431 3.621093,6.03558 9.425463,13.71721 26.41261,34.95145 59.21537,63.64783 96.17169,84.05907 46.96757,25.89809 100.64476,38.73738 155.75976,37.25593 7.18899,-0.16426 15.07005,-0.43894 17.57291,-0.60355 l 4.52635,-0.21975 -4.68614,0.76817 c -8.62662,1.37172 -21.83297,2.08502 -36.58354,2.08502 -33.01576,-0.0547 -57.88406,-4.06028 -86.26696,-13.88181 -25.98654,-8.99828 -55.54098,-24.36157 -77.74673,-40.38328 -53.94348,-38.90202 -94.733971,-93.33186 -115.501906,-154.01681 -3.461306,-10.2056 -4.473052,-9.71181 -1.171534,0.54865 16.561167,51.7962 49.25742,101.67201 91.21937,139.25715 2.28976,2.03012 4.15357,3.84079 4.15357,3.95051 0,0.16454 -1.38453,-0.87789 -3.03534,-2.35931 -18.79764,-16.24119 -35.25231,-34.12843 -49.94958,-54.26531 -12.034825,-16.46064 -20.395256,-30.72654 -32.0573,-54.5945 -4.526345,-9.21795 -8.573419,-17.11907 -8.999397,-17.55802 -0.639062,-0.6584 -0.745556,-0.6584 -0.745556,0.27433 0,1.31683 1.011745,4.7736 2.87554,9.82151 0.745556,2.03015 1.278028,3.95057 1.118334,4.22489 -0.905251,1.48145 15.975306,32.5921 26.412615,48.61381 18.797644,28.86098 44.305004,56.46003 72.102134,78.07836 7.77467,5.98071 22.31226,15.91196 30.88568,21.06961 8.73321,5.21254 9.79824,6.0356 3.72758,2.74347 -14.48429,-7.73651 -34.29377,-21.67321 -49.52361,-34.78687 -23.90985,-20.52093 -43.98552,-43.45609 -60.866174,-69.57366 -6.177152,-9.43746 -12.513999,-20.41121 -12.141221,-20.79532 0.425978,-0.43892 -2.875635,-6.91346 -4.206862,-8.12058 -0.585768,-0.60356 -1.91709,-3.07265 -2.875541,-5.48689 -0.958545,-2.4142 -3.035328,-6.85862 -4.57964,-9.87639 -5.697881,-10.97376 -14.058311,-34.89658 -18.637952,-53.16791 -5.857575,-23.48383 -8.78641,-43.34636 -9.851449,-67.5435 -0.745556,-16.0217 -0.90525,-17.22886 -0.958544,-7.40732 -0.266285,23.81311 4.260157,55.0883 11.875032,82.35816 8.786504,31.33007 22.365542,61.89203 39.459181,88.66801 2.769046,4.33463 4.899125,8.17548 4.739336,8.44981 -0.639062,0.98765 6.922614,11.63216 19.969174,28.14772 0.90535,1.15223 0.21309,0.76814 -2.12998,-1.262 -3.94058,-3.34696 -4.63293,-2.96293 -2.18337,1.20709 l 1.65081,2.85323 -2.44957,-2.74347 C 101.22271,564.42602 90.785494,550.81854 85.247309,542.80767 68.047174,517.89724 53.190108,488.76188 43.445153,460.77879 c -1.491017,-4.22493 -2.982034,-8.44982 -3.301612,-9.32771 l -0.585768,-1.64608 0.21299,1.92041 c 0.106494,1.04253 1.7041,6.25504 3.514601,11.52246 16.348085,47.13234 42.441216,89.7654 76.681776,125.15583 10.8632,11.19322 16.66757,16.57039 28.7556,26.55651 13.09985,10.80917 19.49,15.63765 30.35319,23.04492 45.95581,31.43984 97.44972,49.43679 152.93751,53.49711 11.50225,0.82303 34.93283,0.65844 46.80786,-0.3292 39.99166,-3.29213 79.50404,-14.37562 115.44862,-32.37261 30.72597,-15.36329 61.93112,-37.20109 84.56295,-59.14863 3.03532,-2.90802 5.59138,-5.26741 5.69787,-5.26741 0.90525,0 -1.97028,3.84079 -5.43169,7.18783 -21.2472,20.905 -52.50564,43.01715 -80.67556,57.00871 -44.94398,22.3865 -91.43237,33.52487 -142.5535,34.29305 C 303.95011,693.58727 254.69268,682.39402 207.61862,659.12963 159.63932,635.42665 118.10335,600.31058 85.72658,555.97657 49.835296,506.86898 28.108815,451.89039 20.919918,391.91873 c -1.544312,-13.05878 -2.715846,-20.85015 -3.195119,-21.1245 -1.597511,-0.98765 -0.85205,17.17393 1.331324,32.26287 8.253936,57.88664 30.672678,112.53598 64.913157,158.40639 33.86779,45.3765 79.18455,81.974 130.25247,105.23838 59.00238,26.88575 121.41278,35.50014 186.91181,25.84322 38.39414,-5.65147 79.9301,-20.19171 114.17058,-39.99939 42.65421,-24.5812 77.10777,-55.91131 107.24797,-97.39216 22.95121,-31.54961 41.58916,-71.05514 52.55895,-111.38376 8.25393,-30.39735 11.87494,-57.77685 12.72698,-96.29478 0.0532,-4.06032 0.10641,1.3717 0,12.07115 -0.0532,13.00388 -0.42597,22.33157 -0.95844,27.98308 -5.75118,57.22818 -22.09926,106.66503 -50.96154,154.12657 -3.19502,5.2674 -5.75107,9.6569 -5.59129,9.76666 0.37278,0.43895 3.88738,-4.44438 8.20065,-11.35787 26.14633,-42.19411 42.81399,-90.14948 49.31062,-141.56157 2.55616,-20.30148 3.46131,-51.02802 1.97039,-69.40912 -3.19512,-40.43836 -11.55555,-76.21279 -25.61386,-109.73765 -1.49112,-3.62132 -3.4614,-8.77901 -4.36665,-11.46758 C 651.62727,182.75873 631.23202,147.75242 608.81328,120.318 600.98532,110.77083 584.37096,93.596888 575.53125,86.07985 560.24821,73.021066 541.87645,59.742808 531.06646,53.981582 508.914,42.23965 500.021,37.959882 485.80299,32.253518 481.86232,30.662324 474.78002,27.754276 470.09388,25.83387 444.58651,15.134438 415.77763,8.1661015 383.02807,4.7642355 370.78035,3.5022525 337.01905,3.2279045 324.71804,4.2704195 Z M 229.3984,31.814573 c -36.47705,14.924318 -72.20864,37.036464 -100.37856,62.111525 -7.56168,6.748862 -21.3537,20.575812 -28.75568,28.861002 -4.845826,5.43201 -4.739331,4.99307 0.47928,-1.64606 13.8986,-17.66777 40.89699,-41.096759 66.88353,-57.996365 17.99889,-11.741931 42.60101,-24.745848 57.51127,-30.39734 4.79263,-1.810662 8.30723,-2.578837 4.26016,-0.932762 z m -43.34647,31.659319 c -0.37277,0.438949 -2.82233,2.139882 -5.53818,3.785945 -20.71474,12.729574 -45.68954,33.305393 -61.34536,50.424463 -5.69787,6.25504 -21.939555,22.38649 -19.756182,19.64304 0.798752,-1.0425 4.686042,-5.48688 8.573412,-9.87639 20.82123,-23.37412 44.94398,-43.78533 71.83586,-60.739799 3.51461,-2.194752 6.49664,-4.005425 6.60313,-4.005425 0.1598,0 -0.0532,0.32921 -0.37268,0.768166 z M 70.443537,176.00986 c 0,0.1096 -0.958546,1.86553 -2.130079,3.84084 -2.715846,4.55408 -7.295392,13.93666 -11.129476,22.82544 -1.650807,3.78595 -3.514602,7.40727 -4.100369,8.06571 -2.076784,2.30448 -13.898522,30.34245 -17.253429,40.987 -1.118239,3.67621 -2.129985,5.65151 -2.129985,4.27977 0,-2.085 7.455181,-23.15466 11.981528,-33.96377 5.378396,-12.83935 14.058311,-29.68408 22.418742,-43.73049 1.331323,-2.19476 2.343068,-3.23724 2.343068,-2.3045 z m -23.217593,52.23516 c -4.366557,10.75425 -11.60875,33.19564 -14.218006,44.05962 -1.970289,8.23034 -4.366652,21.72806 -6.177152,34.45767 -0.585767,4.00545 -1.278028,7.62674 -1.544311,7.95596 -0.266189,0.38408 -0.638967,1.15223 -0.798756,1.75582 -0.638966,2.24965 0.266283,-5.26745 2.076784,-17.33858 1.970289,-13.44281 4.473146,-24.6361 8.680008,-38.95686 3.94058,-13.60746 13.259556,-38.90201 13.738734,-37.42051 0.106495,0.32918 -0.692261,2.79827 -1.757301,5.48688 z M 18.63005,302.59228 c -0.159695,0.43893 -0.319483,0.27432 -0.319483,-0.32924 -0.0532,-0.60353 0.106494,-0.93276 0.266283,-0.71329 0.159695,0.16453 0.212989,0.65844 0.0532,1.04253 z m 6.816213,19.58818 c -0.212988,1.37173 -0.532566,2.19473 -0.639061,1.81064 -0.159694,-0.38408 -0.106495,-2.13986 0.159789,-3.84079 0.266189,-1.97528 0.479272,-2.63372 0.638967,-1.81069 0.106494,0.7133 0.0532,2.46909 -0.159695,3.84084 z M 141.58714,598.28045 c 31.73771,28.69639 68.74733,50.47931 108.84548,64.14163 18.85094,6.4197 40.31114,11.30301 62.46369,14.26592 7.45518,0.98763 10.49051,1.59119 16.61436,3.23727 3.03533,0.82304 -4.41984,0.32922 -15.49612,-1.04249 -71.72937,-8.94361 -137.70766,-42.0844 -186.85851,-93.88058 l -6.39014,-6.7489 7.24219,7.13296 c 3.94058,3.95056 10.06444,9.7118 13.57905,12.89419 z m 169.17909,62.33101 c -0.37277,0.10959 -1.11824,0.10959 -1.59752,0 -0.53256,-0.16427 -0.21298,-0.27433 0.63898,-0.27433 0.90533,0 1.27802,0.10959 0.95854,0.27433 z"
     inkscape:connector-curvature="0"
     style="fill:#ffffff;fill-opacity:1;stroke:#b4cacc;stroke-width:0.54540598;stroke-miterlimit:4;stroke-dasharray:none;stroke-opacity:1" />
  <g
     aria-label="m"
     transform="matrix(2.7925482,0,0,2.8773778,-25.001693,-116.98866)"
     style="font-style:normal;font-weight:normal;font-size:216.70637512px;line-height:1.25;font-family:sans-serif;letter-spacing:0px;word-spacing:0px;fill:#ffffff;fill-opacity:1;stroke:#0c295c;stroke-width:0.35106048;stroke-miterlimit:4;stroke-dasharray:none;stroke-opacity:1"
     id="text1083">
    <path
       inkscape:connector-curvature="0"
       d="m 221.4886,153.08832 q -0.43341,1.08353 0.21671,1.73365 -0.65012,1.08353 -1.95036,2.38377 0,0.43342 0.21671,0.65012 0.43341,0 0.65012,0 -0.43341,0.86683 -1.73365,2.16707 -1.30024,1.30023 -2.60048,3.90071 -0.43341,1.30024 -0.86682,1.30024 -0.86683,0.43341 -0.86683,0.86682 -0.21671,0.65012 -1.08353,1.73365 -0.86683,1.08354 -1.08353,1.73366 0,0 -0.21671,0.2167 -0.21671,0 -0.43341,0 l -0.43342,-0.2167 q 0,0.43341 -0.2167,0.86682 -0.21671,0.43341 -0.21671,0.65012 0,0.86683 0.65012,0.86683 0.86683,0 1.08353,0 -0.43341,0.43341 -0.43341,0.43341 -0.21671,0.21671 -0.65012,0.21671 -1.95036,0 -3.25059,1.95035 h 0.43341 q 0.86682,0 2.16706,-0.86682 0.65012,0 0.65012,0.86682 0,0 0,0.21671 0,0 -0.21671,0 -1.51694,1.51694 -1.73365,2.16706 -0.43341,0.65012 -0.86682,0.43342 -0.21671,0 -0.43341,0.43341 -0.21671,0.2167 0,0.65012 0.43341,1.30024 -0.86683,1.30024 l -1.08353,0.86682 q -0.21671,0.21671 -1.08353,1.73365 -0.65012,1.51695 -2.16707,2.16707 -0.65012,0.2167 -0.86682,1.08353 0,0.86682 -0.21671,1.30024 -0.21671,0 -0.86683,0 -0.65011,0 -1.30023,0.86682 -0.21671,0.43341 0,1.08353 0.2167,0.65012 0,1.08354 -0.21671,0 -0.86683,0.2167 -0.65012,0 -0.86682,0.86683 -0.21671,0.2167 -0.86683,0.43341 -0.65012,0.21671 -0.86683,0.21671 v 0.43341 q 0,1.51694 -1.08353,2.81718 -0.86682,1.30024 -1.30024,1.73365 -0.86682,-0.43341 -1.51694,-0.43341 -1.30024,0 -2.16706,1.08353 0.2167,0.43341 0.65012,0.65012 0.43341,0.21671 0.65011,0.43341 -0.43341,0.65012 -1.30023,0.86683 -0.65012,0.21671 -1.08354,0.43341 v 0.65012 q 0,1.30024 -1.51694,1.51695 l -0.21671,0.43341 q 0,1.51694 -1.30024,2.16706 -0.43341,0.43342 -0.43341,1.08353 0,0.65012 -0.2167,0.86683 -0.43342,0.21671 -0.65012,0 -0.21671,-0.43341 -0.43342,-0.43341 -0.65012,0 -1.08353,0.86682 0,0.65012 -0.43341,0.65012 -1.30024,0.21671 -2.38377,1.95036 -1.08353,1.51694 -1.73365,1.95036 -0.43341,0.2167 -1.08353,0.65012 -0.43342,0.43341 -1.51695,0.65011 -0.2167,0.86683 -1.95036,3.68401 -0.86682,0.86683 -1.73365,0.21671 0,-0.86683 0.21671,-1.51695 0.21671,-0.86682 0.43341,-1.73365 -0.86682,-0.43341 -1.30024,0.43342 -0.2167,0.65012 -0.43341,0.65012 -0.43341,-0.65012 -1.30024,-0.65012 0,-0.21671 0.21671,-0.43342 0.21671,-0.43341 0,-0.65012 -0.65012,-0.65011 -1.08353,0 -0.43342,0.43342 -0.43342,0.43342 -1.08353,1.51694 -2.16706,1.73365 l 0.21671,0.2167 v 0.21671 l -0.21671,0.21671 -0.21671,0.2167 -0.2167,0.21671 q 0,0 -0.21671,0.21671 0,0.2167 -0.2167,0 v -0.21671 -0.21671 q 0,0 0,0 0,-0.2167 0.2167,-0.2167 v -0.21671 l 0.21671,-0.65012 q -0.65012,-0.65012 -1.73365,0 -0.21671,0.21671 0,0.43341 0.2167,0.21671 0.2167,0.43342 -0.43341,0.43341 -0.86682,0 -0.21671,-0.43342 -0.43341,-0.65012 -2.81719,1.08353 -5.20096,0.86682 -0.2167,0.43342 0.43342,0.65012 0.86682,0 0.86682,0.21671 h -0.43341 q -1.30024,0 -2.38377,-0.43341 -0.86683,-0.65012 -1.30024,-0.86683 0.65012,0 0.86683,-0.21671 0.2167,0 0.65011,-0.43341 l 0.43342,-0.65012 q -0.21671,-0.2167 -0.86683,-0.2167 -0.43341,0 -1.51694,0.43341 -0.86683,0.21671 -1.51695,0 0,-0.21671 -0.43341,-1.08353 -0.21671,-0.86683 -1.08353,-0.43342 -0.21671,0.21671 -0.43342,0 -0.2167,-0.2167 -0.2167,-0.2167 -0.21671,-0.86683 -1.08353,-1.73365 -0.86683,-1.08353 -1.30024,-1.95036 v -0.86683 q 0,-0.86682 -0.43341,-1.30023 -0.43342,-0.43342 -1.73366,-0.65012 0,-1.30024 -1.08353,-2.16707 -0.86682,-1.08353 -0.86682,-3.90071 0.2167,-1.73365 0.43341,-3.4673 0.21671,-1.73365 0.43341,-3.46731 l 1.73365,-12.35226 1.95036,-9.31837 q 0.43341,-0.86683 1.51695,-5.63437 0.43341,-0.65012 -0.43342,-1.51694 0.21671,-0.43342 0.65012,-0.86683 0.65012,-0.65012 0.43341,-1.30024 l -0.2167,-0.43341 q -0.43341,0 -1.08353,0.65012 -0.65012,0.65012 -1.08354,0.86682 l -0.2167,-0.86682 q -0.43341,0.21671 -0.86683,0.65012 -0.2167,0.43341 0.65012,0.65012 0,0 0,-0.21671 0,-0.21671 0.21671,0 v 0.65012 q -0.65012,1.08353 -1.95036,2.81718 -1.30024,1.51695 -1.73365,2.81719 0,0.2167 -0.65012,0.2167 -0.43341,0 -0.43341,0.65012 0,0.21671 0.2167,0 0.21671,-0.2167 0.43342,0 v 0.21671 q -0.21671,0.43341 -0.65012,0.86682 -0.21671,0.43342 -0.43341,0.86683 -0.21671,0.65012 -1.08354,0.65012 0.43342,0 0,0.43341 -0.2167,0.65012 0,1.08353 0.43342,0.21671 1.08354,0.21671 0,0.21671 -0.43342,1.08353 -0.43341,0.65012 0.43342,1.30024 -0.86683,0.21671 -1.08354,0.21671 -1.30023,-0.65012 -1.73365,-0.65012 -0.43341,0 -1.73365,1.30023 0.65012,0.65012 0.65012,1.73366 0,0.86682 -0.86682,1.73365 -0.21671,0.43341 -0.21671,1.30023 0.21671,0 0.21671,0.43342 v 0.2167 h -0.43342 q -1.08353,-0.43341 -1.30024,0.43342 l -1.30023,2.16706 -1.08354,2.16706 q 0,0.43342 0.65012,0.65012 0.65012,0.21671 0.65012,0.43342 0,1.30023 -1.08353,1.30023 -0.65012,0.21671 -1.30024,0.86683 -0.43341,0.65012 -0.65012,0.86683 -0.43341,0.43341 -0.43341,0.86682 0,0.21671 0.65012,0.65012 1.08353,1.08353 0,1.73365 -0.43341,0.43341 -0.86683,1.73365 -0.2167,1.30024 -0.86682,1.73365 -0.21671,0.21671 0.2167,0.65012 l 0.21671,0.86683 q 0,0.65012 -0.43341,1.51694 -0.21671,0.86683 -0.43341,1.51695 0,0.2167 -0.86683,0.2167 l 0.21671,1.08354 q 0,1.30023 -0.86683,3.4673 -0.21671,0.43341 0,1.08353 -0.43341,-0.21671 -0.86682,-0.21671 -0.43342,0 -0.65012,0.65012 -0.65012,0.65012 -0.65012,1.08353 l -0.21671,0.86683 q 0,1.51694 2.38377,1.30024 -1.73365,2.16706 -3.68401,2.38377 -0.43341,0.2167 -0.65012,-0.21671 -0.2167,-0.43341 -0.43341,-0.65012 0.43341,-0.2167 1.30024,-0.65012 1.08353,-0.43341 1.08353,-1.51694 -1.30024,-0.65012 -2.16706,-0.65012 -1.08353,0 -1.95036,0.21671 -0.65012,0.2167 -1.30024,0.43341 -0.21671,-0.21671 0,-0.65012 0.43341,-0.43341 0.21671,-0.86683 -0.21671,0 -0.86683,0 -0.65012,0 -1.08353,0.86683 0,0.21671 -0.21671,0.65012 -0.2167,0.43341 0.65012,0.86682 -0.2167,0.43342 -0.65012,0.65012 -0.43341,0.21671 -0.65012,0.65012 0.21671,0 0.65012,0.43341 0,0.21671 -0.43341,0.21671 -1.51694,0.43341 -2.16706,1.30024 0,0.21671 -0.21671,0.43341 0,0.21671 -0.21671,0 h -0.43341 q -0.65012,0 -1.95036,0.43341 -1.08353,0.43342 -1.73365,0.21671 h -0.65012 q -0.2167,0 -1.73365,0.86683 -0.2167,-0.43342 -2.16706,-1.08354 -1.73365,-0.43341 -3.03389,-1.51694 -1.08353,-1.08353 -1.51694,-1.51694 -0.43342,-0.21671 -0.86683,-0.65012 -0.43341,-0.65012 -0.86683,-0.65012 0,0 -0.65011,-0.65012 0,-0.43341 -0.86683,-1.30024 -0.650119,-1.08353 -0.433413,-1.95036 l -0.433412,-0.43341 q -0.866826,-0.65012 -1.083532,-1.51694 0,-1.08354 -0.650119,-1.30024 -0.216707,-0.43342 -0.433413,-0.86683 0,-0.65012 -0.216706,-1.08353 -0.433413,-0.86683 -0.433413,-2.60048 0,-1.73365 0.866825,-5.20095 1.083532,-4.11742 1.516945,-9.31837 0.433413,-5.63437 0.866825,-8.45155 l 0.433413,-3.90072 q 0.43341,-1.73365 0.43341,-5.63436 v -0.65012 q 0,-1.73365 -1.300235,-2.16707 -0.216707,0 -0.216707,-0.2167 0.216707,-0.43342 0,-0.65012 -0.650119,0.2167 -1.083532,1.08353 -0.866825,1.30024 -1.733651,2.81718 -0.650119,1.30024 -1.516944,2.60048 -0.433413,0.21671 -0.433413,1.08353 0,1.73365 -1.300238,2.16707 l -0.433413,0.86682 q -0.650119,1.08353 -1.300238,1.51695 -0.650119,0.43341 -1.516945,0.65011 -0.433413,1.30024 -0.433413,1.95036 0.433413,1.08353 -0.650119,1.30024 -0.866825,0.21671 -1.300238,0.86683 -0.216706,0.65011 0,1.30023 v 0.43342 q 0,0.65012 -0.433413,1.30023 -0.216706,0.65012 -0.216706,1.30024 -0.216706,0.21671 -0.433413,0.86683 -0.216706,0.43341 -0.216706,1.08353 0,0.43341 -0.433413,0.43341 l -0.866825,0.43342 -0.433413,2.16706 q -1.300238,-0.86683 -1.950358,-0.43341 -0.216706,0.43341 0,0.65012 0.216707,0.2167 0.433413,0.43341 -0.216706,0.43341 -0.433413,0.86682 -0.216706,0.21671 -0.216706,0.86683 0,0.43341 -0.433413,0.86683 -0.433412,0.2167 -0.650119,0.43341 -0.650119,0.86682 -1.083532,2.38377 -0.433412,1.51694 -0.866825,2.16706 -0.216707,0.21671 -0.216707,0.65012 0.216707,0.21671 0,0.21671 -1.516944,0.86682 -1.950357,2.60047 -0.433413,1.51695 -0.433413,1.95036 -0.866825,2.81718 -1.733651,3.68401 -0.216706,0.43341 0,0.86683 0.433413,0.2167 0.433413,0.43341 -0.216706,0.43341 -0.650119,0.65012 -0.216706,0.2167 -0.433413,0.65012 0,0.2167 0.216707,0.65012 0.216706,0.43341 -0.216707,0.86682 -1.300238,0.86683 -3.033889,0.21671 -0.216706,1.08353 -1.300238,1.73365 -0.866826,0.65012 -1.516945,1.08353 -0.216706,0.21671 -0.650119,0.43341 -0.216706,0 -0.433413,0.21671 0,0.21671 -0.650119,0.43341 -0.433413,0.21671 -0.650119,0.65012 -0.216706,0.21671 -0.650119,0 -0.216707,-0.21671 -0.216707,-0.43341 -0.216706,-0.21671 -0.866825,-0.21671 0.216706,-0.86682 1.083532,-0.86682 1.083532,0 1.516944,0 -0.433412,-0.43342 -0.433412,-1.08354 0,-0.2167 0,-0.86682 0.216706,-0.65012 -0.216707,-1.08353 -0.433412,0.2167 -0.650119,0.65012 0,0.2167 0,0.65012 -0.216706,0.2167 -1.083532,0.65011 -0.650119,0.21671 -1.516944,0.21671 0,0.65012 -0.216707,1.08353 -0.216706,0.43342 -1.083532,0.65012 -0.650119,-0.86682 -2.38377,-0.43341 -1.083532,0 -1.733651,-0.43341 -1.300238,-1.30024 -3.033889,-2.16707 -1.516945,-1.08353 -2.600476,-3.4673 -2.167064,-3.25059 -4.117422,-5.20095 -1.083531,-1.08353 -1.300238,-2.38377 -0.433413,-1.51695 0.216707,-2.60048 2.600476,-4.98425 4.76754,-11.70214 l 3.900715,-13.6525 q 2.38377,-7.36802 3.684008,-12.78568 0.650119,-1.95036 1.516945,-6.28449 l 1.300238,-4.98424 q 1.516944,-6.50119 4.334127,-13.4358 1.083532,-3.03389 1.300239,-6.06778 0.216706,-2.38377 1.516944,-4.76754 1.733651,-3.25059 3.033889,-10.83532 0.216707,-0.65011 0.433413,-1.30023 0.433413,-0.86683 0.650119,-1.51695 0,-0.2167 0.216707,-0.43341 0.216706,-0.21671 0.433412,-0.21671 0.65012,-0.2167 1.733651,-0.65012 1.083532,-0.65012 2.167064,-0.65012 1.300238,0 2.817183,-0.2167 1.733651,-0.43341 2.817183,-0.21671 0.650119,0 1.516945,-0.43341 1.083531,-0.43341 1.733651,-0.21671 0.216706,0 0.650119,0 0.650119,-0.2167 0.866825,0 2.167064,1.51695 4.117421,0.43342 0,0 1.300239,1.95035 1.083531,1.08353 1.083531,3.03389 0,1.51695 0.433413,2.38377 0.433413,0.43342 0,1.08353 -0.433413,0.43342 -0.650119,1.08354 0,0.65012 -0.216706,1.08353 -0.433413,0.86682 0.216706,2.16706 -1.516945,0.86683 -1.300238,1.95036 0.216706,0.21671 0,0.86682 -0.216707,0.43342 -0.433413,0.65012 0,0 -0.650119,0.43342 -0.433413,0.43341 0,1.30023 0.216706,0.21671 -0.433413,0.43342 -0.433413,0.2167 -0.433413,0.65012 0.433413,0.2167 1.083532,0.2167 -0.216706,0.21671 -0.866825,0.86683 -0.650119,0.65012 -0.433413,1.73365 0,0.43341 -0.650119,1.08353 -0.650119,0.43341 0,1.30024 -0.216706,0 -0.866826,0 -0.650119,0 -0.650119,0.65012 -0.216706,0.43341 0,0.86682 0.433413,0.21671 0.433413,0.65012 -0.216706,0.21671 -0.650119,1.08354 -0.216706,0.65011 -0.866826,0.86682 1.083532,2.16706 1.083532,2.81718 -0.216706,0.65012 -1.083532,1.30024 -0.650119,0.65012 -1.083531,1.08353 1.950357,0.65012 2.38377,-0.65012 1.083532,-2.16706 2.600476,-2.38377 0.216707,0 0.433413,-0.2167 0.433413,-0.43341 0.433413,-0.65012 l 4.984246,-7.58472 q 1.300239,-1.73366 2.167064,-2.38377 1.516949,-1.08354 2.167059,-2.81719 1.51695,-1.95035 4.55084,-4.98424 2.16706,-1.95036 6.06778,-6.28449 2.16706,-2.16706 4.11742,-3.25059 1.95036,-1.30024 4.55083,-1.08354 h 0.65012 q 1.08353,-0.43341 3.4673,-0.43341 2.60048,0 3.68401,0.21671 0.43341,0 1.30024,0 0.86683,-0.21671 1.51694,0 0.86683,0 1.08354,0.65012 0.86682,0.86682 2.38377,1.08353 0.2167,0.2167 0.2167,1.08353 0.21671,0.65012 0.65012,0.86683 0.43341,0 0.43341,0.65011 l -0.2167,0.86683 q 0,0.86683 0.2167,1.95036 0.43342,1.08353 0.65012,1.95036 0,0.2167 0,1.08353 0,0.65012 -0.65012,1.08353 -0.65011,0.86682 -0.2167,2.38377 0.65012,1.30024 0,1.95036 -0.21671,0.43341 -0.43341,1.08353 0,0.43341 0.2167,0.65012 1.30024,1.08353 0,2.38377 -0.43341,0.86682 -0.43341,2.16706 0.43341,-0.43341 0.65012,-0.43341 v 0.65012 q 0,0.65012 -0.21671,1.73365 -0.2167,0.86682 0,1.73365 0,0.21671 -0.43341,0.21671 -0.43341,-0.21671 -0.65012,0 -0.21671,0.43341 0.21671,0.65012 0.65012,0.2167 0.65012,0.65011 -0.65012,0.65012 -1.30024,1.73366 -0.43342,0.86682 -0.65012,1.30023 l 1.51694,1.08354 q 0.65012,-0.65012 2.16707,-1.73366 1.73365,-1.30023 2.81718,-2.60047 1.08353,-1.51695 3.68401,-4.55084 l 0.65012,-0.86682 q 3.4673,-3.2506 6.06778,-6.28449 0.65011,-1.08353 1.95035,-2.16706 l 4.11742,-4.33413 q 0.65012,-0.86682 2.38377,-2.16706 1.30024,-1.08353 3.03389,-2.81718 1.73365,-1.95036 3.2506,-3.03389 0.86682,-0.86683 1.51694,-2.16707 2.16707,-1.73365 3.46731,-1.95035 0.65011,-0.21671 1.73365,-0.65012 1.08353,-0.65012 2.16706,-0.65012 1.51695,-0.21671 4.33413,-0.43342 3.03389,-0.43341 4.98424,-0.2167 0.65012,0.2167 1.51695,0.2167 h 0.86682 q 2.38377,0 2.81719,2.16707 l -1.30024,0.2167 0.21671,0.86683 -0.21671,1.08353 v 0.65012 q 1.51694,-0.86682 1.95036,-2.81718 0.65012,0.2167 1.08353,0.65012 0.65012,0.2167 1.08353,0.43341 0,0.65012 -0.43341,1.30024 -0.21671,0.65012 0.43341,1.08353 -0.21671,0.43341 -0.86682,0.86683 -0.65012,0.2167 -0.65012,0.65011 h 0.43341 q 0.43341,0 0.86682,-0.2167 0.65012,-0.43341 1.08354,-0.21671 0,0.43341 -0.65012,0.65012 -0.43342,0.21671 -0.65012,0.65012 0,0.43341 0.2167,0.86683 0.43342,0.43341 0.86683,0.2167 -0.65012,0.86683 -0.65012,1.51695 0,0.2167 1.30024,1.30024 0.21671,0.2167 0,0.65011 -0.21671,0.43342 -0.21671,0.65012 -1.08353,2.38377 -0.86682,4.33413 l 0.2167,0.43341 q -0.86682,0.86683 -0.86682,2.38377 0,0.21671 0,1.08354 0,0.65011 -0.43341,1.30023 -0.43342,0.43342 -0.21671,0.86683 0.21671,0.21671 0.21671,0.65012 0,0.86682 -0.86683,1.73365 0,0.21671 0.21671,0.65012 0.2167,0.2167 0.65012,0 -0.21671,0.2167 -0.21671,0.65012 0,0.2167 -0.21671,0.43341 -0.65012,1.30024 -0.86682,3.03389 -0.21671,1.73365 -0.21671,2.16706 -1.30024,0.21671 -1.73365,0.65012 -0.43341,0.43342 -1.30024,1.95036 0.86683,0.86683 1.30024,-0.21671 0.21671,0 0.43341,-0.2167 0.43341,-0.21671 0.86683,0 -0.21671,0.43341 -0.65012,0.86682 -0.43341,0.43342 -0.86683,1.30024 0.21671,0.21671 1.08353,0.21671 l -0.2167,1.08353 q 0,0.43341 -0.43341,0.86682 -0.43342,0.43342 0.2167,0.86683 0,0.21671 -0.43341,0.86683 -0.21671,0.43341 -0.65012,0.65011 -0.86683,0 -0.86683,0.65012 0.21671,0.21671 0.65012,0.21671 0.65012,-0.21671 0.86683,0 v 0.43341 q 0,1.30024 -0.86683,1.73365 -1.08353,0.65012 -1.08353,1.08354 0,0.2167 1.08353,1.30023 -0.65012,0.65012 -0.65012,0.86683 0.21671,0.21671 1.08354,0.43341 0,3.4673 -1.51695,6.28449 -2.60047,5.41766 -2.60047,11.26873 0,1.30024 0.43341,4.33413 v 0.86682 q 0,1.08353 -0.65012,1.73365 -1.08353,0.65012 -1.30024,1.73365 1.30024,-0.43341 4.33413,-3.03389 0.2167,0 0.65012,0.21671 0.65012,0.21671 1.08353,-0.21671 1.51694,-1.95035 4.33413,-4.11742 3.03389,-2.16706 4.33412,-3.25059 0.86683,-0.86683 1.95036,-1.08353 0.21671,0 1.08353,-0.86683 0.86683,-1.08353 1.95036,-1.95036 1.30024,-1.08353 1.95036,-1.51694 7.80143,-6.50119 7.80143,-6.50119 l 3.68401,-2.60048 7.36801,-5.20095 q 0,0.65012 -0.43341,1.08353 -0.21671,0.43341 -0.21671,1.08353 z m -71.94651,12.13556 q 0.2167,0.43341 0,1.30024 -0.21671,0.65012 -0.21671,0.86682 -0.21671,0 -0.65012,0.21671 -0.2167,0 -0.65012,-0.21671 0.65012,-1.30024 1.51695,-2.16706 z m -50.709294,4.98425 q -1.733651,1.08353 -1.300239,2.81718 h -0.866825 q -0.433413,-1.30024 -0.216707,-1.51695 0.216707,-0.86682 0.65012,-1.08353 0.433412,-0.43341 1.733651,-0.2167 z m 42.041034,3.25059 q 0.65012,0.21671 0.86683,0 0.2167,-0.43341 0.43341,-0.65012 -0.86682,-0.2167 -1.08353,0.21671 0,0.2167 -0.21671,0.43341 z m -45.508336,-0.43341 q 0.650119,1.30024 1.733651,1.51694 -0.866826,0.86683 -1.516945,1.73365 -0.433413,0.86683 -0.433413,1.95036 -0.433413,0.21671 -0.650119,0 -0.216706,-0.21671 -0.433413,-0.21671 0.866826,-0.65011 0.650119,-1.30023 0,-0.86683 -0.433412,-1.51695 1.083532,-1.73365 1.083532,-2.16706 z m -5.634366,8.45155 q 0.866825,0.2167 0.433413,1.30023 -0.433413,-0.2167 -0.65012,-0.43341 -0.216706,-0.43341 0.216707,-0.86682 z m -0.216707,1.73365 q 0,-0.21671 0,-0.21671 0.216707,0 0.216707,0 h 0.216706 v 0.21671 q -0.216706,0 -0.216706,0.2167 0,0 0,0 z m 46.591869,5.41766 0.21671,0.2167 h -0.21671 z m 24.92124,29.03865 q 0.2167,-0.65012 0.65011,-0.86682 0.43342,-0.21671 0.43342,-0.21671 0.2167,-0.21671 0.65012,-0.21671 0.43341,-0.2167 0.86682,-0.43341 0,0.43341 -0.43341,1.08353 -0.21671,0.43341 -0.21671,0.86683 z m 4.11742,0.43341 q -0.65012,-1.08353 -0.21671,-1.51694 0.65012,-0.43341 0.86683,-0.43341 v 0.2167 q 0,0.65012 -0.65012,1.73365 z m -46.37517,0.21671 q 0.21671,-0.86683 0.65012,-0.65012 0.65012,0.21671 0.86683,0.21671 -0.21671,0 -0.65012,0.43341 -0.43342,0.21671 -0.86683,0 z"
       style="font-style:normal;font-variant:normal;font-weight:normal;font-stretch:normal;font-family:Milestone;-inkscape-font-specification:Milestone;fill:#ffffff;fill-opacity:1;stroke:#0c295c;stroke-width:0.35106048;stroke-miterlimit:4;stroke-dasharray:none;stroke-opacity:1"
       id="path1692" />
  </g>
</svg>
