<?xml version="1.0" standalone="no"?>
<!DOCTYPE svg PUBLIC "-//W3C//DTD SVG 20010904//EN"
 "http://www.w3.org/TR/2001/REC-SVG-20010904/DTD/svg10.dtd">
<svg version="1.0" xmlns="http://www.w3.org/2000/svg"
 width="700.000000pt" height="700.000000pt" viewBox="0 0 700.000000 700.000000"
 preserveAspectRatio="xMidYMid meet">
<metadata>
Created by potrace 1.11, written by Peter Selinger 2001-2013
</metadata>
<g transform="translate(0.000000,700.000000) scale(0.100000,-0.100000)"
fill="#000000" stroke="none">
<path d="M3185 6929 c-454 -47 -830 -157 -1230 -358 -352 -178 -633 -386 -945
-700 -323 -325 -473 -536 -644 -908 -95 -205 -134 -311 -185 -498 -76 -274
-92 -385 -101 -700 -14 -470 13 -768 100 -1115 314 -1243 1307 -2218 2550
-2503 299 -69 533 -92 855 -84 432 11 792 84 1185 242 608 243 1148 670 1525
1205 52 73 61 83 36 36 -26 -49 -17 -61 15 -21 35 43 165 266 217 370 182 367
301 779 348 1215 16 152 17 576 1 715 -47 410 -127 708 -292 1095 -190 444
-395 753 -705 1065 -311 312 -647 518 -1195 732 -295 116 -573 181 -899 213
-120 12 -520 11 -636 -1z m755 -654 c830 -127 1543 -593 1986 -1298 216 -344
350 -709 415 -1137 30 -192 32 -570 5 -755 -128 -884 -584 -1620 -1296 -2092
-428 -284 -882 -433 -1445 -474 -497 -36 -988 60 -1464 287 -74 35 -136 64
-139 64 -2 0 -2 -7 1 -15 7 -17 -128 64 -247 149 -270 194 -590 517 -754 763
-42 62 -59 79 -68 70 -6 -5 15 -47 43 -86 12 -17 14 -23 4 -20 -37 13 -241
386 -316 579 -20 52 -46 119 -57 147 -11 29 -24 53 -29 53 -20 0 -12 -28 75
-275 4 -11 -2 -3 -14 17 -27 49 -44 49 -37 1 3 -21 8 -47 11 -58 4 -11 -3 0
-14 25 -29 62 -95 254 -131 379 l-29 104 0 754 c0 479 4 753 10 753 5 0 16 12
24 28 14 25 15 21 16 -74 0 -76 4 -105 14 -113 18 -15 32 10 71 129 15 47 35
94 45 105 9 11 53 94 98 185 45 91 105 206 135 255 87 148 376 536 486 655 39
42 41 43 26 13 -30 -63 -12 -82 41 -41 16 12 83 68 149 123 338 285 507 402
770 534 285 142 605 239 895 271 52 5 111 12 130 14 80 10 490 -4 590 -19z
m-3511 -2777 c-1 -398 -5 -709 -9 -693 -12 47 -12 1415 0 1415 7 0 10 -247 9
-722z m-30 50 c-1 -352 -5 -596 -10 -573 -4 22 -8 281 -8 575 -1 476 3 610 15
610 2 0 3 -276 3 -612z m0 -895 c1 -83 -3 -133 -9 -133 -6 0 -10 60 -9 163 1
96 4 150 9 132 4 -16 8 -90 9 -162z m29 -108 c0 -70 -3 -103 -8 -90 -5 11 -8
72 -8 135 0 72 3 106 8 90 4 -14 8 -74 8 -135z m146 -338 c53 -129 159 -336
236 -463 37 -61 75 -127 84 -145 9 -19 48 -77 86 -128 39 -51 70 -95 70 -97 0
-40 -166 171 -291 371 -85 135 -222 404 -278 547 -38 98 -41 114 -41 200 l1
93 48 -145 c27 -80 65 -184 85 -233z m-175 173 c0 -39 -2 -51 -9 -40 -5 8 -9
44 -9 80 1 80 17 45 18 -40z m31 -80 c0 -39 -3 -51 -10 -40 -5 8 -10 40 -10
70 0 39 3 51 10 40 5 -8 10 -40 10 -70z m186 -380 c170 -322 363 -579 640
-850 279 -273 559 -474 894 -642 96 -49 171 -88 168 -88 -4 0 -61 24 -126 54
-721 322 -1302 888 -1660 1616 -74 150 -87 184 -90 235 l-3 60 58 -135 c33
-75 86 -187 119 -250z m-217 205 c1 -23 -2 -26 -9 -15 -5 8 -9 31 -9 50 0 29
2 31 9 15 5 -11 9 -33 9 -50z m30 -70 c0 -26 -2 -27 -9 -10 -5 11 -9 31 -9 45
-1 20 1 22 9 10 5 -8 9 -28 9 -45z m223 -400 c128 -205 262 -377 447 -570
l134 -140 -139 140 c-163 164 -308 342 -428 523 -108 163 -226 379 -226 412 0
16 28 -27 78 -125 43 -82 104 -191 134 -240z m5050 -242 c-222 -250 -525 -496
-792 -641 -245 -134 -708 -276 -965 -296 -61 -5 -56 -3 40 14 419 77 784 217
1110 428 189 121 329 236 520 424 77 76 142 138 144 138 1 0 -24 -30 -57 -67z
m-3363 -808 c241 -102 569 -184 851 -213 76 -8 79 -9 30 -11 -74 -1 -261 22
-384 49 -168 37 -455 135 -562 193 -47 26 -24 19 65 -18z m306 -35 c13 -5 14
-9 5 -9 -8 0 -24 4 -35 9 -13 5 -14 9 -5 9 8 0 24 -4 35 -9z m70 -20 c13 -5
14 -9 5 -9 -8 0 -24 4 -35 9 -13 5 -14 9 -5 9 8 0 24 -4 35 -9z m170 -39 c162
-32 309 -51 480 -60 l160 -8 -125 -2 c-69 0 -182 6 -250 14 -137 17 -353 58
-391 75 l-24 10 25 -4 c14 -3 70 -14 125 -25z m958 -48 c-7 -2 -21 -2 -30 0
-10 3 -4 5 12 5 17 0 24 -2 18 -5z m-140 -10 c-7 -2 -21 -2 -30 0 -10 3 -4 5
12 5 17 0 24 -2 18 -5z m-220 -80 c-34 -2 -93 -2 -130 0 -37 2 -9 3 62 3 72 0
102 -1 68 -3z m-1123 -43 c8 -5 11 -10 5 -10 -5 0 -17 5 -25 10 -8 5 -10 10
-5 10 6 0 17 -5 25 -10z"/>
<path d="M4635 5029 c-44 -5 -105 -19 -135 -30 -69 -25 -140 -66 -140 -81 0
-10 -44 -55 -274 -278 -54 -52 -124 -126 -156 -165 -32 -38 -75 -86 -95 -105
-20 -19 -72 -78 -116 -131 -89 -110 -179 -193 -192 -180 -6 6 0 25 14 48 20
32 24 52 26 128 1 50 6 101 11 115 10 26 5 57 -9 66 -5 3 -4 14 2 25 6 12 8
40 4 68 -5 37 -3 50 9 60 19 16 20 48 5 88 -6 15 -11 49 -10 75 0 26 -5 50
-10 54 -6 3 -14 17 -19 30 -5 13 -21 29 -36 34 -14 6 -32 16 -39 24 -19 18
-209 29 -314 16 -86 -10 -141 -31 -196 -77 -61 -52 -327 -339 -345 -374 -10
-20 -30 -43 -44 -53 -14 -9 -67 -78 -117 -154 -50 -75 -96 -139 -102 -141 -7
-2 -19 -10 -28 -17 -13 -12 -17 -9 -28 21 -10 29 -10 38 5 60 10 15 14 34 10
50 -6 22 -3 25 19 25 27 0 32 9 15 26 -8 8 -6 15 5 24 8 7 15 24 15 38 0 14
12 38 27 54 15 15 22 28 16 28 -20 0 -21 38 -2 56 10 9 19 30 19 46 0 16 6 31
14 34 9 4 13 21 13 54 0 27 5 55 12 64 23 27 -1 156 -39 216 -30 47 -34 50
-65 44 -20 -3 -43 0 -61 9 -16 8 -41 13 -54 11 -14 -2 -79 -11 -145 -19 -66
-9 -144 -23 -174 -33 -47 -15 -57 -22 -72 -57 -10 -22 -27 -84 -39 -138 -23
-105 -48 -185 -75 -237 -9 -18 -24 -74 -32 -124 -8 -50 -26 -122 -40 -161 -49
-136 -80 -242 -122 -410 -66 -267 -113 -440 -194 -722 -84 -291 -110 -366
-169 -498 -44 -98 -47 -147 -11 -191 53 -65 121 -158 144 -197 36 -60 157
-142 197 -134 16 3 34 1 40 -5 15 -15 62 6 62 27 0 8 4 15 9 15 5 0 7 -9 4
-20 -6 -22 20 -49 45 -50 8 0 50 27 94 60 43 33 88 60 99 60 37 0 59 19 59 50
0 16 5 32 11 36 6 3 9 14 6 24 -3 10 5 40 18 67 12 26 26 65 29 85 4 21 17 50
30 65 13 15 35 59 51 98 15 38 34 74 41 80 8 5 20 28 27 50 10 28 20 40 33 40
13 0 20 8 22 27 2 15 11 33 21 40 19 14 64 147 59 174 -2 9 3 19 10 21 7 3 12
-4 12 -15 0 -11 6 -25 14 -31 20 -17 44 43 28 70 -22 34 -13 59 37 109 38 36
51 44 54 31 2 -9 -5 -26 -16 -38 -19 -21 -19 -21 12 -28 36 -8 51 -1 51 25 0
11 14 35 30 53 35 40 36 44 13 50 -17 4 -17 5 0 6 12 1 17 10 17 31 0 20 8 35
25 46 36 23 31 34 -15 34 l-41 0 23 40 c26 46 44 50 60 16 8 -19 5 -82 -16
-273 -14 -136 -29 -273 -32 -303 -3 -30 -17 -111 -31 -180 -37 -184 -32 -229
46 -370 4 -8 16 -32 27 -53 17 -37 164 -177 185 -177 5 0 29 -9 51 -20 32 -15
49 -18 72 -11 47 14 124 31 141 31 8 0 25 11 39 25 14 14 32 25 41 25 8 0 16
5 16 10 5 38 20 55 58 68 40 14 98 16 105 4 3 -5 -11 -16 -30 -26 -34 -16 -35
-18 -21 -39 28 -41 109 -16 151 48 l16 25 -34 0 c-42 0 -50 10 -34 45 9 21 17
25 35 20 20 -5 23 -2 21 17 -2 25 11 79 43 175 11 34 18 70 15 81 -7 21 17 87
42 115 15 17 15 21 -1 49 -17 30 -17 32 4 54 13 13 27 24 32 24 5 0 21 12 34
26 l24 26 -22 24 -22 24 24 45 c18 33 30 45 46 45 18 0 23 6 23 26 0 14 5 35
12 47 7 12 13 40 13 62 l0 40 51 -3 c49 -3 77 9 54 23 -6 4 -8 21 -4 41 5 27
3 34 -10 34 -19 0 -21 16 -3 23 6 2 29 38 50 79 l37 75 36 -11 c28 -9 34 -15
29 -31 -48 -164 -127 -671 -129 -827 -1 -85 2 -100 22 -127 12 -16 22 -36 22
-43 0 -8 14 -19 30 -25 23 -9 30 -17 30 -39 0 -36 67 -134 92 -134 10 0 18 -4
18 -9 0 -19 32 -42 51 -36 13 4 19 2 19 -8 0 -24 35 -47 83 -53 39 -6 47 -4
47 10 0 9 7 16 15 16 12 0 13 -4 5 -19 -17 -33 -12 -41 29 -41 32 0 41 4 47
22 6 20 7 19 20 -10 7 -18 15 -32 18 -32 3 0 13 15 22 32 24 47 86 121 93 111
11 -15 52 -34 61 -28 6 4 10 -9 10 -30 0 -35 1 -36 33 -33 27 3 36 11 60 56
20 37 40 58 67 72 21 11 53 40 71 65 18 24 40 47 51 51 10 3 22 13 28 23 6 13
17 17 34 14 20 -4 26 0 31 20 4 14 15 33 26 43 10 9 19 25 19 34 0 10 11 25
25 34 14 9 25 25 25 36 0 13 9 22 25 26 33 8 53 42 30 50 -31 12 -15 27 26 21
38 -5 42 -3 70 36 17 23 33 54 36 68 3 15 16 32 29 38 13 6 24 15 24 21 0 5 9
10 19 10 21 0 33 22 25 45 -8 20 13 45 37 45 14 0 21 9 26 31 3 18 15 35 27
40 12 6 34 30 50 55 15 24 41 53 57 65 16 11 29 28 29 37 0 10 20 39 44 65 30
33 42 54 39 67 -3 13 5 28 23 44 l29 25 -32 1 c-23 0 -33 5 -33 15 0 8 6 15
14 15 7 0 29 26 49 59 20 32 43 64 51 70 8 7 24 32 35 55 12 23 41 66 67 96
28 33 44 60 41 71 -3 9 3 29 13 44 10 15 15 36 12 47 -2 11 1 37 8 59 7 21 10
42 7 45 -9 9 -301 -202 -427 -309 -208 -176 -236 -199 -330 -268 -52 -39 -117
-93 -145 -119 -27 -26 -55 -46 -62 -43 -6 2 -23 -3 -36 -12 l-25 -16 -7 107
c-9 124 6 221 50 324 48 117 71 230 45 230 -5 0 -7 6 -4 13 3 8 -2 19 -10 26
-12 10 -11 16 11 37 20 20 24 32 20 59 -3 18 -1 37 4 42 5 5 11 37 13 70 3 34
9 70 15 81 15 29 14 30 -16 35 l-28 4 33 14 c28 12 32 18 32 51 0 20 6 57 14
80 8 24 15 54 15 68 0 14 3 41 6 60 3 19 8 58 11 85 3 28 10 54 15 59 5 6 9
30 9 55 0 26 7 66 16 90 14 40 13 45 -3 63 -10 11 -16 29 -15 40 2 12 -2 25
-10 30 -10 7 -10 11 5 22 20 15 23 42 5 48 -7 3 -12 21 -11 44 2 37 -1 42 -35
60 -20 10 -48 31 -62 46 -24 26 -31 28 -130 32 -58 3 -141 0 -185 -5z m-698
-1547 c-10 -10 -17 -25 -18 -33 0 -11 -2 -11 -6 -1 -5 12 23 52 35 52 3 0 -2
-8 -11 -18z m-1457 -252 c0 -5 -5 -10 -11 -10 -5 0 -7 5 -4 10 3 6 8 10 11 10
2 0 4 -4 4 -10z m674 -1085 c3 -8 1 -15 -4 -15 -6 0 -10 7 -10 15 0 8 2 15 4
15 2 0 6 -7 10 -15z"/>
<path d="M3093 2011 c-18 -12 -22 -39 -7 -45 20 -8 54 11 54 28 0 15 -33 27
-47 17z"/>
</g>
</svg>
