<?xml version="1.0" standalone="no"?>
<!DOCTYPE svg PUBLIC "-//W3C//DTD SVG 20010904//EN"
 "http://www.w3.org/TR/2001/REC-SVG-20010904/DTD/svg10.dtd">
<svg version="1.0" xmlns="http://www.w3.org/2000/svg"
 width="700.000000pt" height="700.000000pt" viewBox="0 0 700.000000 700.000000"
 preserveAspectRatio="xMidYMid meet">
<metadata>
Created by potrace 1.11, written by Peter Selinger 2001-2013
</metadata>
<g transform="translate(0.000000,700.000000) scale(0.100000,-0.100000)"
fill="#000000" stroke="none">
<path d="M3160 6569 c-41 -5 -88 -13 -103 -19 -16 -5 -57 -12 -90 -16 -137
-14 -494 -116 -712 -203 -496 -199 -1070 -675 -1392 -1155 -128 -190 -280
-520 -348 -756 -72 -249 -103 -445 -101 -642 1 -149 16 -172 42 -66 l12 53 1
-53 c1 -53 20 -132 33 -132 3 0 13 19 21 43 l14 42 1 -77 c1 -101 11 -115 33
-47 15 47 17 50 19 24 7 -120 33 -137 45 -30 4 33 13 72 20 86 13 24 33 115
85 384 12 61 25 113 29 117 4 4 8 -13 9 -39 3 -86 23 -105 40 -40 l9 32 7 -47
c13 -86 35 -68 82 67 15 44 33 87 40 95 6 8 53 97 104 198 97 194 153 283 316
502 94 126 242 310 250 310 2 0 -4 -16 -13 -35 -9 -19 -14 -38 -10 -41 13 -13
52 15 220 155 287 240 436 341 682 462 220 107 437 174 715 219 96 16 158 19
380 16 237 -2 279 -5 400 -29 378 -73 709 -215 995 -426 109 -80 135 -102 248
-211 82 -78 222 -234 257 -287 8 -11 40 -56 70 -100 74 -104 118 -178 188
-318 108 -216 197 -487 228 -695 2 -19 8 -48 11 -65 4 -16 7 -34 8 -40 23
-214 23 -482 0 -659 -140 -1081 -914 -1963 -1950 -2222 -55 -14 -109 -27 -120
-28 -146 -24 -247 -37 -330 -43 -206 -15 -514 -5 -630 20 -16 4 -46 9 -65 12
-178 29 -393 100 -632 211 -64 30 -126 55 -137 57 -11 2 -57 28 -103 58 -253
166 -551 455 -732 711 -49 70 -63 84 -73 74 -3 -3 12 -28 32 -57 25 -33 31
-47 18 -39 -18 12 -93 124 -139 210 -10 19 -21 37 -25 40 -12 12 -102 214
-149 338 -24 61 -47 112 -52 112 -14 0 -9 -25 26 -127 19 -54 38 -107 41 -118
20 -60 -60 98 -86 170 -17 47 -35 88 -40 91 -5 3 -9 3 -9 1 0 -8 48 -153 74
-221 15 -38 25 -71 22 -73 -4 -5 -66 162 -100 272 -67 216 -106 427 -122 665
-6 84 -9 122 -13 168 0 6 -6 12 -12 12 -13 0 0 -292 17 -380 2 -14 7 -43 10
-65 5 -35 38 -193 48 -235 21 -83 32 -120 61 -215 58 -185 75 -248 71 -253
-14 -13 -157 399 -180 521 -2 12 -9 43 -15 69 -15 63 -38 218 -47 303 -11 110
-12 125 -13 210 -1 44 -5 74 -9 67 -12 -17 -4 -201 13 -342 21 -166 65 -368
120 -546 4 -10 -2 -5 -11 11 -29 50 -28 10 2 -73 63 -178 58 -167 140 -339 60
-127 142 -271 221 -388 30 -44 43 -66 28 -50 -14 17 -47 62 -73 100 -26 39
-51 73 -57 77 -5 4 -6 8 -1 8 5 0 2 8 -6 18 -25 29 -85 133 -141 248 -179 359
-250 610 -303 1064 -6 49 -17 69 -29 50 -8 -13 -8 -137 0 -180 2 -14 6 -45 9
-70 7 -75 25 -174 51 -286 14 -59 24 -109 21 -111 -5 -6 -61 231 -81 347 -18
104 -21 119 -29 200 -9 93 -17 130 -28 130 -9 0 -5 -185 6 -250 3 -14 10 -59
16 -100 14 -86 13 -82 34 -175 32 -138 61 -242 93 -325 13 -36 26 -72 28 -80
2 -8 13 -37 25 -65 11 -27 26 -63 33 -80 23 -56 144 -290 187 -360 112 -183
249 -363 380 -498 41 -44 77 -82 80 -86 11 -15 199 -179 260 -227 448 -352
1061 -600 1615 -652 105 -9 476 -9 588 1 660 58 1342 380 1817 856 78 79 112
115 194 211 33 38 172 222 197 259 12 19 17 22 24 11 5 -8 4 -11 -2 -7 -15 9
-39 -41 -26 -54 19 -19 141 175 232 366 24 50 49 101 56 115 7 14 14 28 14 32
1 4 10 27 20 50 20 47 99 279 105 306 1 9 6 24 9 32 19 51 74 327 91 460 25
193 26 622 2 747 -3 11 -7 44 -11 74 -13 103 -46 265 -80 390 -33 118 -50 167
-155 444 -72 190 -148 340 -259 510 -45 70 -140 205 -151 215 -3 3 -23 28 -45
55 -62 78 -252 271 -331 336 -193 158 -315 237 -525 341 -312 155 -646 280
-894 333 -16 4 -39 9 -50 11 -149 33 -298 46 -555 49 -151 2 -309 -1 -350 -6z
m-2511 -3974 c0 -5 -4 -3 -9 5 -5 8 -9 22 -9 30 0 16 17 -16 18 -35z m8 -37
c-3 -8 -6 -5 -6 6 -1 11 2 17 5 13 3 -3 4 -12 1 -19z m206 -208 c3 -11 1 -18
-4 -14 -5 3 -9 12 -9 20 0 20 7 17 13 -6z m51 -116 c3 -8 2 -12 -4 -9 -6 3
-10 10 -10 16 0 14 7 11 14 -7z m30 -60 c3 -8 2 -12 -4 -9 -6 3 -10 10 -10 16
0 14 7 11 14 -7z m26 -4 c6 -11 8 -20 6 -20 -3 0 -10 9 -16 20 -6 11 -8 20 -6
20 3 0 10 -9 16 -20z m-6 -36 c3 -8 2 -12 -4 -9 -6 3 -10 10 -10 16 0 14 7 11
14 -7z m138 -194 c32 -52 66 -105 75 -117 8 -13 13 -23 10 -23 -13 0 -177 263
-177 283 1 7 8 -1 17 -18 9 -16 42 -73 75 -125z m-38 14 c3 -8 2 -12 -4 -9 -6
3 -10 10 -10 16 0 14 7 11 14 -7z m187 -381 c13 -16 12 -17 -3 -4 -10 7 -18
15 -18 17 0 8 8 3 21 -13z m49 -58 c19 -19 32 -35 29 -35 -3 0 -20 16 -39 35
-19 19 -32 35 -29 35 3 0 20 -16 39 -35z m140 -148 c93 -91 227 -208 315 -274
93 -71 130 -97 220 -156 164 -107 348 -202 540 -278 39 -16 64 -28 58 -29 -38
-1 -338 134 -483 218 -98 57 -311 198 -345 230 -11 10 -30 25 -42 33 -53 37
-208 182 -333 312 -79 83 -38 50 70 -56z m912 -403 c125 -63 368 -146 553
-189 55 -13 90 -24 79 -24 -38 -2 -242 49 -347 85 -92 31 -300 121 -337 144
-30 19 2 9 52 -16z m128 11 c14 -8 21 -14 15 -14 -5 0 -21 6 -35 14 -14 8 -20
14 -15 14 6 0 21 -6 35 -14z m90 -35 c8 -5 11 -10 5 -10 -5 0 -17 5 -25 10 -8
5 -10 10 -5 10 6 0 17 -5 25 -10z m55 -20 c13 -6 15 -9 5 -9 -8 0 -22 4 -30 9
-18 12 -2 12 25 0z m90 -30 c13 -6 15 -9 5 -9 -8 0 -22 4 -30 9 -18 12 -2 12
25 0z m82 -26 c-3 -3 -12 -4 -19 -1 -8 3 -5 6 6 6 11 1 17 -2 13 -5z m40 -10
c-3 -3 -12 -4 -19 -1 -8 3 -5 6 6 6 11 1 17 -2 13 -5z m40 -10 c-3 -3 -12 -4
-19 -1 -8 3 -5 6 6 6 11 1 17 -2 13 -5z m166 -101 c-7 -2 -19 -2 -25 0 -7 3
-2 5 12 5 14 0 19 -2 13 -5z"/>
<path d="M2526 4625 c-3 -8 0 -17 6 -21 9 -6 -89 -49 -132 -57 -8 -2 -39 -15
-69 -29 -29 -15 -60 -24 -68 -21 -7 3 -21 -2 -31 -10 -9 -9 -47 -25 -84 -38
-38 -12 -68 -26 -68 -30 0 -5 -9 -9 -19 -9 -11 0 -21 -6 -24 -12 -3 -10 -9
-10 -23 -2 -25 14 -66 -5 -60 -28 3 -14 0 -16 -12 -9 -19 10 -45 3 -37 -9 3
-5 -3 -7 -12 -5 -10 1 -27 -7 -38 -19 -11 -12 -17 -17 -12 -12 14 19 7 27 -15
20 -29 -8 -41 -26 -25 -36 8 -5 6 -9 -6 -14 -9 -3 -17 -12 -17 -19 0 -20 -37
-47 -62 -43 -22 3 -23 1 -24 -72 -1 -41 -5 -84 -9 -94 -6 -14 -2 -25 16 -40
13 -12 25 -25 26 -29 3 -12 73 -49 73 -40 0 5 5 0 11 -9 5 -10 21 -18 34 -18
16 0 25 -6 25 -16 0 -12 7 -15 30 -12 23 3 30 1 26 -9 -7 -17 27 -35 50 -26
12 4 15 3 10 -5 -4 -7 4 -14 21 -17 141 -29 307 -107 375 -177 26 -27 48 -52
48 -54 0 -2 -11 -2 -25 2 -15 4 -25 2 -25 -5 0 -14 -27 -14 -32 0 -2 6 -23 11
-46 11 -50 -1 -71 -10 -51 -23 10 -6 8 -9 -7 -9 -12 0 -24 7 -28 15 -8 22 -29
18 -23 -4 4 -16 -1 -19 -29 -19 -19 0 -34 4 -34 9 0 14 -27 10 -44 -6 -18 -18
-27 -19 -20 -2 2 7 -2 21 -9 31 -13 18 -14 18 -34 -3 -11 -12 -37 -30 -57 -40
-32 -17 -36 -17 -36 -2 0 9 -3 12 -8 6 -9 -14 -62 -50 -84 -58 -12 -4 -18 -1
-18 8 0 9 10 15 25 15 16 0 25 6 25 15 0 21 -27 19 -47 -5 -10 -11 -22 -20
-29 -20 -6 0 -19 -9 -28 -19 -22 -24 -65 -36 -79 -22 -18 18 -55 13 -62 -9 -4
-11 -11 -18 -16 -14 -14 8 -66 -15 -73 -33 -3 -8 -10 -11 -16 -8 -6 4 -24 -1
-42 -9 -17 -9 -36 -16 -43 -16 -14 0 -57 -44 -50 -51 3 -3 -34 -27 -82 -54
-99 -56 -99 -56 -171 -151 -29 -38 -61 -75 -72 -82 -11 -7 -20 -17 -20 -23 0
-5 -9 -31 -21 -56 -11 -25 -18 -47 -15 -51 3 -3 1 -11 -5 -18 -7 -8 -8 -25 -4
-41 6 -27 7 -27 21 -9 8 11 14 15 14 9 0 -6 -6 -16 -14 -22 -8 -7 -15 -20 -15
-29 -1 -9 -4 -38 -7 -64 -4 -30 -2 -48 4 -48 6 0 10 -9 9 -20 -1 -11 -5 -20
-9 -20 -5 0 -2 -13 6 -28 8 -15 16 -44 18 -62 3 -22 12 -39 24 -45 12 -6 19
-16 16 -24 -3 -10 1 -12 15 -9 24 6 56 -9 48 -23 -4 -5 5 -9 19 -9 13 0 37 -6
53 -14 15 -8 42 -20 58 -26 17 -7 38 -16 47 -21 9 -4 56 -6 105 -4 48 2 93 0
98 -5 6 -4 24 -10 40 -14 l30 -7 -23 18 c-22 18 -22 18 28 18 30 0 54 5 59 13
4 6 33 14 65 16 65 5 71 8 62 32 -4 11 -13 14 -31 10 -14 -4 -25 -2 -25 3 0 5
10 11 23 15 33 9 37 8 37 -9 0 -11 11 -15 38 -15 21 0 44 -6 51 -12 10 -11 18
-6 43 25 22 27 38 37 58 37 16 0 33 6 37 14 4 7 23 15 42 18 l33 5 -23 -18
-24 -19 40 0 c22 0 60 10 85 22 25 12 60 29 78 37 21 10 28 17 18 19 -32 7
-15 21 18 15 26 -4 38 0 55 18 11 12 21 19 21 14 0 -4 9 0 20 10 11 10 17 22
14 26 -3 5 0 9 5 9 6 0 11 -4 11 -10 0 -5 7 -10 15 -10 8 0 15 4 15 9 0 5 8
12 19 16 10 3 18 13 17 23 -1 13 7 17 35 17 23 0 50 10 75 28 22 15 45 27 51
27 6 0 44 33 85 73 l74 73 19 -29 c11 -16 31 -35 45 -42 126 -62 161 -66 229
-24 28 18 52 36 52 40 1 5 2 12 4 17 1 4 5 21 10 37 9 33 63 137 75 145 11 8
44 74 42 83 -2 5 3 7 10 5 13 -5 14 -34 5 -128 -8 -74 57 -179 121 -196 12 -3
22 -11 22 -17 0 -6 3 -8 6 -4 4 3 20 -1 36 -9 21 -11 37 -12 62 -6 20 6 39 6
50 0 20 -11 37 -2 30 16 -3 7 3 21 12 31 17 16 18 16 26 -4 9 -26 29 -27 58
-3 17 14 22 29 23 63 0 24 3 49 7 54 4 6 10 25 14 43 15 78 19 89 36 99 16 11
17 9 11 -20 -9 -41 -5 -85 8 -101 6 -7 8 -16 4 -19 -3 -4 1 -7 10 -7 10 0 17
-6 17 -13 0 -45 130 -123 232 -141 20 -3 31 1 43 20 17 27 45 32 45 9 0 -29
31 -14 84 40 29 30 56 55 58 55 3 0 2 -17 -1 -37 -19 -106 3 -183 54 -183 11
0 25 -4 31 -10 14 -14 104 -40 104 -29 0 15 62 79 76 79 8 0 17 8 21 18 3 9
15 30 26 45 11 16 20 39 20 51 0 19 4 22 23 18 13 -2 24 -8 24 -12 0 -4 14
-10 31 -14 16 -3 37 -13 46 -21 8 -9 26 -15 39 -13 14 2 29 -5 38 -17 13 -18
16 -18 41 -5 21 11 30 12 46 2 13 -8 25 -9 37 -3 9 5 43 7 74 5 31 -2 59 0 62
4 2 4 41 7 85 5 46 -1 92 2 108 9 16 7 42 13 58 14 17 1 53 7 80 14 28 6 58
13 68 15 11 3 38 15 60 28 23 14 53 28 66 32 33 10 178 80 223 107 69 43 130
110 160 177 26 55 29 73 24 119 -8 69 -47 143 -111 207 -51 51 -102 95 -110
95 -2 0 -39 22 -82 49 -43 26 -99 57 -125 67 -42 17 -66 44 -38 44 6 0 10 5
10 11 0 6 15 25 33 42 86 86 107 118 104 161 -1 27 -7 41 -16 41 -25 0 -37 31
-19 49 16 16 14 51 -3 62 -11 6 0 56 13 65 16 10 12 64 -7 93 -19 28 -57 50
-95 55 -5 0 -10 7 -10 15 0 15 -45 30 -60 21 -6 -4 -10 -2 -10 4 0 11 -39 26
-58 22 -8 -1 -19 2 -25 7 -7 5 -25 13 -42 17 -44 11 -244 15 -287 6 -34 -8
-61 -2 -59 13 6 43 -27 89 -64 89 -14 0 -30 6 -36 13 -32 39 -61 7 -138 -148
-41 -84 -46 -88 -114 -129 -40 -23 -103 -72 -140 -108 -63 -61 -67 -67 -66
-105 3 -59 24 -96 55 -96 53 0 72 -53 37 -106 -8 -13 -12 -28 -8 -34 3 -5 -3
-22 -14 -36 -11 -14 -23 -42 -27 -63 -9 -51 -51 -186 -70 -223 -9 -17 -17 -43
-17 -59 -2 -21 -15 -37 -56 -68 -30 -23 -57 -39 -59 -36 -3 2 2 24 11 47 9 24
19 72 22 108 4 36 10 84 15 107 6 23 12 63 15 89 4 26 8 51 10 55 3 3 7 28 10
55 4 26 8 51 11 55 2 4 -1 11 -7 14 -5 4 -8 13 -5 21 17 44 -25 100 -82 110
-14 3 -32 10 -39 16 -18 15 -144 11 -186 -7 -21 -8 -89 -68 -163 -142 l-126
-128 5 45 c2 25 0 65 -5 90 -7 38 -14 48 -41 58 -18 7 -46 19 -63 27 -35 15
-160 14 -189 -3 -11 -6 -49 -40 -86 -77 l-66 -67 1 45 c1 60 -20 97 -55 97
-15 0 -29 6 -32 14 -5 12 -24 14 -95 11 -118 -4 -143 -18 -156 -90 -3 -15 -14
-55 -25 -89 -39 -122 -73 -235 -89 -300 l-17 -67 -43 43 c-23 24 -64 77 -90
120 -131 212 -302 381 -438 430 -19 7 -34 15 -34 19 0 14 27 28 55 28 35 0 49
3 90 21 17 7 37 13 45 14 16 3 43 12 75 27 11 5 29 11 40 14 11 2 53 11 92 20
77 16 142 12 178 -11 21 -14 88 -5 107 14 5 5 10 40 10 78 1 59 -3 77 -28 119
-16 28 -29 56 -30 63 -3 18 -83 94 -93 88 -4 -3 -21 8 -37 25 -25 26 -29 28
-35 12 -5 -15 -10 -13 -38 17 -18 19 -31 31 -30 25 1 -5 1 -18 0 -28 -1 -16
-4 -16 -28 -3 -16 7 -40 12 -55 11 -18 -2 -28 1 -28 10 0 20 -17 27 -24 10z
m2855 -421 c12 -7 -37 -53 -57 -54 -6 0 -23 -9 -38 -21 -14 -11 -26 -17 -26
-14 0 4 -11 0 -24 -9 -61 -39 -101 -57 -138 -61 -22 -2 -48 -11 -57 -19 -24
-22 -54 -21 -47 2 3 9 8 43 12 74 l6 57 77 25 c42 14 94 27 116 29 57 4 163
-1 176 -9z m-2831 -4 c0 -5 -4 -10 -10 -10 -5 0 -10 5 -10 10 0 6 5 10 10 10
6 0 10 -4 10 -10z m-216 -64 c-3 -7 -28 -21 -56 -30 -54 -17 -74 -17 -35 1 34
16 92 42 94 42 1 1 0 -5 -3 -13z m3001 -541 c22 -4 56 -11 75 -17 49 -14 220
-98 220 -107 0 -11 -41 -28 -84 -37 -20 -3 -39 -10 -42 -15 -3 -5 -14 -9 -25
-9 -10 0 -19 -4 -19 -9 0 -5 -15 -11 -32 -14 -18 -3 -55 -11 -83 -17 -27 -6
-70 -13 -95 -15 -25 -3 -63 -12 -85 -20 -22 -8 -60 -17 -84 -19 -27 -3 -50
-11 -58 -22 -10 -14 -15 -15 -27 -4 -25 20 -134 1 -149 -25 -6 -12 -12 -13
-21 -6 -11 9 -7 27 15 92 16 44 29 88 29 98 0 10 7 32 16 50 14 27 18 30 31
19 13 -11 18 -9 30 9 13 19 19 21 35 12 35 -19 119 -4 193 34 45 23 79 35 95
32 14 -3 43 -7 65 -10z m-2984 -376 c-29 -28 -66 -55 -82 -61 -18 -6 -35 -23
-45 -44 -9 -19 -38 -48 -70 -69 -29 -20 -58 -43 -63 -53 -6 -9 -11 -13 -11 -9
0 5 -29 -7 -65 -27 -36 -20 -72 -36 -80 -36 -8 0 -15 -5 -15 -12 0 -7 -12 -22
-26 -35 -21 -18 -31 -20 -51 -12 -21 8 -32 5 -59 -16 -18 -14 -37 -25 -43 -25
-6 0 -11 -6 -11 -14 0 -24 -26 -38 -40 -21 -14 16 -40 20 -40 6 0 -5 -20 -14
-45 -20 -25 -6 -45 -17 -45 -24 0 -17 -61 -40 -74 -27 -6 6 -27 10 -48 10 -33
0 -78 26 -78 45 0 2 26 29 58 60 52 50 123 94 162 101 8 2 19 10 25 18 6 8 25
17 41 20 16 3 30 10 32 16 2 5 8 8 13 5 5 -3 33 10 64 30 30 19 60 35 67 35 6
0 18 8 27 18 18 21 54 42 79 46 92 17 94 17 82 31 -9 10 -6 15 12 20 23 7 76
28 113 46 18 9 61 17 125 23 14 1 32 5 40 9 14 6 50 12 90 15 8 1 -9 -21 -39
-49z m1439 -70 c0 -11 -4 -18 -10 -14 -5 3 -7 12 -3 20 7 21 13 19 13 -6z
m-1846 -614 c-22 -17 -45 -16 -51 2 -3 7 9 13 29 15 42 4 46 1 22 -17z m-129
-13 c-3 -3 -11 0 -18 7 -9 10 -8 11 6 5 10 -3 15 -9 12 -12z m66 -26 c5 3 9 0
9 -6 0 -15 -23 -7 -26 8 -1 7 0 8 3 2 2 -5 9 -8 14 -4z m-237 -40 c-3 -9 -12
-12 -22 -9 -15 6 -9 11 25 22 1 1 0 -5 -3 -13z"/>
<path d="M2500 4125 c7 -8 16 -12 21 -9 13 8 1 24 -18 24 -13 0 -13 -3 -3 -15z"/>
<path d="M1716 3513 c-11 -11 -6 -23 9 -23 8 0 15 4 15 9 0 13 -16 22 -24 14z"/>
<path d="M1940 2485 c-7 -9 -11 -18 -8 -20 3 -3 11 1 18 10 7 9 11 18 8 20 -3
3 -11 -1 -18 -10z"/>
</g>
</svg>
